<svg width="147" height="53" viewBox="0 0 147 53" fill="none" xmlns="http://www.w3.org/2000/svg">
<g clip-path="url(#clip0_600_926)">
<path d="M102.05 36.6457C102.05 36.2361 102.05 35.8265 102.045 35.4169C102.045 35.3801 101.975 35.3406 101.932 35.3131C101.92 35.309 101.907 35.308 101.893 35.3103C101.88 35.3125 101.868 35.3179 101.858 35.3259C101.808 35.3545 101.764 35.3929 101.729 35.4389C101.611 35.6391 101.507 35.8485 101.387 36.0478C101.031 36.6494 100.682 37.2556 100.307 37.8443C99.9634 38.3859 99.5568 38.8824 99.0967 39.323C98.7078 39.7133 98.2446 40.0164 97.7363 40.213C97.2764 40.3732 96.7811 40.3921 96.3109 40.2671C95.7484 40.1309 95.26 39.7728 94.9505 39.2697C94.6964 38.8776 94.5229 38.4359 94.4409 37.972C94.3127 37.251 94.1951 36.5236 94.2494 35.7842C94.269 35.5216 94.3207 35.2607 94.3438 34.9981C94.3462 34.8825 94.3385 34.7669 94.3207 34.6527C94.3135 34.5848 94.1648 34.5251 94.1104 34.5682C94.0399 34.6147 93.9745 34.6689 93.9153 34.7299C93.7469 34.9292 93.5955 35.1432 93.4236 35.3388C92.6797 36.1865 91.82 36.8368 90.6859 36.9993C90.5155 37.0317 90.3646 37.1325 90.2663 37.2795C90.1415 37.4393 90.0266 37.6083 89.9019 37.7681C89.5135 38.2762 89.0679 38.735 88.5745 39.1347C87.9694 39.6313 87.2538 39.9646 86.4925 40.1046C85.3343 40.3085 84.3543 39.9742 83.6318 38.9694C83.3277 38.5437 83.0944 38.0688 82.9414 37.5642C82.7543 36.9479 82.5957 36.3234 82.5735 35.6713C82.5681 35.4959 82.5414 35.3204 82.52 35.1459C82.5066 35.033 82.3801 34.8704 82.3204 34.8943C82.242 34.92 82.1724 34.9684 82.12 35.0339C81.9792 35.2543 81.8527 35.4848 81.7262 35.7135C81.2819 36.5344 80.7895 37.3267 80.2518 38.0858C79.9149 38.5596 79.5326 38.9972 79.1106 39.3919C78.8166 39.671 78.4733 39.8893 78.0994 40.0348C77.4518 40.2782 76.8656 40.1174 76.3123 39.7657C76.0379 39.5912 75.8749 39.3065 75.7706 38.9942C75.5631 38.3504 75.5211 37.6621 75.6486 36.9966C75.8921 35.6698 76.2416 34.3661 76.6936 33.0987C77.0758 31.9966 77.4758 30.8945 77.8624 29.7923C77.9979 29.4057 78.1297 29.0163 78.242 28.6241C78.2772 28.4825 78.2943 28.3368 78.2927 28.1906C78.2913 28.1319 78.2763 28.0744 78.2489 28.0229C78.2215 27.9714 78.1825 27.9274 78.1352 27.8947C78.0879 27.862 78.0337 27.8414 77.9771 27.8347C77.9205 27.828 77.8631 27.8354 77.8099 27.8563C77.6509 27.9185 77.4988 27.9982 77.3564 28.0942C77.0054 28.3458 76.6954 28.6534 76.4379 29.0052C75.9854 29.6096 75.5221 30.2093 75.1194 30.8476C74.4067 31.9801 73.7296 33.1373 73.0481 34.2909C72.9217 34.5201 72.8152 34.7604 72.7301 35.0091C72.3888 35.9174 72.2151 36.8708 72.0922 37.8296C71.9946 38.4711 72.0179 39.1259 72.1608 39.7583C72.1814 39.8725 72.1912 39.9885 72.1902 40.1046C72.1841 40.1477 72.1664 40.1881 72.1392 40.2214C72.112 40.2547 72.0762 40.2794 72.0361 40.2929C71.9251 40.3168 71.8117 40.3264 71.6984 40.3213C71.4568 40.2966 71.2232 40.2181 71.0139 40.0912C70.8046 39.9643 70.6244 39.7922 70.4859 39.5866C70.3325 39.3733 70.2242 39.1293 70.1679 38.8702C70.0467 38.2383 69.9122 37.6073 70.0129 36.9507C70.093 36.4299 70.126 35.9018 70.1723 35.3755C70.1684 35.3487 70.1582 35.3233 70.1427 35.3014C70.1272 35.2795 70.1068 35.2618 70.0832 35.2497C70.0576 35.2411 70.0304 35.2387 70.0037 35.2425C69.977 35.2463 69.9515 35.2563 69.9291 35.2718C69.85 35.3548 69.781 35.4473 69.7233 35.5473C69.5772 35.7989 69.4436 36.0589 69.2975 36.3105C68.9 37.0241 68.4581 37.7104 67.9745 38.3651C67.7286 38.6883 67.4631 38.9951 67.1923 39.2964C66.9347 39.5728 66.6264 39.7938 66.2854 39.9466C65.9494 40.1064 65.5828 40.1861 65.2128 40.1799C65.0123 40.1842 64.8143 40.134 64.6387 40.0344C64.4631 39.9347 64.316 39.7892 64.2123 39.6123C63.9764 39.2426 63.8278 38.8211 63.7784 38.3816C63.7048 37.8282 63.6792 37.2691 63.7018 36.7109C63.7024 36.5953 63.6806 36.4807 63.6377 36.3739C63.627 36.3427 63.5379 36.3224 63.4889 36.3298C63.4342 36.3425 63.3858 36.3751 63.3526 36.4216C63.1994 36.6338 63.0541 36.8515 62.9071 37.0645C62.4714 37.7191 61.9733 38.327 61.4203 38.8794C61.0301 39.267 60.5918 39.5997 60.1169 39.8685C59.7196 40.1029 59.2763 40.2423 58.8198 40.2763C57.8095 40.325 56.9961 39.9687 56.6113 38.9823C56.5031 38.7421 56.4359 38.4845 56.4126 38.2209C56.401 37.9573 56.3627 37.6946 56.3333 37.4319C56.3199 37.3079 56.2202 37.1564 56.1551 37.1564C56.0268 37.1564 55.9484 37.2482 55.8798 37.3401C55.7409 37.5238 55.6126 37.7222 55.478 37.9095C55.0861 38.4519 54.638 38.9486 54.1417 39.391C53.3406 40.111 52.3402 40.5531 51.282 40.6547C49.9261 40.7916 48.8418 40.2267 48.2592 38.985C47.9264 38.2683 47.7385 37.4893 47.7069 36.6953C47.689 36.316 47.746 35.9321 47.6436 35.5592C47.6329 35.5188 47.5652 35.4913 47.518 35.4674C47.5046 35.4643 47.4908 35.4643 47.4774 35.4673C47.464 35.4703 47.4514 35.4763 47.4405 35.4848C47.3908 35.5117 47.3476 35.5496 47.314 35.596C47.1928 35.8283 47.0797 36.0653 46.9647 36.3013C46.6823 36.8781 46.4142 37.4622 46.1131 38.028C45.868 38.4916 45.6004 38.9422 45.3113 39.3781C45.1283 39.639 44.9193 39.8795 44.6876 40.0954C44.5152 40.2545 44.2951 40.3479 44.064 40.3599C43.5502 40.4133 43.0333 40.2952 42.5896 40.0228C42.0293 39.67 41.5326 39.2197 41.1214 38.692C40.7785 38.2597 40.4735 37.7968 40.2101 37.3089C40.1269 37.1555 40.0359 37.0068 39.9374 36.8634C39.9161 36.8464 39.8913 36.8345 39.865 36.8288C39.8386 36.8231 39.8113 36.8236 39.7851 36.8303C39.7341 36.8491 39.6885 36.8807 39.6524 36.9222C39.6327 36.9433 39.6202 36.9703 39.6167 36.9993C39.5517 37.4347 39.4679 37.8673 39.4296 38.3054C39.3815 38.861 39.3575 39.4203 39.5259 39.9659C39.5387 40.023 39.547 40.081 39.5508 40.1395C39.5584 40.1827 39.5572 40.227 39.5473 40.2697C39.5374 40.3123 39.519 40.3524 39.4933 40.3874C39.4676 40.4224 39.4351 40.4515 39.3979 40.4728C39.3607 40.4942 39.3197 40.5073 39.2773 40.5114C38.6759 40.5684 38.2278 40.2965 37.8946 39.8079C37.6428 39.4478 37.489 39.0248 37.4492 38.5827C37.4045 38.1152 37.3852 37.6454 37.3913 37.1757C37.4082 36.62 37.4207 36.0598 37.5383 35.5106C37.5535 35.4537 37.5535 35.3938 37.5383 35.337C37.5297 35.3118 37.5162 35.2887 37.4988 35.2689C37.4814 35.2492 37.4602 35.2333 37.4367 35.2222C37.3904 35.2084 37.304 35.2176 37.2817 35.2506C37.1347 35.4655 36.9895 35.6832 36.863 35.911C36.4203 36.7326 35.926 37.5236 35.3832 38.2787C35.1249 38.6287 34.8389 38.9575 34.552 39.2826C34.2946 39.5593 33.9871 39.7815 33.6469 39.9365C33.2852 40.1111 32.8876 40.1918 32.4887 40.1716C32.3171 40.1684 32.1487 40.1232 31.9973 40.0397C31.846 39.9562 31.7161 39.8368 31.6183 39.6913C31.3438 39.3123 31.1747 38.8633 31.1293 38.3926C31.0829 37.926 31.0696 37.4558 31.0446 36.9865C31.0357 36.812 31.0446 36.6356 31.0286 36.4611C31.0211 36.4342 31.008 36.4093 30.9901 36.3882C30.9722 36.3671 30.9501 36.3503 30.9252 36.339C30.9008 36.3279 30.8742 36.3227 30.8476 36.3237C30.8209 36.3246 30.7948 36.3317 30.7711 36.3445C30.675 36.4524 30.5858 36.5665 30.5038 36.6861C30.1805 37.1334 29.8713 37.5917 29.5346 38.0271C29.108 38.5838 28.6088 39.0771 28.0512 39.4929C27.5887 39.8365 27.0668 40.0859 26.5136 40.2277C25.9835 40.3654 25.4935 40.2644 25.0044 40.1027C24.7042 39.998 24.4434 39.7989 24.2587 39.5333C23.9953 39.184 23.8265 38.7688 23.7696 38.3302C23.6522 37.4555 23.7003 36.5656 23.9113 35.7099C24.4869 33.4257 25.5388 31.2984 26.9938 29.4764C27.4617 28.8823 28.0039 28.3548 28.6063 27.9077C29.2309 27.4423 29.9437 27.1178 30.6981 26.9553C31.5791 26.767 32.3328 27.0003 33.0019 27.5771C33.1959 27.7496 33.3672 27.9475 33.5115 28.1658C33.9988 28.8831 34.2117 29.6968 34.2607 30.5638C34.272 30.9475 34.2068 31.3295 34.0692 31.6862C34.0492 31.7414 34.0135 31.7892 33.9668 31.8233C33.92 31.8573 33.8645 31.8761 33.8073 31.8772C33.6923 31.8864 33.5542 31.7909 33.5569 31.6935C33.5563 31.5771 33.5638 31.4608 33.5792 31.3454C33.6888 30.6548 33.5471 30.0036 33.279 29.3754C33.219 29.2423 33.1452 29.1164 33.0589 28.9997C32.5885 28.3311 31.8687 28.1832 31.156 28.4551C30.892 28.5645 30.6447 28.7126 30.4219 28.895C30.1733 29.0914 29.9436 29.312 29.7359 29.5536C29.4687 29.859 29.2214 30.1824 28.9956 30.5216C27.8607 32.2517 27.0174 34.1669 26.5011 36.1865C26.3727 36.7299 26.3392 37.2925 26.4022 37.848C26.4114 37.9351 26.4296 38.0211 26.4566 38.1042C26.5272 38.3304 26.678 38.5207 26.8788 38.6374C27.0796 38.754 27.3156 38.7882 27.5399 38.7334C27.762 38.6827 27.9733 38.5909 28.1635 38.4624C28.5231 38.2218 28.8424 37.9225 29.1087 37.5761C29.4546 37.1474 29.7779 36.6998 30.0771 36.2352C30.5226 35.5161 30.9208 34.7721 31.3306 34.0309C31.5971 33.5779 31.7719 33.074 31.8446 32.5495C31.8767 32.274 32.0451 32.1656 32.323 32.1481C32.7233 32.1179 33.1239 32.2014 33.4812 32.3897C33.6638 32.4756 33.8208 32.6103 33.9358 32.7799C34.0508 32.9495 34.1196 33.1477 34.1351 33.3541C34.1845 33.8518 34.1495 34.3547 34.0318 34.8401C33.8536 35.5537 33.7645 36.2802 33.6567 37.0048C33.6234 37.2962 33.6088 37.5895 33.613 37.8829C33.6142 38.0004 33.6335 38.1169 33.6701 38.2282C33.7975 38.625 34.0531 38.7379 34.3747 38.4404C34.5234 38.3033 34.6592 38.152 34.7801 37.9885C35.0732 37.5917 35.369 37.195 35.6362 36.7789C36.4947 35.4278 37.273 34.0243 37.9668 32.5761C38.132 32.2344 38.2585 31.8741 38.3436 31.5025C38.9405 28.9061 39.5544 26.3133 40.1067 23.7059C40.1798 23.3624 40.2644 23.0198 40.3107 22.6717C40.3758 22.1794 40.4648 21.6862 40.3864 21.182C40.368 21.0072 40.3656 20.831 40.3793 20.6557C40.3936 20.5839 40.4274 20.5178 40.4768 20.4651C40.5261 20.4124 40.5891 20.3753 40.6582 20.3581C41.0573 20.3095 41.4493 20.3058 41.8297 20.484C42.0401 20.5769 42.2248 20.7224 42.3671 20.9072C42.5094 21.0921 42.6048 21.3106 42.6448 21.5429C42.709 21.8896 42.7288 22.2435 42.7036 22.5955C42.6552 23.3568 42.5509 24.1133 42.3918 24.8585C42.1789 25.9514 41.9464 27.0398 41.6622 28.1153C41.6392 28.23 41.6243 28.3464 41.6176 28.4634C41.6078 28.5552 41.6693 28.6764 41.7272 28.6764C41.7811 28.6824 41.8356 28.6745 41.8858 28.6535C42.0773 28.5267 42.2644 28.3936 42.4497 28.2567C43.0596 27.8195 43.7623 27.5395 44.4988 27.4402C45.1429 27.3392 46.0133 27.6368 46.3037 28.4579C46.3479 28.5655 46.3799 28.6779 46.399 28.7931C46.467 29.2886 46.4367 29.7933 46.3099 30.2764C45.8886 31.7312 45.0787 32.9132 43.974 33.8904C43.3761 34.4391 42.6728 34.8519 41.9099 35.1018C41.7756 35.1501 41.6438 35.2056 41.5152 35.2681C41.4664 35.2978 41.4278 35.3424 41.4047 35.3957C41.3815 35.449 41.375 35.5084 41.386 35.5657C41.4073 35.6805 41.4371 35.7935 41.4751 35.9036C41.8149 36.7452 42.2326 37.551 42.7223 38.31C42.9213 38.6331 43.1671 38.923 43.4511 39.1696C43.9856 39.6013 44.3375 39.6068 44.7874 39.0879C44.9922 38.8438 45.1742 38.5802 45.3309 38.3008C45.5919 37.8461 45.8413 37.3823 46.0676 36.9103C46.8118 35.3575 47.5483 33.8007 48.277 32.24C48.3884 32.003 48.4766 31.7541 48.5728 31.5052C48.8879 30.6857 49.2872 29.9034 49.7639 29.1715C50.1275 28.6115 50.5589 28.1017 51.0477 27.6542C51.4323 27.3034 51.8671 27.0159 52.3368 26.8019C52.8868 26.5515 53.4923 26.4591 54.0892 26.5346C54.4874 26.5817 54.8686 26.7276 55.2001 26.9599C56.1106 27.5954 56.5667 28.5001 56.679 29.6123C56.7796 30.6052 56.4687 31.463 55.8941 32.2372C55.5439 32.7021 55.1339 33.1155 54.6754 33.4661C53.8744 34.0809 52.9829 34.5591 52.0348 34.8823C51.7925 34.9668 51.543 35.0302 51.3007 35.1147C51.1899 35.1463 51.0905 35.2107 51.0149 35.3C50.9394 35.3894 50.891 35.4996 50.8757 35.6171C50.8258 35.9367 50.7751 36.2554 50.7341 36.575C50.6617 37.1611 50.713 37.7564 50.8846 38.3201C50.9347 38.4885 51.0102 38.6478 51.1083 38.7921C51.2242 38.9776 51.382 39.1314 51.5682 39.2403C51.7544 39.3492 51.9634 39.4101 52.1773 39.4176C52.5487 39.4396 52.9192 39.3607 53.2517 39.1889C53.607 39.001 53.9346 38.7619 54.2246 38.4789C54.5981 38.1165 54.9357 37.7165 55.2322 37.285C55.7654 36.5206 56.2545 35.7244 56.6968 34.9007C56.8569 34.5899 56.9974 34.2687 57.1173 33.9391C57.5683 32.7643 58.1415 31.6434 58.8269 30.596C59.2718 29.9123 59.7825 29.2765 60.3512 28.6985C60.6982 28.3498 61.0751 28.0341 61.4773 27.7553C62.1188 27.3099 62.8498 27.0198 63.6154 26.9066C64.2675 26.8074 64.8546 27.0113 65.3972 27.3658C65.7086 27.5753 65.9744 27.8493 66.1776 28.1704C66.6533 28.896 66.8716 29.7051 66.9197 30.5712C66.928 30.9523 66.8626 31.3314 66.7273 31.6862C66.706 31.7411 66.669 31.788 66.6213 31.8208C66.5736 31.8536 66.5173 31.8707 66.46 31.8699C66.3451 31.879 66.2097 31.778 66.2141 31.6807C66.2151 31.5643 66.2228 31.448 66.2373 31.3326C66.3388 30.6731 66.1999 30.0468 65.97 29.4406C65.9154 29.3049 65.8464 29.1758 65.7642 29.0558C65.2947 28.3458 64.5749 28.1667 63.8043 28.445C63.4814 28.5653 63.186 28.7529 62.9365 28.9961C62.6838 29.2331 62.4435 29.4839 62.2167 29.7473C62.011 29.9912 61.8208 30.2486 61.6474 30.5179C60.5323 32.2258 59.6979 34.1115 59.1779 36.0993C59.0477 36.6413 59.0038 37.2015 59.0478 37.758C59.0585 37.9644 59.1225 38.1642 59.2331 38.3366C59.3284 38.4835 59.4623 38.5994 59.6191 38.6708C59.7759 38.7422 59.9492 38.7661 60.1187 38.7398C60.373 38.6955 60.6157 38.5973 60.8314 38.4514C61.1429 38.2432 61.4227 37.9884 61.6617 37.6955C61.9557 37.3373 62.2434 36.9709 62.5062 36.5879C63.1059 35.694 63.6441 34.758 64.117 33.7866C64.3189 33.3977 64.4505 32.9741 64.5054 32.5366C64.5147 32.4328 64.5605 32.3361 64.6342 32.2647C64.7079 32.1934 64.8043 32.1522 64.9054 32.1491C65.333 32.0994 65.7653 32.1819 66.1473 32.386C66.3289 32.474 66.4846 32.6102 66.5984 32.7806C66.7122 32.951 66.7801 33.1496 66.795 33.3559C66.8419 33.8539 66.8054 34.3566 66.6872 34.8419C66.509 35.584 66.411 36.3399 66.3023 37.0939C66.2739 37.3564 66.2647 37.6208 66.2747 37.8847C66.2798 38.0019 66.2992 38.1179 66.3326 38.23C66.4359 38.6259 66.7513 38.7168 67.0453 38.4312C67.1922 38.2918 67.3272 38.1397 67.4489 37.9766C67.7883 37.5054 68.1313 37.0352 68.444 36.5447C69.2142 35.3124 69.9199 34.0386 70.5581 32.7286C70.764 32.311 70.9175 31.8681 71.0151 31.4106C71.5897 28.8087 72.1875 26.2123 72.7746 23.614C72.8521 23.2714 72.9323 22.927 72.9795 22.5798C73.0463 22.0866 73.1114 21.5916 73.0374 21.0883C73.0189 20.9146 73.0285 20.7389 73.0659 20.5685C73.0772 20.5268 73.0978 20.4885 73.1262 20.4566C73.1545 20.4246 73.1897 20.4001 73.229 20.3848C74.0815 20.1671 74.853 20.4876 75.1836 21.2169C75.2544 21.3767 75.3013 21.5467 75.3225 21.7211C75.3962 22.3054 75.3702 22.8984 75.2459 23.4735C74.9626 24.8511 74.6579 26.2224 74.3613 27.5964C74.0904 28.8552 73.8196 30.1144 73.5488 31.3739C73.5263 31.4585 73.5164 31.5461 73.5194 31.6338C73.5263 31.6597 73.539 31.6836 73.5565 31.7036C73.5739 31.7235 73.5957 31.7389 73.6201 31.7486C73.6467 31.7559 73.6746 31.7569 73.7018 31.7517C73.7289 31.7464 73.7545 31.735 73.7768 31.7183C73.8719 31.6099 73.9583 31.4938 74.0352 31.3711C74.3301 30.9037 74.6116 30.4261 74.9154 29.965C75.2718 29.4305 75.6281 28.8996 76.0058 28.3862C76.251 28.0603 76.519 27.7534 76.8076 27.4678C77.0355 27.2465 77.2814 27.0459 77.5426 26.868C78.0443 26.5194 78.6555 26.3796 79.2531 26.4768C79.5117 26.5019 79.754 26.6182 79.939 26.8061C80.1241 26.994 80.2405 27.242 80.2687 27.5082C80.3515 28.1511 80.3237 28.804 80.1868 29.4369C79.9418 30.6456 79.5525 31.8111 79.1738 32.9802C78.9395 33.704 78.691 34.4222 78.4611 35.1478C78.2414 35.8449 78.0714 36.5577 77.9524 37.2804C77.8897 37.7181 77.9363 38.1651 78.0878 38.5791C78.1121 38.6404 78.1484 38.6959 78.1945 38.7421C78.2405 38.7883 78.2954 38.8242 78.3555 38.8474C78.4157 38.8707 78.4799 38.8809 78.544 38.8774C78.6082 38.8739 78.671 38.8568 78.7284 38.827C78.8798 38.7455 79.0176 38.6395 79.1364 38.5129C79.4358 38.1593 79.7315 37.8002 79.997 37.42C80.5519 36.6013 81.066 35.754 81.5374 34.8814C81.7075 34.5765 81.8732 34.2679 82.038 33.963C82.5601 32.9904 82.5565 32.9894 82.7507 31.8221C82.7988 31.5346 82.8719 31.2499 82.9414 30.9661C83.0075 30.7394 83.144 30.5413 83.3298 30.4022C83.753 30.044 84.2528 29.9613 84.7757 29.9806C85.0314 29.9898 85.2853 30.0403 85.5401 30.0679C85.582 30.0756 85.625 30.0745 85.6665 30.0648C85.708 30.055 85.7472 30.0367 85.7817 30.011C85.8162 29.9853 85.8453 29.9527 85.8673 29.9151C85.8893 29.8775 85.9038 29.8358 85.9098 29.7923C85.9517 29.5921 85.9757 29.3882 86.0069 29.1853C86.0961 28.5165 86.2658 27.8618 86.5121 27.2363C86.6106 26.9927 86.7249 26.7561 86.8542 26.5282C87.4766 25.4518 88.3972 24.9222 89.6159 24.9393C90.6413 24.9531 91.4137 25.4178 91.9438 26.317C91.9883 26.3923 92.0329 26.4704 92.0658 26.5493C92.3581 27.1554 92.5319 27.8148 92.5772 28.49C92.6305 29.2239 92.6258 29.9611 92.563 30.6943C92.5105 31.1884 92.4304 31.6791 92.3233 32.1638C92.0916 33.254 91.7476 34.3156 91.297 35.3305C91.215 35.5142 91.1456 35.7089 91.0725 35.9C91.065 35.943 91.0694 35.9873 91.0851 36.0279C91.1009 36.0685 91.1274 36.1038 91.1616 36.1296C91.2106 36.1567 91.2654 36.1708 91.3211 36.1709C91.7386 36.07 92.1285 35.8728 92.4614 35.5941C92.8217 35.3053 93.1432 34.9684 93.4173 34.5921C93.8935 33.9312 94.3055 33.2236 94.6476 32.4797C94.7875 32.1904 94.8418 31.8699 94.9149 31.5539C95.3782 29.4626 95.9465 27.4053 96.7662 25.4288C97.1046 24.5878 97.5124 23.7781 97.9849 23.0088C98.3162 22.459 98.7194 21.959 99.1831 21.5227C99.5649 21.1663 100.023 20.9077 100.519 20.7678C101.136 20.5988 101.652 20.8174 101.956 21.4107C102.177 21.8568 102.3 22.3469 102.319 22.8471C102.355 23.4441 102.203 24.0126 102.062 24.5802C101.9 25.2043 101.674 25.8089 101.388 26.384C100.76 27.6715 99.9677 28.8671 99.0335 29.9393C98.5257 30.5335 97.9849 31.1002 97.4388 31.6577C97.187 31.8975 97.0118 32.2104 96.9363 32.555C96.8187 33.1281 96.6851 33.6994 96.58 34.2743C96.3752 35.3113 96.2929 36.37 96.335 37.4273C96.3461 37.7803 96.428 38.1271 96.5755 38.4459C96.6571 38.5995 96.7638 38.7374 96.8909 38.8537C96.9744 38.9335 97.0772 38.9887 97.1884 39.0135C97.4963 39.0854 97.8182 39.0568 98.1096 38.9317C98.5002 38.7505 98.8552 38.4971 99.1573 38.1841C99.5191 37.8103 99.8471 37.4033 100.137 36.9681C100.585 36.3227 100.987 35.645 101.34 34.9402C101.847 33.9226 102.32 32.8884 102.812 31.8607C102.864 31.7564 102.907 31.6476 102.94 31.5355C103.284 30.326 103.761 29.1559 103.959 27.9031C103.965 27.8518 103.982 27.8024 104.008 27.7582C104.034 27.714 104.069 27.6759 104.11 27.6465C104.152 27.6171 104.198 27.597 104.248 27.5876C104.297 27.5782 104.348 27.5796 104.397 27.5918C104.85 27.6653 105.265 27.8967 105.573 28.2475C105.687 28.381 105.754 28.5503 105.762 28.7279C105.789 29.1385 105.745 29.5507 105.633 29.9457C105.344 30.9891 105.061 32.0343 104.813 33.0886C104.598 33.9997 104.422 34.9255 104.252 35.8439C104.173 36.2756 104.146 36.7174 104.103 37.1555C104.059 37.5936 104.141 38.0344 104.256 38.4597C104.296 38.5689 104.356 38.6689 104.434 38.7536C104.481 38.8093 104.54 38.8525 104.607 38.8795C104.674 38.9065 104.746 38.9166 104.817 38.9088C104.989 38.895 105.152 38.8291 105.287 38.7196C105.561 38.5054 105.802 38.2492 106 37.96C106.348 37.4576 106.698 36.9562 107.01 36.4317C107.785 35.1294 108.477 33.7793 109.155 32.4218C109.272 32.1876 109.359 31.9378 109.452 31.6926C109.737 30.9241 110.093 30.1859 110.516 29.4883C110.892 28.863 111.344 28.2904 111.862 27.7846C112.193 27.4601 112.566 27.1846 112.97 26.9663C113.498 26.6697 114.089 26.5164 114.69 26.5209C115.381 26.5315 116.041 26.8179 116.532 27.3199C117.029 27.8144 117.37 28.451 117.512 29.1476C117.652 29.7814 117.662 30.4386 117.539 31.0763C117.528 31.1492 117.503 31.2189 117.464 31.2808C117.425 31.3427 117.374 31.3954 117.314 31.4354C117.239 31.4681 117.155 31.4733 117.077 31.4501C117.052 31.4368 117.032 31.4177 117.016 31.3944C117.001 31.371 116.991 31.3441 116.987 31.316C116.971 31.1415 116.974 30.9655 116.995 30.7916C117.066 30.3774 117.008 29.9705 116.962 29.5627C116.926 29.2693 116.811 28.9922 116.629 28.7637C116.552 28.6577 116.447 28.5759 116.327 28.5273C116.207 28.4787 116.077 28.4652 115.95 28.4882C115.749 28.5087 115.559 28.5888 115.403 28.7187C115.177 28.8966 114.966 29.0945 114.774 29.3102C114.461 29.6908 114.172 30.0918 113.909 30.5106C112.925 32.1314 112.209 33.9087 111.788 35.7705C111.709 36.1121 111.665 36.4639 111.617 36.812C111.54 37.3768 111.645 37.926 111.803 38.4652C111.871 38.6918 111.993 38.8971 112.159 39.0622C112.337 39.2552 112.573 39.3805 112.829 39.4176C113.284 39.4875 113.75 39.4155 114.165 39.2109C114.523 39.0309 114.853 38.798 115.145 38.5194C115.563 38.119 115.939 37.6748 116.267 37.194C116.972 36.161 117.605 35.0776 118.161 33.952C118.436 33.4009 118.745 32.8682 118.948 32.2923C119.151 31.7165 119.242 31.0984 119.38 30.5014C119.8 28.6755 120.225 26.8506 120.634 25.022C120.832 24.1366 120.998 23.2439 121.18 22.3585C121.254 21.9236 121.266 21.4799 121.215 21.0415C121.167 20.4638 121.345 20.3398 121.827 20.3563C122.053 20.3538 122.279 20.3847 122.498 20.4481C123.136 20.6658 123.46 21.17 123.517 21.8341C123.559 22.2729 123.55 22.7154 123.49 23.152C123.301 24.4268 123.07 25.6961 122.762 26.9479C122.637 27.4595 122.531 27.9757 122.425 28.4909C122.415 28.5387 122.442 28.6314 122.475 28.6452C122.55 28.6725 122.629 28.6798 122.707 28.6663C122.761 28.6497 122.811 28.6205 122.853 28.5809C122.97 28.4955 123.083 28.4064 123.199 28.321C123.83 27.8621 124.558 27.566 125.324 27.4577C125.707 27.3928 126.1 27.4687 126.434 27.6721C126.769 27.8756 127.023 28.1936 127.153 28.5708C127.297 28.9566 127.328 29.3775 127.242 29.7813C127.116 30.4151 126.902 31.0267 126.605 31.5971C126.115 32.5295 125.451 33.3534 124.652 34.0218C124.107 34.4975 123.479 34.8613 122.801 35.0936C122.638 35.1468 122.482 35.2212 122.325 35.2874C122.278 35.3206 122.242 35.3663 122.219 35.4197C122.196 35.473 122.188 35.5318 122.196 35.5895C122.205 35.6473 122.218 35.7044 122.235 35.7604C122.59 36.7216 123.062 37.633 123.637 38.4734C123.801 38.714 123.99 38.9348 124.201 39.132C124.772 39.6472 125.172 39.6362 125.654 39.0401C125.836 38.814 125.999 38.5725 126.141 38.3182C126.398 37.859 126.647 37.3998 126.874 36.9249C127.527 35.5552 128.173 34.1819 128.811 32.8048C128.995 32.4081 129.145 31.9948 129.303 31.587C129.33 31.5186 129.342 31.4447 129.337 31.3709C129.332 31.2972 129.311 31.2256 129.275 31.1617C129.192 31.0084 129.096 30.8596 129.007 30.7089C128.571 29.9826 128.276 29.1761 128.137 28.3339C128.009 27.522 127.991 26.6972 128.246 25.8936C128.422 25.3325 128.733 24.8268 129.151 24.4241C129.61 23.975 130.18 23.8032 130.784 23.7545C131.129 23.7319 131.471 23.8331 131.752 24.0411C132.143 24.3221 132.276 24.7382 132.204 25.2029C132.132 25.697 132.005 26.1811 131.827 26.6458C131.644 27.105 131.463 27.5697 131.285 28.0335C131.15 28.389 131.012 28.7426 130.892 29.1035C130.853 29.2105 130.839 29.3253 130.851 29.4388C130.863 29.5523 130.9 29.6614 130.96 29.7574C131.071 29.9283 131.174 30.1046 131.282 30.2782C131.832 31.17 132.36 32.0765 132.835 33.0142C133.28 33.8996 133.697 34.8006 133.972 35.7622C133.992 35.8474 134.031 35.9266 134.085 35.9936C134.144 36.0521 134.22 36.0876 134.301 36.0938C134.386 36.0848 134.467 36.0532 134.536 36.0019C134.925 35.7559 135.288 35.4693 135.62 35.1468C136.323 34.4584 136.983 33.7256 137.597 32.9527C138.159 32.2492 138.642 31.4819 139.035 30.6658C139.171 30.3756 139.333 30.0982 139.481 29.8144C140.728 27.4604 141.713 24.9981 142.321 22.3833C142.527 21.4998 142.682 20.608 142.806 19.706C142.922 18.8331 142.97 17.9519 142.949 17.071C142.886 13.5874 141.762 10.5189 139.491 7.92799C137.906 6.11958 135.941 4.91091 133.684 4.21015C132.757 3.92176 131.814 3.69123 130.841 3.6499C129.572 3.40284 128.283 3.47264 127.005 3.42764C125.84 3.38631 124.669 3.46345 123.504 3.54244C122.511 3.61041 121.519 3.72613 120.534 3.87308C119.408 4.03932 118.285 4.24045 117.168 4.46088C113.198 5.25533 109.313 6.39603 105.455 7.63409C102.821 8.47997 100.199 9.37269 97.5653 10.2195C96.8546 10.4412 96.2164 10.8596 95.7203 11.4291C94.6833 12.601 93.6267 13.7536 92.5736 14.9109C92.4346 15.0564 92.2883 15.1944 92.1353 15.3242C92.0721 15.3811 91.8565 15.2874 91.8538 15.2002C91.8387 15.0555 91.8429 14.9093 91.8663 14.7658C92.0997 13.7683 92.3447 12.7737 92.579 11.7772C92.6476 11.4924 92.71 11.205 92.7572 10.9166C92.7672 10.858 92.7601 10.7976 92.7368 10.7431C92.7135 10.6887 92.675 10.6426 92.6262 10.6107C92.4837 10.5164 92.3348 10.4326 92.1808 10.36C91.4289 10.011 90.6734 9.66751 89.9188 9.32126C89.6587 9.20186 89.3959 9.08981 89.1411 8.95939C88.9736 8.87398 88.6956 8.86755 88.7152 8.60579C88.7277 8.43313 88.946 8.36792 89.0983 8.29169C89.6338 8.01522 90.215 7.8451 90.8115 7.79022C91.6358 7.72094 92.4654 7.76013 93.2801 7.90686C94.1225 8.07497 94.9926 8.01806 95.8076 7.74154C96.8321 7.38335 97.8566 7.0371 98.8865 6.68718C102.372 5.49963 105.869 4.35342 109.409 3.34589C111.825 2.66349 114.256 2.04906 116.706 1.5283C117.791 1.29778 118.881 1.08011 119.981 0.925808C120.939 0.791716 121.89 0.60711 122.848 0.466588C123.523 0.369234 124.205 0.313209 124.883 0.238815C124.997 0.226876 125.111 0.225957 125.225 0.211262C127.154 -0.0321241 129.089 -0.0330425 131.027 0.0486986C132.934 0.135108 134.82 0.498409 136.629 1.12786C138.423 1.72648 140.086 2.68262 141.522 3.94196C143.759 5.92303 145.195 8.39547 145.776 11.3859C146.007 12.5067 146.109 13.6516 146.079 14.797C146.068 15.1194 146.036 15.4399 146.009 15.7623C145.993 15.9671 145.964 16.171 145.95 16.3758C145.645 20.709 144.525 24.7997 142.516 28.625C141.038 31.4391 139.139 33.9198 136.903 36.1287C136.306 36.7174 135.706 37.3015 135.107 37.8893C134.467 38.5168 133.785 39.0975 133.066 39.627C132.177 40.2695 131.16 40.6991 130.09 40.8843C129.616 40.9882 129.133 41.0405 128.649 41.0405C128.308 41.0303 127.969 40.9826 127.638 40.8981C127.025 40.7447 126.518 40.4692 126.284 39.8199C126.27 39.7939 126.255 39.7693 126.237 39.7464C126.222 39.7214 126.203 39.6998 126.179 39.6829C126.156 39.6659 126.13 39.6539 126.103 39.6476C126.075 39.6414 126.046 39.641 126.019 39.6464C125.991 39.6519 125.964 39.6631 125.941 39.6793C125.811 39.7941 125.679 39.9071 125.558 40.0302C125.296 40.2965 124.975 40.3755 124.621 40.3737C124.25 40.3774 123.883 40.2876 123.552 40.1119C123.174 39.9066 122.825 39.6479 122.515 39.3432C121.958 38.7932 121.481 38.1631 121.099 37.4723C120.985 37.2712 120.867 37.0719 120.743 36.879C120.723 36.8591 120.699 36.844 120.673 36.835C120.646 36.8259 120.619 36.8231 120.591 36.8267C120.565 36.8331 120.541 36.8454 120.52 36.8628C120.5 36.8801 120.483 36.902 120.472 36.9268C120.399 37.1179 120.347 37.317 120.317 37.5201C120.243 38.3963 120.139 39.2743 120.347 40.1487C120.355 40.2058 120.358 40.2636 120.355 40.3213C120.355 40.3911 120.266 40.4867 120.192 40.505C119.557 40.6207 119.077 40.3461 118.716 39.8391C118.562 39.627 118.446 39.3881 118.375 39.1338C118.261 38.7122 118.147 38.287 118.157 37.8379C118.17 37.251 118.141 36.6641 118.275 36.0846C118.345 35.8291 118.353 35.5599 118.3 35.3002C118.29 35.2589 118.224 35.2277 118.178 35.2029C118.165 35.2012 118.151 35.2028 118.139 35.2076C118.126 35.2124 118.115 35.2202 118.106 35.2304C117.991 35.3957 117.871 35.5592 117.767 35.7319C117.406 36.3298 117.063 36.9396 116.69 37.5302C116.332 38.0967 115.909 38.6175 115.432 39.0814C115.038 39.4662 114.598 39.7974 114.122 40.0669C113.512 40.4123 112.848 40.5675 112.17 40.6648C111.649 40.7392 111.145 40.6263 110.662 40.4389C110.179 40.2468 109.766 39.9055 109.479 39.4617C109.085 38.8811 108.837 38.2096 108.755 37.5063C108.679 36.8634 108.556 36.2278 108.603 35.5776C108.609 35.519 108.602 35.4597 108.584 35.404C108.566 35.352 108.529 35.309 108.481 35.2837C108.456 35.2773 108.429 35.2774 108.403 35.284C108.378 35.2905 108.354 35.3033 108.334 35.3214C108.203 35.5124 108.078 35.708 107.961 35.9092C107.55 36.6477 107.096 37.3605 106.602 38.0436C106.308 38.4395 105.996 38.8234 105.665 39.1871C105.444 39.4158 105.205 39.6268 104.952 39.818C104.546 40.1468 104.074 40.2267 103.578 40.1459C103.38 40.1159 103.19 40.0458 103.018 39.9395C102.846 39.8333 102.697 39.693 102.578 39.5269C102.299 39.1515 102.126 38.7029 102.081 38.2319C102.033 37.7065 102.018 37.1784 101.992 36.6512L102.05 36.6457ZM91.8209 29.7574C91.8209 29.4351 91.8333 29.1145 91.8209 28.7885C91.785 28.2012 91.6389 27.6266 91.3905 27.0967C91.2716 26.8291 91.1089 26.5846 90.9095 26.3739C90.5681 26.0104 90.1036 25.7972 89.6132 25.7788C89.4276 25.7714 89.2428 25.8079 89.073 25.8854C88.9032 25.9629 88.7527 26.0794 88.6333 26.226C88.3161 26.5833 88.1459 27.0214 88.015 27.4705C87.8047 28.1723 87.6797 28.8982 87.6426 29.6316C87.6034 30.54 87.5989 31.4529 87.6426 32.3612C87.6766 33.1261 87.8527 33.8772 88.1611 34.5737C88.343 35.0068 88.6199 35.3903 88.97 35.6942C89.21 35.904 89.4969 36.0488 89.8048 36.1158C89.8605 36.1306 89.9191 36.1288 89.9738 36.1105C90.0285 36.0923 90.0771 36.0585 90.1139 36.0129C90.2256 35.8809 90.3235 35.7371 90.4061 35.584C91.3059 33.7572 91.8333 31.8267 91.8209 29.7574ZM131.461 36.8083C131.454 36.6917 131.455 36.6035 131.443 36.5162C131.262 35.0864 130.815 33.7063 130.124 32.4521C130.06 32.3582 129.983 32.2738 129.896 32.2014C129.887 32.1901 129.875 32.181 129.861 32.1747C129.848 32.1685 129.833 32.1653 129.818 32.1653C129.804 32.1653 129.789 32.1685 129.776 32.1747C129.762 32.181 129.75 32.1901 129.741 32.2014C129.673 32.2531 129.612 32.315 129.562 32.3851C129.465 32.5633 129.384 32.7525 129.295 32.9362C128.484 34.6812 127.731 36.4593 126.843 38.1713C126.813 38.2212 126.793 38.2767 126.784 38.3348C126.777 38.4183 126.757 38.5368 126.801 38.5836C126.997 38.7958 126.972 39.0741 127.032 39.3257C127.131 39.739 127.383 39.9769 127.777 40.0862C128.23 40.2111 128.674 40.1781 129.13 40.1018C130.056 39.9549 130.696 39.4369 131.079 38.5754C131.336 38.0124 131.415 37.3998 131.461 36.8111V36.8083ZM56.1115 30.1928C56.1035 30.0468 56.1035 29.8998 56.0865 29.7556C56.0412 29.3758 55.8937 29.0166 55.6607 28.7187C55.4291 28.4147 55.0976 28.3458 54.744 28.4955C54.4548 28.6207 54.1969 28.8116 53.9894 29.0539C53.7038 29.3779 53.4356 29.7176 53.1858 30.0716C52.6201 30.8816 52.1755 31.7652 51.7729 32.6698C51.5947 33.0666 51.4548 33.4817 51.3025 33.8913C51.2782 33.9746 51.2621 34.0601 51.2544 34.1467C51.241 34.2339 51.3791 34.3855 51.4682 34.3818C51.552 34.3843 51.6358 34.3785 51.7185 34.3643C52.8243 34.0819 53.8543 33.5467 54.7324 32.7984C55.1069 32.4854 55.4274 32.1094 55.6803 31.6862C55.9538 31.2269 56.1355 30.742 56.1115 30.1928ZM101.734 23.2503C101.739 22.8958 101.734 22.5468 101.57 22.218C101.445 21.9608 101.146 21.8589 100.927 22.0279C100.811 22.1111 100.705 22.2103 100.614 22.3227C100.434 22.5496 100.271 22.791 100.128 23.0446C99.8691 23.5341 99.6223 24.031 99.3996 24.538C98.6343 26.283 98.0829 28.0987 97.5911 29.9384C97.5643 30.0217 97.5543 30.1099 97.5617 30.1974C97.5763 30.2769 97.6146 30.3498 97.6713 30.4059C97.6962 30.4307 97.7898 30.4169 97.8281 30.3866C97.9654 30.2833 98.0942 30.1684 98.213 30.0431C99.2045 28.9461 100.06 27.7263 100.759 26.4116C101.051 25.8732 101.286 25.3042 101.461 24.7143C101.596 24.2358 101.733 23.7564 101.734 23.2503ZM124.876 29.4204C124.876 29.2762 124.876 29.2468 124.876 29.2183C124.876 28.6719 124.52 28.4165 124.026 28.6112C123.114 28.9713 122.465 29.6518 121.925 30.461C121.85 30.5848 121.796 30.7208 121.765 30.8632C121.503 31.879 121.246 32.8961 120.993 33.9143C120.987 33.972 120.987 34.0302 120.993 34.0879C120.993 34.1963 121.114 34.3304 121.21 34.3083C121.376 34.2794 121.539 34.2317 121.695 34.166C122.077 33.9701 122.424 33.7072 122.719 33.389C123.614 32.4844 124.292 31.3776 124.701 30.156C124.771 29.9141 124.83 29.6685 124.876 29.4204ZM44.105 29.2624C44.097 29.1761 44.0934 29.1467 44.0907 29.1173C44.0524 28.6865 43.6907 28.4432 43.2987 28.5883C43.1648 28.6362 43.0339 28.6926 42.9068 28.7573C42.1522 29.1531 41.582 29.7565 41.1188 30.472C41.0345 30.6237 40.9744 30.7884 40.9406 30.9597C40.7241 31.7771 40.5103 32.5954 40.3072 33.4165C40.2602 33.6445 40.2263 33.8751 40.2056 34.1072C40.2106 34.165 40.2363 34.2189 40.2776 34.2584C40.3189 34.2979 40.3729 34.3203 40.4292 34.3212C40.5689 34.2979 40.7057 34.2591 40.8372 34.2054C41.2455 33.9977 41.6166 33.7201 41.9348 33.3844C42.6373 32.6567 43.2122 31.809 43.6337 30.8789C43.8068 30.5098 43.9411 30.1228 44.0346 29.7244C44.0711 29.5554 44.0872 29.38 44.105 29.2624ZM85.4296 34.8924C85.4109 35.3691 85.5187 35.9486 85.6203 36.5245C85.6821 36.9328 85.8312 37.3218 86.0568 37.6634C86.3562 38.0996 86.7473 38.3476 87.2827 38.3292C88.0765 38.2998 88.6858 37.9068 89.199 37.319C89.2218 37.2909 89.2386 37.2581 89.2483 37.2229C89.2579 37.1876 89.2601 37.1506 89.2548 37.1144C89.2495 37.0782 89.2368 37.0435 89.2175 37.0127C89.1982 36.982 89.1727 36.9558 89.1428 36.936C88.9388 36.8294 88.7321 36.7376 88.5246 36.6457C87.5778 36.2091 86.8202 35.4284 86.3962 34.4525C86.2212 34.0505 86.09 33.6298 86.0051 33.1979C85.984 33.0837 85.9499 32.9724 85.9036 32.8664C85.8858 32.826 85.8145 32.8048 85.7655 32.7865C85.7522 32.7801 85.7376 32.7771 85.7229 32.7777C85.7083 32.7783 85.6939 32.7824 85.6811 32.7897C85.6683 32.7971 85.6573 32.8074 85.649 32.8199C85.6408 32.8324 85.6355 32.8468 85.6336 32.8618C85.5102 33.5315 85.4419 34.2108 85.4296 34.8924ZM130.028 27.5964C130.028 27.7139 130.028 27.8315 130.028 27.9481C130.032 28.1548 130.089 28.3566 130.195 28.5322C130.21 28.5563 130.23 28.5766 130.254 28.5914C130.278 28.6063 130.305 28.6155 130.333 28.6182C130.36 28.621 130.388 28.6172 130.414 28.6073C130.441 28.5973 130.464 28.5814 130.484 28.5607C130.5 28.5378 130.53 28.5221 130.541 28.4973C130.935 27.6837 131.243 26.8294 131.462 25.9487C131.517 25.7292 131.488 25.483 131.472 25.2507C131.456 25.0183 131.108 24.8833 130.932 25.0293C130.796 25.1338 130.68 25.2637 130.59 25.4123C130.223 26.0779 130.029 26.8305 130.028 27.5964Z" fill="#FCBE13"/>
<path d="M8.98209 43.5876C7.08948 43.6388 5.22406 43.115 3.61807 42.0814C2.13831 41.1464 1.05143 39.8606 0.467007 38.1551C0.0322547 36.8904 -0.134341 35.5926 0.119562 34.2581C0.174797 33.9706 0.20865 33.6786 0.264776 33.392C0.638948 31.5983 1.57349 30.1591 2.91427 28.9835C3.64891 28.3283 4.49791 27.8233 5.41588 27.4956C5.98065 27.2905 6.57789 27.197 7.17627 27.2201C8.17941 27.2633 9.02575 27.8704 9.32241 28.9156C9.52019 29.6117 9.48901 30.3088 9.43288 31.0114C9.40728 31.1558 9.36325 31.296 9.30192 31.4284C9.28199 31.4828 9.24459 31.5285 9.19597 31.5579C9.14734 31.5873 9.09042 31.5986 9.03466 31.5901C8.93221 31.5634 8.90993 31.4752 8.9037 31.3889C8.89033 31.2135 8.88142 31.0372 8.88499 30.8608C8.8939 30.4429 8.7959 30.0434 8.68365 29.6494C8.61613 29.426 8.51545 29.2147 8.3852 29.023C8.22194 28.7608 7.98158 28.5594 7.6993 28.4482C7.41701 28.337 7.1076 28.3218 6.81635 28.4049C6.45498 28.4947 6.10914 28.6412 5.79094 28.8393C5.20722 29.2103 4.68505 29.6754 4.24436 30.217C3.38574 31.2449 2.78088 32.4716 2.4813 33.7925C2.23282 34.9107 2.17703 36.0654 2.31649 37.2036C2.43343 38.3206 2.84646 39.3828 3.51027 40.2739C4.34503 41.3953 5.4524 42.0731 6.7825 42.3532C7.39364 42.4818 8.01548 42.5966 8.64801 42.514C9.49614 42.4028 10.3345 42.243 11.1425 41.9418C12.1338 41.5681 13.0788 41.0749 13.9577 40.4723C15.7395 39.2572 17.2281 37.739 18.3524 35.8562C18.9246 34.907 19.335 33.8639 19.5658 32.7721C19.7227 32.0235 19.7462 31.2517 19.6353 30.4944C19.5695 30.0282 19.4143 29.5801 19.1788 29.1764C18.9432 28.7728 18.632 28.4215 18.2633 28.1432C17.7838 27.7713 17.2434 27.4913 16.6678 27.3166C16.3702 27.2247 16.0593 27.1714 15.7555 27.0952C15.5898 27.053 15.4262 27.0043 15.2646 26.9492C15.0962 26.8913 15.0401 26.6911 15.131 26.512C15.2021 26.3504 15.3325 26.2246 15.4936 26.1621C15.7885 26.0528 16.0816 25.9398 16.3702 25.8149C17.8585 25.191 19.1413 24.1389 20.0656 22.7841C20.8359 21.6479 21.3333 20.3393 21.5169 18.9661C21.6292 18.2089 21.6343 17.4388 21.532 16.6801C21.3289 15.2216 20.6215 14.1085 19.3048 13.4472C18.6344 13.1188 17.9112 12.9202 17.1711 12.8612C16.6318 12.807 16.0885 12.8098 15.5497 12.8695C13.2031 13.1588 10.9955 13.889 8.98031 15.1849C8.44118 15.5164 7.9436 15.9149 7.49877 16.3715C7.19175 16.6814 6.95558 17.0579 6.80744 17.4736C6.78208 17.5501 6.77209 17.6311 6.77807 17.7116C6.78404 17.7922 6.80587 17.8706 6.84221 17.9422C6.87855 18.0138 6.92865 18.077 6.98945 18.128C7.05025 18.1789 7.12048 18.2166 7.19587 18.2387C7.33119 18.2821 7.47333 18.2983 7.61458 18.2865C7.8678 18.2522 8.11683 18.1906 8.35758 18.1028C8.73074 17.9589 9.09518 17.7921 9.44892 17.6031C10.1786 17.2055 10.8957 16.783 11.6182 16.3715C11.9924 16.1584 12.3684 15.95 12.7416 15.736C13.1443 15.5054 13.5871 15.3943 14.0281 15.2767C14.0838 15.2643 14.1404 15.256 14.1973 15.2519C14.4268 15.2303 14.6564 15.291 14.8473 15.4239C15.0383 15.5568 15.1788 15.7537 15.245 15.9812C15.2733 16.095 15.2918 16.2112 15.3003 16.3284C15.3584 16.9721 15.3311 17.6209 15.2192 18.2571C15.0642 19.2113 14.9216 20.1683 14.7737 21.1235C14.6413 21.963 14.5065 22.8015 14.3693 23.6391C14.222 24.5355 14.0735 25.4316 13.9238 26.3274C13.7849 27.1659 13.6477 28.0035 13.5051 28.8412C13.367 29.6503 13.2236 30.4576 13.0837 31.2658C12.8993 32.334 12.7274 33.4049 12.5278 34.4703C12.4328 35.0512 12.2203 35.6051 11.9042 36.0959C11.7452 36.3387 11.5638 36.5651 11.3625 36.7719C11.013 37.1289 10.5509 37.345 10.0601 37.3808C9.72019 37.4249 9.3756 37.4112 9.04 37.3404C8.93223 37.3063 8.83076 37.2538 8.73977 37.1852C8.66981 37.1339 8.61796 37.0606 8.59208 36.9762C8.5662 36.8919 8.56769 36.8011 8.59634 36.7177C8.66494 36.557 8.74334 36.4008 8.82352 36.2456C9.02277 35.8564 9.18021 35.4458 9.29301 35.0213C9.53979 34.1167 9.73846 33.2001 9.90683 32.2798C10.085 31.3301 10.248 30.3759 10.387 29.4198C10.5385 28.3755 10.6543 27.3257 10.787 26.2787C10.8761 25.611 10.9732 24.9442 11.0543 24.2756C11.1371 23.6327 11.2049 22.9944 11.2868 22.3542C11.3608 21.7729 11.4311 21.1906 11.5274 20.6092C11.6485 19.8873 11.7456 19.1599 11.9336 18.4509C11.9456 18.3637 11.9456 18.2753 11.9336 18.1882C11.9336 18.1211 11.8107 18.0192 11.7554 18.0422C11.5452 18.1276 11.3296 18.2029 11.1273 18.3048C10.5417 18.6069 9.9355 18.8644 9.3135 19.0754C8.69268 19.2933 8.03824 19.3913 7.38295 19.3647C7.04302 19.3461 6.71174 19.2475 6.41456 19.0763C5.85063 18.7576 5.61276 18.1579 5.7562 17.5076C5.85916 17.0789 6.05127 16.6784 6.31924 16.3339C6.7767 15.7316 7.31344 15.198 7.91392 14.7486C9.00597 13.8976 10.1987 13.1933 11.4632 12.6528C12.9129 12.0422 14.4222 11.5942 15.9649 11.3164C16.7533 11.1732 17.5497 11.1502 18.34 11.0409C18.6188 11.0042 18.9083 11.0409 19.1925 11.0666C19.5043 11.0905 19.8162 11.1327 20.1271 11.1658C21.0655 11.2613 21.9751 11.5538 22.7997 12.0255C24.177 12.8116 24.994 14.0295 25.3833 15.5835C25.549 16.2457 25.5615 16.9171 25.5713 17.593C25.5839 19.0072 25.286 20.406 24.7 21.6847C23.6924 23.9238 22.079 25.4935 19.8099 26.3256C19.6237 26.3935 19.4411 26.4716 19.2602 26.5542C19.2357 26.5686 19.2151 26.5892 19.2005 26.6141C19.1858 26.6389 19.1776 26.6672 19.1765 26.6963C19.1755 26.7254 19.1816 26.7542 19.1944 26.7802C19.2072 26.8061 19.2262 26.8282 19.2496 26.8445C19.4447 26.9639 19.6389 27.0869 19.8411 27.1916C20.3255 27.4426 20.78 27.7508 21.1952 28.1101C21.9936 28.7859 22.5822 29.6883 22.8879 30.7056C22.9635 30.9883 23.0112 31.2782 23.0305 31.5708C23.2133 33.2783 22.8471 35.0004 21.9881 36.4725C21.2843 37.7032 20.3632 38.7364 19.2941 39.6328C17.7083 40.9627 15.9248 41.9234 14.0022 42.6242C12.9263 43.0116 11.8177 43.2948 10.6908 43.4701C10.126 43.5601 9.55048 43.5518 8.98209 43.5876Z" fill="#FCBE13"/>
<path d="M63.0032 16.1963C61.4442 16.2128 60.1435 15.7563 58.9292 15.0023C57.9038 14.3644 57.0165 13.5159 56.3225 12.5097C56.2895 12.4628 56.2655 12.4086 56.2334 12.359C56.1719 12.2525 56.2334 12.0835 56.3412 12.0835C56.596 12.0899 56.8508 12.0964 57.1056 12.1156C57.3604 12.1349 57.6134 12.191 57.8682 12.1937C59.4032 12.2112 60.9284 12.4233 62.4643 12.4151C63.1481 12.4213 63.8229 12.5763 64.4447 12.8697C65.2842 13.2503 65.9868 13.8928 66.4536 14.7066C66.4903 14.7693 66.5044 14.8433 66.4935 14.9157C66.4826 14.988 66.4473 15.0541 66.394 15.1024C65.8435 15.5189 65.2227 15.826 64.5632 16.008C64.0557 16.1531 63.5295 16.2166 63.0032 16.1963Z" fill="#FCBE13"/>
<path d="M87.5035 9.41729C87.965 9.38974 88.4238 9.52934 88.8728 9.72405C89.2132 9.87138 89.5353 10.0601 89.8323 10.2861C90.7998 11.0209 90.757 10.9759 89.777 11.6923C89.3004 12.0413 88.773 12.224 88.1734 12.1515C87.9468 12.135 87.7245 12.0791 87.516 11.9862C87.3627 11.9109 87.2024 11.8493 87.0527 11.7676C86.3812 11.3877 85.7416 10.9505 85.1408 10.4606C84.9849 10.3357 85.0126 10.141 85.1934 10.0363C85.9032 9.63963 86.6961 9.42717 87.5035 9.41729Z" fill="#FCBE13"/>
<path d="M67.0226 11.503C67.7353 11.47 68.3589 11.7345 68.9371 12.1459C69.4018 12.4875 69.8047 12.9106 70.1273 13.3959C70.3741 13.7541 70.6173 14.1169 70.7661 14.5348C70.7837 14.5906 70.7804 14.6511 70.7571 14.7046C70.7337 14.7581 70.6918 14.8007 70.6396 14.8241C70.5655 14.8661 70.488 14.9014 70.408 14.9297C70.2708 14.9665 70.1265 14.9784 69.9893 15.0161C69.1064 15.2567 68.3652 14.9582 67.7095 14.3676C67.5195 14.19 67.3468 13.9938 67.1937 13.7817C66.7865 13.2162 66.4217 12.6197 66.1023 11.9971C65.9954 11.7969 66.113 11.5838 66.3446 11.5581C66.5763 11.5324 66.7963 11.5214 67.0226 11.503Z" fill="#FCBE13"/>
<path d="M66.4962 18.8281C66.4365 18.8281 66.1799 18.8199 65.9251 18.7978C65.8402 18.793 65.7589 18.7609 65.6926 18.706C65.6408 18.6435 65.6096 18.5657 65.6035 18.4837C65.6054 18.4247 65.6254 18.3678 65.6605 18.3211C65.9952 17.7763 66.3705 17.2592 66.783 16.7745C66.8401 16.7084 66.9033 16.6487 66.9612 16.5853C67.5492 15.9497 68.2619 15.6568 69.1136 15.7734C69.5922 15.8397 70.0607 15.9684 70.5079 16.1564C70.5695 16.1925 70.6155 16.2514 70.6365 16.3211C70.6575 16.3909 70.652 16.4663 70.621 16.532C70.271 17.1378 69.8105 17.668 69.2651 18.0934C68.6742 18.5632 67.9506 18.8212 67.2044 18.8281C67.0334 18.8327 66.8623 18.8281 66.4962 18.8281Z" fill="#FCBE13"/>
<path d="M91.0693 12.9755C90.9695 14.4633 90.3227 15.6775 88.8946 16.3838C88.4579 16.5943 88.0007 16.7563 87.5307 16.8669C87.5031 16.8703 87.4751 16.8673 87.4488 16.8581C87.4224 16.8489 87.3984 16.8338 87.3785 16.8138C87.3586 16.7938 87.3433 16.7695 87.3337 16.7426C87.3241 16.7157 87.3205 16.6869 87.3231 16.6584C87.5013 15.74 87.748 14.8399 88.1445 13.9949C88.2069 13.8634 88.2783 13.7366 88.3583 13.6156C88.9329 12.7348 89.7392 12.3482 90.7637 12.4308C90.8332 12.4413 90.898 12.4732 90.9495 12.5224C91.001 12.5716 91.0369 12.6357 91.0523 12.7064C91.055 12.7661 91.0586 12.823 91.0693 12.9755Z" fill="#FCBE13"/>
<path d="M71.9075 19.2734C71.7685 19.2642 71.6269 19.256 71.4861 19.244C71.4508 19.2419 71.4166 19.2306 71.3867 19.2111C71.3568 19.1917 71.3322 19.1648 71.3151 19.1328C71.298 19.1009 71.2891 19.0651 71.2891 19.0286C71.2891 18.9922 71.298 18.9563 71.3151 18.9244C71.7293 18.1897 72.1516 17.4549 72.6924 16.812C72.8226 16.657 72.964 16.5123 73.1155 16.3794C73.936 15.6603 74.8519 15.585 75.831 15.968C75.8791 15.9988 75.9189 16.0418 75.9463 16.0929C75.9738 16.1441 75.988 16.2016 75.9878 16.26C75.9857 16.3473 75.9734 16.4339 75.9512 16.5181C75.3935 18.1043 74.2951 18.9915 72.6754 19.1963C72.4215 19.2303 72.1676 19.2477 71.9075 19.2734Z" fill="#FCBE13"/>
<path d="M72.49 11.8986C73.0971 11.9363 73.6862 12.1254 74.2068 12.4497C74.8769 12.8996 75.4434 13.4952 75.8665 14.1947C75.936 14.3049 75.9297 14.4592 75.8558 14.5171C75.425 14.8568 74.9106 15.0655 74.3707 15.1196C73.9694 15.1668 73.5651 15.0631 73.2321 14.8275C72.9494 14.6309 72.6813 14.4126 72.4303 14.1745C71.8878 13.6528 71.4317 13.0503 70.9853 12.4405C70.9526 12.3919 70.9366 12.3334 70.9399 12.2743C70.9399 12.2238 70.9711 12.1402 71.0049 12.1301C71.4844 11.9698 71.986 11.8916 72.49 11.8986Z" fill="#FCBE13"/>
<path d="M77.2603 11.688C77.8768 11.6521 78.4621 11.8524 79.0091 12.1922C79.7129 12.6394 80.3163 13.2358 80.7793 13.9418C80.8079 13.992 80.8168 14.0515 80.8044 14.1083C80.792 14.1651 80.7592 14.2149 80.7125 14.2476C80.2812 14.473 79.8224 14.6377 79.3486 14.7372C79.0136 14.8255 78.6587 14.7827 78.3525 14.6169C78.1726 14.5306 77.9982 14.4324 77.8305 14.323C77.0207 13.7214 76.316 13.0013 75.6211 12.2647C75.5983 12.2282 75.5904 12.1838 75.5993 12.1413C75.6081 12.0987 75.6329 12.0616 75.6683 12.0379C76.1538 11.7559 76.6812 11.6751 77.2603 11.688Z" fill="#FCBE13"/>
<path d="M76.9737 19.0121C76.8329 19.001 76.6913 18.9909 76.5505 18.979C76.5304 18.9726 76.5119 18.9619 76.496 18.9477C76.4801 18.9335 76.4672 18.9161 76.4581 18.8965C76.4491 18.8769 76.4441 18.8556 76.4434 18.8339C76.4428 18.8122 76.4465 18.7906 76.4543 18.7705C76.872 17.8705 77.3796 17.0179 77.9688 16.2264C78.1548 15.9651 78.3993 15.754 78.6815 15.6111C79.0169 15.4432 79.3923 15.3794 79.7622 15.4274C80.0989 15.4807 80.433 15.5523 80.768 15.6193C80.8509 15.6359 80.939 15.814 80.9159 15.9086C80.5782 17.2431 79.8397 18.2222 78.5577 18.709C78.0531 18.9125 77.5156 19.0154 76.9737 19.0121Z" fill="#FCBE13"/>
<path d="M85.3166 14.3447C85.3416 14.3447 85.5118 14.3585 85.681 14.376C85.7372 14.3868 85.7887 14.4155 85.8283 14.458C85.8679 14.5004 85.8937 14.5546 85.902 14.6129C85.9108 14.7884 85.8998 14.9644 85.869 15.1373C85.5126 16.5389 84.7002 17.5253 83.3647 18.0341C82.8817 18.208 82.3872 18.3459 81.885 18.4465C81.8579 18.4486 81.8308 18.4443 81.8057 18.4339C81.7805 18.4236 81.7579 18.4075 81.7397 18.3868C81.7148 18.3371 81.7069 18.2801 81.7175 18.2251C81.7225 18.1664 81.7389 18.1092 81.7656 18.0571C82.1611 17.3104 82.5496 16.5591 82.9594 15.8207C83.1176 15.5418 83.2988 15.2776 83.501 15.0308C83.8645 14.578 84.3278 14.3199 84.9149 14.3438C84.9995 14.3475 85.0859 14.3447 85.3166 14.3447Z" fill="#FCBE13"/>
<path d="M82.1945 10.9965C82.9072 10.9432 83.5718 11.1801 84.191 11.5732C84.6599 11.8537 85.079 12.2147 85.4302 12.6405C85.4632 12.6881 85.4792 12.7459 85.4757 12.8043C85.4721 12.8627 85.4491 12.918 85.4106 12.961C85.1437 13.2692 84.8071 13.5045 84.4306 13.6462C84.0223 13.7906 83.5774 13.7808 83.1754 13.6186C82.9085 13.5172 82.6487 13.3973 82.3976 13.2595C81.6016 12.803 80.8361 12.2922 80.1063 11.7303C80.0894 11.7171 80.0758 11.6999 80.0669 11.6801C80.0579 11.6603 80.0538 11.6385 80.0548 11.6167C80.0559 11.5949 80.0621 11.5737 80.0729 11.5549C80.0838 11.5361 80.0989 11.5203 80.1169 11.5089C80.7561 11.1593 81.471 10.983 82.1945 10.9965Z" fill="#FCBE13"/>
<circle cx="106" cy="25" r="1" fill="#FCBE13"/>
</g>
<rect width="10.2354" height="0.46099" rx="0.230495" transform="matrix(1 0 0 -1 28.8457 45.9602)" fill="#FCBE13"/>
<rect width="10.2354" height="0.46099" rx="0.230495" transform="matrix(1 0 0 -1 28.8457 47.3523)" fill="#FCBE13"/>
<rect width="10.2354" height="0.46099" rx="0.230495" transform="matrix(1 0 0 -1 28.8457 48.7446)" fill="#FCBE13"/>
<rect width="10.2354" height="0.46099" rx="0.230495" transform="matrix(1 0 0 -1 104.879 45.9609)" fill="#FCBE13"/>
<rect width="10.2354" height="0.46099" rx="0.230495" transform="matrix(1 0 0 -1 104.879 47.353)" fill="#FCBE13"/>
<rect width="10.2354" height="0.46099" rx="0.230495" transform="matrix(1 0 0 -1 104.879 48.7454)" fill="#FCBE13"/>
<path d="M51.1458 43.8256V45.9632H48.2908V43.8256H47.5806V48.7969H48.2908V46.5811H51.1458V48.7969H51.856V43.8256H51.1458ZM55.5882 48.8537C57.1009 48.8537 58.223 47.7742 58.223 46.3112C58.223 44.8482 57.1009 43.7688 55.5882 43.7688C54.0613 43.7688 52.9392 44.8553 52.9392 46.3112C52.9392 47.7671 54.0613 48.8537 55.5882 48.8537ZM55.5882 48.2216C54.4732 48.2216 53.6494 47.412 53.6494 46.3112C53.6494 45.2104 54.4732 44.4008 55.5882 44.4008C56.689 44.4008 57.5128 45.2104 57.5128 46.3112C57.5128 47.412 56.689 48.2216 55.5882 48.2216ZM64.5993 48.7969L64.5922 43.8256H64.0099L61.9645 47.3197L59.8908 43.8256H59.3084V48.7969H59.9902V45.1962L61.787 48.1932H62.1137L63.9104 45.1749L63.9176 48.7969H64.5993ZM66.8015 48.179V46.574H69.2942V45.9703H66.8015V44.4434H69.5996V43.8256H66.0913V48.7969H69.699V48.179H66.8015ZM78.0471 48.7969L78.04 43.8256H77.4577L75.4123 47.3197L73.3386 43.8256H72.7562V48.7969H73.438V45.1962L75.2348 48.1932H75.5615L77.3582 45.1749L77.3653 48.7969H78.0471ZM83.2533 48.7969H83.999L81.7406 43.8256H81.0376L78.7863 48.7969H79.5178L80.0646 47.554H82.7065L83.2533 48.7969ZM80.3132 46.9859L81.3855 44.55L82.4579 46.9859H80.3132ZM84.7406 48.7969H86.8357C88.4336 48.7969 89.5202 47.7884 89.5202 46.3112C89.5202 44.834 88.4336 43.8256 86.8357 43.8256H84.7406V48.7969ZM85.4508 48.179V44.4434H86.7931C88.0217 44.4434 88.81 45.1962 88.81 46.3112C88.81 47.4262 88.0217 48.179 86.7931 48.179H85.4508ZM91.3182 48.179V46.574H93.8109V45.9703H91.3182V44.4434H94.1163V43.8256H90.608V48.7969H94.2157V48.179H91.3182Z" fill="#FCBE13"/>
<defs>
<clipPath id="clip0_600_926">
<rect width="146.084" height="43.591" fill="white"/>
</clipPath>
</defs>
</svg>
