<svg width="109" height="109" viewBox="0 0 109 109" fill="none" xmlns="http://www.w3.org/2000/svg">
<path d="M76.2842 53.4922C78.5129 54.8646 80.4964 56.3254 81.5801 58.117L78.5613 58.058L76.2842 53.4922Z" fill="#F4679A"/>
<path d="M57.5033 38.1998C60.3886 39.0384 62.9282 40.8049 64.7408 43.234C59.5566 42.3577 54.2329 43.0586 49.44 45.2483C51.1656 41.881 53.5454 38.9039 56.4357 36.4967L56.6356 36.3329C56.6356 36.3329 60.6769 33.0183 64.6666 31.04C67.2469 29.7692 79.5643 25.472 90.7077 31.9538C104.151 39.7818 104.789 56.8756 104.934 60.7994C105.146 67.4802 103.753 74.1128 100.874 80.1237C96.9128 87.3787 91.4153 93.6504 84.7781 98.4863C78.1409 103.322 70.5294 106.602 62.4928 108.088C52.1267 110.116 42.0541 108.648 32.175 104.813C43.2603 104.675 52.217 101.865 57.6548 94.6595C29.2916 104.761 15.4647 94.5449 5.72755 78.6105C16.0808 85.3642 26.4114 88.3677 36.6904 83.851C31.3527 83.825 26.084 82.6237 21.2477 80.3301C18.4206 79.4337 15.7474 78.0979 13.3231 76.3702C5.64047 70.8775 2.9151 63.0594 1.86365 59.8954C0.0577066 54.3883 -0.445048 48.5265 0.396139 42.7853C1.12827 37.8389 2.82807 33.0914 5.39535 28.8227C4.42776 43.4633 5.27924 57.1409 19.2641 63.8684C16.3348 61.5854 14.1364 58.4731 12.9458 54.9235C12.1779 52.5634 11.8829 50.0711 12.0782 47.5934C10.7389 41.8827 10.6771 35.9397 11.8975 30.2016C12.4846 27.4667 14.4778 18.6954 21.9282 11.3817C26.0953 7.30392 30.4817 5.1586 32.8942 4.01552C37.154 1.98829 41.6939 0.634154 46.3566 0L33.1329 8.84332C21.9314 18.9018 17.0322 31.1154 22.4894 46.8368C26.85 61.032 37.7548 71.7291 52.1622 80.5724C59.1089 83.8581 66.5019 86.0663 74.0942 87.123C64.9021 82.8062 61.0317 74.2118 63.2443 68.6765C64.8569 64.6938 69.3175 63.0496 70.8689 62.5583C76.997 61.9589 82.4445 64.6872 86.9954 71.7291C89.0983 68.8698 88.7951 65.3423 84.0926 60.5931C84.2837 57.802 83.8822 55.0018 82.9154 52.3819C80.4351 45.7429 75.0069 42.6248 72.8363 41.3802C66.3825 37.6725 60.0835 37.9378 57.5033 38.1998Z" fill="#F4679A"/>
<path d="M46.3763 0.0293579C30.4531 18.4529 26.9923 38.0753 36.036 58.3003C41.0417 69.4952 49.2017 75.2139 52.6979 77.7523C59.0964 82.3789 66.3895 85.5729 74.0946 87.1229C65.6443 86.0486 50.5305 82.7144 38.0067 70.9331C34.8493 67.9166 32.0255 64.5592 29.5854 60.9205C21.8447 50.0367 18.6033 36.906 20.8771 27.8399C24.3798 14.4603 33.9589 5.21089 46.3763 0.0293579Z" fill="#FABCD3"/>
<path d="M100.894 80.0815C102.299 76.8541 103.254 73.4433 103.732 69.9477C105.161 59.3685 103.045 40.9056 88.8536 33.117C77.0845 26.6548 64.6638 31.7479 63.7962 32.1344C55.0879 35.8846 50.7918 42.838 49.4404 45.2585C50.0528 40.7909 51.6816 36.5295 54.1977 32.8124C60.0033 24.2966 68.5955 21.7582 71.2918 21.09C72.8142 20.7167 83.1416 18.3519 93.2787 24.3653C106.18 32.0066 108.18 46.9322 108.654 50.4761C110.737 65.942 102.822 77.4351 100.894 80.0815Z" fill="#FABCD3"/>
<path d="M5.39512 28.8226C5.36139 30.101 5.41311 31.3802 5.54993 32.6515C5.8052 35.0282 6.36355 37.3612 7.21097 39.5918C8.35138 42.5346 10.0007 45.2467 12.0812 47.5999C13.1093 53.7777 15.745 59.564 19.7154 64.3597C15.4889 62.4229 11.8189 59.4231 9.05261 55.6441C0.895829 44.3115 4.8436 30.624 5.39512 28.8226Z" fill="#FABCD3"/>
<path d="M21.2448 80.33C22.9703 80.9556 24.8539 81.5517 26.8826 82.0823C30.0995 82.9242 33.3753 83.5144 36.6811 83.8477C33.0877 85.4237 29.2164 86.2416 25.3022 86.2517C15.0361 86.2517 7.9114 80.5265 5.7182 78.6072C10.4918 81.1585 16.0413 81.7743 21.2448 80.33V80.33Z" fill="#FABCD3"/>
<path d="M57.6448 94.6563C51.6651 102.596 42.4633 104.764 32.1649 104.81C37.5737 104.106 41.0119 101.662 43.776 98.2297C45.9272 97.8661 48.2333 97.3912 50.6684 96.7656C53.1971 96.1302 55.5225 95.3998 57.6448 94.6563Z" fill="#FABCD3"/>
<path d="M74.0941 87.1233C66.705 85.6024 59.688 82.6029 53.4522 78.2997C53.3683 77.1664 52.9587 69.7544 58.4449 64.4386C60.6504 62.3356 63.3868 60.8946 66.3501 60.2757C65.189 58.6773 63.1248 57.5277 60.3543 56.7318C72.3073 56.2176 82.8056 58.2548 86.9534 71.7196C86.7921 71.9096 80.0222 62.8959 72.762 62.9778C69.7077 63.0106 66.0695 64.717 64.4762 68.012C62.4959 72.0995 65.3697 76.8553 67.0855 79.7408C68.8568 82.6966 71.2502 85.2177 74.0941 87.1233Z" fill="#FABCD3"/>
</svg>
