<?xml version="1.0" encoding="iso-8859-1"?>
<!-- Uploaded to: SVG Repo, www.svgrepo.com, Generator: SVG Repo Mixer Tools -->
<svg height="800px" width="800px" version="1.1" id="Layer_1" xmlns="http://www.w3.org/2000/svg" xmlns:xlink="http://www.w3.org/1999/xlink" 
	 viewBox="0 0 511.995 511.995" xml:space="preserve">
<path style="fill:#4D4D4D;" d="M354.926,280.71c6.988,10.213,11.079,22.564,11.079,35.872s-4.091,25.658-11.079,35.872h-0.013
	c-11.446,16.743-30.693,27.73-52.509,27.73c-21.817,0-41.064-10.987-52.509-27.73c-6.988-10.213-11.079-22.564-11.079-35.872
	c0-13.308,4.091-25.658,11.079-35.872c11.446-16.743,30.693-27.717,52.509-27.717c21.817,0,41.064,10.974,52.509,27.717H354.926z"/>
<g>
	<path style="fill:#F7B239;" d="M378.303,424.183c19.601,0.236,35.413,16.205,35.413,35.858c0,9.912-4.012,18.867-10.502,25.357
		c-6.503,6.49-15.471,10.502-25.37,10.502H226.963c-19.798,0-35.858-16.048-35.858-35.858c0-9.912,4.012-18.88,10.502-25.37
		c6.385-6.385,15.182-10.371,24.898-10.489H378.303z"/>
	<path style="fill:#F7B239;" d="M461.426,388.312c0,9.912-4.012,18.867-10.502,25.357c-6.503,6.49-15.471,10.515-25.37,10.515
		h-47.252c-0.157-0.013-0.302-0.013-0.459-0.013H226.963c-0.157,0-0.302,0-0.459,0.013h-47.239
		c-19.811,0-35.872-16.061-35.872-35.872c0-9.912,4.012-18.867,10.515-25.357c6.49-6.49,15.458-10.502,25.357-10.502h70.629
		c11.446,16.743,30.693,27.73,52.509,27.73c21.817,0,41.064-10.987,52.509-27.73h0.013h70.629
		C445.365,352.453,461.426,368.514,461.426,388.312z"/>
	<path style="fill:#F7B239;" d="M179.265,280.71h70.629c-6.988,10.213-11.079,22.564-11.079,35.872s4.091,25.658,11.079,35.872
		h-70.629h-30.785c-19.811,0-35.872-16.074-35.872-35.872c0-9.912,4.025-18.867,10.502-25.357
		c6.503-6.49,15.458-10.515,25.37-10.515H179.265z"/>
	<path style="fill:#F7B239;" d="M492.198,316.582c0,9.912-4.012,18.867-10.502,25.357c-6.49,6.49-15.458,10.515-25.37,10.515
		h-30.771h-70.629c6.988-10.213,11.079-22.564,11.079-35.872c0-13.308-4.091-25.658-11.079-35.872h70.629h30.771
		C476.15,280.71,492.198,296.771,492.198,316.582z"/>
	<path style="fill:#F7B239;" d="M461.426,244.852c0,9.912-4.012,18.88-10.502,25.357c-6.503,6.503-15.471,10.502-25.37,10.502
		h-70.629h-0.013c-11.446-16.743-30.693-27.717-52.509-27.717c-21.817,0-41.064,10.974-52.509,27.717h-70.629
		c-19.811,0-35.872-16.035-35.872-35.858c0-9.912,4.012-18.867,10.515-25.343c6.49-6.503,15.458-10.502,25.357-10.502h246.289
		C445.365,209.006,461.426,225.041,461.426,244.852z"/>
	<path style="fill:#F7B239;" d="M377.844,137.263c19.811,0,35.872,16.061,35.872,35.858c0,9.912-4.012,18.88-10.502,25.37
		c-6.503,6.49-15.471,10.502-25.37,10.502H226.963c-19.798,0-35.858-16.061-35.858-35.872c0-9.899,4.012-18.867,10.502-25.357
		c6.49-6.49,15.458-10.502,25.357-10.502H377.844z"/>
</g>
<g>
	<path style="fill:#E09B2D;" d="M234.371,173.122c0-9.899,4.012-18.867,10.502-25.357c6.49-6.49,15.458-10.502,25.357-10.502
		h-43.266c-9.899,0-18.867,4.012-25.357,10.502c-6.49,6.49-10.502,15.458-10.502,25.357c0,19.811,16.061,35.872,35.858,35.872
		h43.266C250.432,208.992,234.371,192.931,234.371,173.122z"/>
	<path style="fill:#E09B2D;" d="M186.66,244.852c0-9.899,4.012-18.867,10.502-25.357c6.49-6.49,15.458-10.502,25.357-10.502h-43.266
		c-9.899,0-18.867,4.012-25.357,10.502c-6.49,6.49-10.502,15.458-10.502,25.357c0,19.811,16.061,35.872,35.858,35.872h43.266
		C202.721,280.722,186.66,264.661,186.66,244.852z"/>
	<path style="fill:#E09B2D;" d="M155.875,316.582c0-9.899,4.012-18.867,10.502-25.357c6.49-6.49,15.458-10.502,25.357-10.502
		h-43.266c-9.899,0-18.867,4.012-25.357,10.502c-6.49,6.49-10.502,15.458-10.502,25.357c0,19.811,16.061,35.872,35.858,35.872
		h43.266C171.936,352.452,155.875,336.391,155.875,316.582z"/>
	<path style="fill:#E09B2D;" d="M186.66,388.312c0-9.899,4.012-18.867,10.502-25.357c6.49-6.49,15.458-10.502,25.357-10.502h-43.266
		c-9.899,0-18.867,4.012-25.357,10.502c-6.49,6.49-10.502,15.458-10.502,25.357c0,19.811,16.061,35.872,35.858,35.872h43.266
		C202.721,424.182,186.66,408.121,186.66,388.312z"/>
	<path style="fill:#E09B2D;" d="M234.371,460.042c0-9.899,4.012-18.867,10.502-25.357c6.49-6.49,15.458-10.502,25.357-10.502
		h-43.266c-9.899,0-18.867,4.012-25.357,10.502c-6.49,6.49-10.502,15.458-10.502,25.357c0,19.811,16.061,35.872,35.858,35.872
		h43.266C250.432,495.912,234.371,479.851,234.371,460.042z"/>
</g>
<g>
	<circle style="fill:#FFFFFF;" cx="381.869" cy="171.788" r="9.833"/>
	<circle style="fill:#FFFFFF;" cx="427.102" cy="244.226" r="9.833"/>
	<circle style="fill:#FFFFFF;" cx="460.535" cy="316.664" r="9.833"/>
	<circle style="fill:#FFFFFF;" cx="427.102" cy="389.102" r="9.833"/>
</g>
<g>
	<circle style="fill:#E09B2D;" cx="502.162" cy="495.931" r="9.833"/>
	<circle style="fill:#E09B2D;" cx="492.329" cy="147.848" r="9.833"/>
	<circle style="fill:#E09B2D;" cx="81.326" cy="187.181" r="9.833"/>
	<circle style="fill:#E09B2D;" cx="69.527" cy="344.499" r="9.833"/>
</g>
<path style="fill:#333333;" d="M502.031,316.581c0-23.002-17.086-42.081-39.232-45.233c5.491-7.676,8.463-16.852,8.463-26.499
	c0-25.189-20.502-45.683-45.7-45.683H415.37c5.147-7.395,8.176-16.366,8.176-26.038c0-25.198-20.5-45.697-45.697-45.697h-65.605
	v-31.27c38.996,3.075,75.094,4.154,106.437,4.154c8.408,0,16.48-0.077,24.173-0.214c5.431-0.097,9.753-4.576,9.658-10.006
	c-0.096-5.431-4.607-9.761-10.006-9.658c-16.895,0.299-33.297,0.273-49.225-0.017l15.007-18.603
	c3.41-4.227,2.747-10.418-1.48-13.827c-4.231-3.411-10.417-2.748-13.828,1.479l-24.42,30.275
	c-19.588-0.72-38.364-1.846-56.313-3.292v-7.265c0-5.431-4.401-9.833-9.833-9.833c-5.432,0-9.833,4.403-9.833,9.833v5.525
	c-70.662-6.819-127.292-18.424-167.844-28.994c-5.132-1.337-10.073-2.679-14.861-4.017l46.22-13.734
	c5.206-1.547,8.172-7.021,6.626-12.227c-1.547-5.205-7.022-8.169-12.226-6.625L75.703,31.338
	C35.723,18.201,14.619,7.47,14.339,7.326C9.512,4.84,3.586,6.732,1.097,11.558S0.5,22.315,5.326,24.805
	c1.605,0.829,40.15,20.508,113.633,39.731c10.335,2.705,20.665,5.214,30.965,7.545l22.599,31.357
	c1.922,2.667,4.931,4.084,7.985,4.084c1.993,0,4.003-0.603,5.741-1.857c4.405-3.175,5.403-9.321,2.228-13.727l-9.97-13.833
	c39.266,7.707,77.744,12.925,114.071,16.352v32.971h-65.606c-25.198,0-45.697,20.5-45.697,45.697c0,9.672,3.029,18.645,8.176,26.038
	h-10.182c-12.209,0-23.684,4.753-32.305,13.374c-8.637,8.614-13.394,20.087-13.394,32.308c0,9.869,3.154,19.008,8.493,26.485
	c-9.756,1.366-18.78,5.834-25.906,12.941c-8.624,8.648-13.374,20.121-13.374,32.305c0,23.011,17.097,42.094,39.253,45.237
	c-5.492,7.684-8.466,16.858-8.466,26.495c0,25.198,20.5,45.698,45.698,45.698h10.175c-5.142,7.392-8.168,16.361-8.168,26.029
	c0,25.198,20.5,45.697,45.697,45.697h150.877c25.198,0,45.697-20.5,45.697-45.697c0-9.668-3.026-18.636-8.168-26.029h10.185
	c12.187,0,23.66-4.75,32.313-13.384c8.632-8.631,13.386-20.107,13.386-32.315c0-9.869-3.155-19.008-8.495-26.487
	c9.766-1.367,18.785-5.836,25.88-12.931C497.278,340.264,502.031,328.788,502.031,316.581z M226.97,147.096h150.877
	c14.354,0,26.03,11.678,26.03,26.03c0,14.353-11.677,26.031-26.03,26.031H226.97c-14.354,0-26.031-11.677-26.031-26.031
	S212.616,147.096,226.97,147.096z M160.858,226.457c4.915-4.917,11.452-7.624,18.408-7.624H425.56
	c14.355,0,26.033,11.67,26.033,26.016c0,6.967-2.705,13.502-7.625,18.409c-4.915,4.917-11.452,7.624-18.408,7.624h-65.744
	c-13.465-16.879-34.187-27.724-57.408-27.724c-23.221,0-43.943,10.845-57.408,27.724h-65.736c-14.354,0-26.032-11.678-26.032-26.033
	C153.234,237.891,155.937,231.363,160.858,226.457z M302.409,370.345c-29.644,0-53.761-24.118-53.761-53.76
	s24.118-53.76,53.761-53.76c29.643,0,53.76,24.118,53.76,53.76C356.169,346.227,332.051,370.345,302.409,370.345z M122.445,316.581
	c0-6.941,2.71-13.482,7.615-18.399c4.936-4.922,11.477-7.633,18.418-7.633h85.288c-3.082,8.097-4.784,16.87-4.784,26.036
	c0,9.163,1.702,17.933,4.783,26.031h-85.285C134.123,342.614,122.445,330.936,122.445,316.581z M403.878,460.041
	c0,14.354-11.677,26.031-26.03,26.031H226.97c-14.354,0-26.031-11.678-26.031-26.031c0-14.341,11.657-26.007,25.994-26.029h150.953
	C392.221,434.032,403.878,445.7,403.878,460.041z M443.978,406.712c-4.935,4.922-11.475,7.633-18.417,7.633H179.265
	c-14.354,0-26.032-11.678-26.032-26.032c0-6.955,2.707-13.492,7.616-18.4c4.935-4.922,11.475-7.633,18.417-7.633h65.73
	c13.465,16.882,34.189,27.731,57.413,27.731s43.947-10.848,57.412-27.731h65.741c14.355,0,26.033,11.678,26.033,26.032
	C451.594,395.267,448.887,401.804,443.978,406.712z M474.739,334.99c-4.915,4.917-11.452,7.624-18.408,7.624h-85.279
	c3.08-8.096,4.783-16.866,4.783-26.031c0-9.166-1.703-17.938-4.784-26.036h85.282c14.354,0,26.032,11.678,26.032,26.032
	C482.364,323.535,479.656,330.073,474.739,334.99z"/>
</svg>