<?xml version="1.0" standalone="no"?>
<!DOCTYPE svg PUBLIC "-//W3C//DTD SVG 20010904//EN"
 "http://www.w3.org/TR/2001/REC-SVG-20010904/DTD/svg10.dtd">
<svg version="1.0" xmlns="http://www.w3.org/2000/svg"
 width="137.000000pt" height="115.000000pt" viewBox="0 0 137.000000 115.000000"
 preserveAspectRatio="xMidYMid meet">

<g transform="translate(0.000000,115.000000) scale(0.100000,-0.100000)"
fill="#000000" stroke="none">
<path d="M487 1041 c-113 -37 -213 -145 -238 -256 -24 -109 20 -174 182 -265
164 -92 199 -130 199 -215 0 -43 -4 -52 -43 -90 -48 -49 -94 -65 -181 -65 -74
0 -132 26 -165 75 -34 51 -27 138 17 200 31 44 31 45 9 45 -35 -1 -101 -35
-125 -64 -27 -35 -37 -101 -22 -155 26 -99 128 -161 264 -161 222 0 371 147
321 316 -19 66 -69 112 -200 187 -55 31 -107 63 -115 69 -34 28 -60 72 -60
102 0 76 91 197 174 231 40 17 124 23 144 11 20 -12 13 -72 -18 -158 -17 -46
-31 -97 -32 -115 -1 -34 16 -63 38 -63 29 0 104 186 104 258 0 47 -26 97 -58
112 -47 21 -132 22 -195 1z"/>
<path d="M982 594 c-95 -47 -180 -163 -204 -277 -10 -47 -9 -58 8 -92 31 -63
63 -80 152 -80 91 1 137 21 214 93 59 55 105 129 91 143 -7 7 -17 -1 -32 -24
-29 -47 -109 -121 -159 -146 -44 -22 -120 -28 -152 -11 -21 11 -45 73 -36 95
3 8 24 19 48 25 158 40 258 129 258 228 0 74 -88 96 -188 46z m128 -44 c0 -65
-103 -162 -202 -191 -15 -4 -28 -6 -28 -3 0 3 11 27 25 54 47 92 122 160 178
160 21 0 27 -5 27 -20z"/>
</g>
</svg>
