<svg width="494" height="730" viewBox="0 0 494 730" fill="none" xmlns="http://www.w3.org/2000/svg">
<g clip-path="url(#clip0_16_21)">
<path d="M488.025 711.075C486.553 713.285 485.081 715.495 483.088 717.96C482.289 718.412 482.101 718.674 482.003 719C482.003 719 482 719 481.781 719.107C481.287 719.413 481.101 719.674 481.002 719.997C481.002 719.997 481 720 480.782 720.104C480.292 720.401 480.103 720.654 479.996 720.968C478.571 721.96 477.146 722.952 475.159 724.074C474.31 724.392 474.113 724.649 474.006 724.974C468.447 726.326 462.915 728.702 457.326 728.842C438.207 729.321 419.07 729.015 399.476 728.624C401.303 720.166 408.116 720.445 415.216 720.516C413.366 718.974 412.273 718.063 411.181 717.153C414.919 715.999 418.215 716.19 421.48 715.953C425.919 715.631 431.754 716.555 434.446 714.125C439.102 709.922 444.761 710.078 449.456 709.482C458.048 708.393 463.287 703.072 466.388 697.088C471.135 687.931 473.993 677.698 474.052 666.945C474.245 631.654 474.923 596.364 474.927 561.074C474.931 526.703 474.14 492.332 474.071 457.961C474.027 436.171 474.987 414.379 474.932 392.59C474.799 339.966 474.389 287.342 473.972 234.72C473.842 218.261 473.105 201.806 473.072 185.348C473.044 171.807 474.003 158.26 473.855 144.723C473.74 134.22 472.552 123.731 471.966 113.23C471.906 112.158 472.703 111.038 473.103 109.94C483.513 115.191 490.014 123.652 492.854 134.811C493.781 138.453 493.921 142.371 493.922 146.163C493.972 327.607 494 509.052 493.815 690.497C493.809 696.115 491.525 701.731 489.92 707.795C489.371 708.526 489.203 708.811 489.036 709.096C489.036 709.096 489.03 709.55 488.786 709.893C488.37 710.515 488.197 710.795 488.025 711.075Z" fill="#C2DEFF"/>
<path d="M472.909 109.639C472.703 111.038 471.906 112.158 471.966 113.23C472.552 123.732 473.74 134.22 473.855 144.723C474.003 158.26 473.044 171.807 473.072 185.348C473.105 201.806 473.842 218.261 473.972 234.72C474.389 287.343 474.799 339.966 474.932 392.59C474.987 414.379 474.027 436.171 474.071 457.961C474.14 492.332 474.931 526.703 474.927 561.074C474.923 596.364 474.245 631.654 474.052 666.945C473.993 677.698 471.135 687.931 466.388 697.088C463.287 703.072 458.048 708.393 449.456 709.482C444.761 710.078 439.102 709.922 434.446 714.125C431.754 716.555 425.919 715.631 421.48 715.953C418.215 716.19 414.919 716 411.181 717.153C412.273 718.063 413.366 718.974 415.216 720.516C408.116 720.446 401.303 720.166 399.007 728.609C283.217 728.992 167.431 728.964 51.6458 729.083C41.2918 729.094 23.4431 717.905 21.3906 707.463C27.1788 707.777 32.5786 709.027 37.9842 709.053C81.5425 709.262 125.102 709.253 168.661 709.277C175.473 709.281 182.285 709.113 189.552 709.088C198.669 709.182 207.332 709.25 215.994 709.237C253.972 709.181 291.951 709.103 330.4 709.108C366.843 709.173 402.815 709.289 438.785 709.088C452.793 709.009 465.234 698.639 468.913 684.584C469.136 683.52 469.238 682.799 469.521 681.862C469.742 681.092 469.781 680.539 469.905 679.525C470.035 676.9 470.119 674.736 470.119 672.572C470.127 492.043 470.131 311.515 470.115 130.987C470.115 127.665 469.872 124.344 469.756 120.765C469.54 120.26 469.311 120.012 469.107 119.568C469.133 119.37 468.992 118.998 469.034 118.681C468.73 117.874 468.384 117.383 468.012 116.654C467.986 116.414 467.848 115.953 467.909 115.642C467.671 114.818 467.372 114.305 467.069 113.582C467.066 113.372 466.917 112.979 466.905 112.708C466.617 112.214 466.34 111.991 466.064 111.563C466.065 111.358 465.916 110.976 465.899 110.714C465.6 110.255 465.319 110.057 465.034 109.542C464.926 108.608 464.82 107.989 464.715 107.371C467.382 108.026 470.048 108.682 472.909 109.639Z" fill="#C9DDFB"/>
<path d="M189.097 709.025C182.285 709.113 175.473 709.281 168.661 709.277C125.102 709.253 81.5425 709.262 37.9842 709.053C32.5786 709.027 27.1788 707.777 21.3814 707.096C15.7812 702.261 10.5759 697.424 5.41973 692.124C5.2253 691.469 4.98183 691.275 4.73837 691.081C4.39037 691.012 4.16851 690.806 4.45324 690.148C4.93295 687.889 5.79427 685.531 5.0006 684.075C1.39382 677.46 2.00906 670.388 2.00304 663.346C1.99725 656.564 2.0068 649.782 2.40438 643.092C3.19946 646.518 3.61758 649.85 3.9927 653.187C4.18878 654.931 4.30929 656.684 4.46392 658.433C6.04076 652.086 6.82586 645.866 6.93545 639.634C7.1535 627.232 6.99999 614.823 6.99999 602.416C6.99999 507.478 6.9891 412.539 7.04177 317.601C7.04379 313.98 7.98321 310.354 7.93002 306.739C7.76272 295.365 7.15734 283.997 7.04147 272.624C6.8778 256.555 6.87212 240.482 7.04061 224.413C7.17465 211.629 7.66662 198.848 8.01559 186.066C8.03811 185.241 8.12621 184.404 8.30291 183.599C11.0095 171.266 6.89892 159.567 5.4183 147.274C4.09023 149.504 3.04876 151.252 2.00555 152.532C2.00295 147.929 2.11608 143.791 1.97164 139.662C1.80093 134.782 1.40768 129.911 1.11092 125.036C0.691431 107.741 14.8126 94.5863 29.878 92.5305C30.3426 92.4671 30.7778 92.1874 31.9316 92.3268C50.5282 92.8411 68.4198 93.0372 86.3115 93.2333C86.3184 93.8222 86.3253 94.4111 86.3323 95C84.7755 95 83.2188 95 81.662 95C72.5062 95 63.302 94.4305 54.2115 95.2014C48.211 95.7103 40.509 90.9693 36.4365 99.6145C30.032 98.9984 28.2215 105.499 23.715 107.867C21.1085 109.237 18.951 111.559 16.2661 112.655C13.5425 113.767 13.4094 115.107 13.2142 117.83C12.9007 122.206 12.253 127.358 9.71349 130.58C6.20941 135.025 5.69979 136.017 11.4255 138.624C13.1468 136.068 14.3215 132.167 16.6902 131.205C24.2338 128.14 28.1135 120.941 34.6213 116.799C40.4522 113.089 48.9313 111.596 52.9119 114.109C50.7761 114.956 48.3875 115.905 45.6132 116.918C38.7156 118.04 33.7866 121.65 30.188 126.945C27.8353 130.407 26.067 134.267 24.0268 138.419C24.0045 144.593 23.9923 150.295 23.5852 156.09C22.7935 157.851 22.1944 159.497 22.0337 161.186C21.1601 170.365 20.6963 179.592 19.5284 188.731C17.2136 206.846 14.5307 224.913 11.7144 243.26C10.9526 247.278 10.0643 251.036 10.0606 254.796C9.98104 336.607 9.99993 418.419 10.0006 500.231C10.0006 501.731 9.62197 503.378 10.1231 504.688C10.614 505.971 12.0044 506.91 13 508.469C13.568 539.259 11.2101 569.678 16.8897 599.821C19.2108 612.139 20.3411 624.681 22.1247 637.106C22.2261 637.812 23.341 638.374 23.9894 639.47C23.9964 641.896 23.8771 643.863 24.0247 645.809C24.3369 649.926 24.7885 654.033 25.3703 658.453C27.0352 662.351 27.8835 666.415 30.1432 669.416C33.2433 673.533 37.4137 676.845 41.1888 680.852C47.9123 689.63 56.2243 694.172 67.3538 694.093C103.464 693.838 139.576 693.973 175.688 694.032C177.369 694.034 179.415 694.272 180.65 695.228C183.114 697.134 185.062 699.69 187.357 701.835C189.185 703.543 191.211 705.04 193.449 706.877C191.374 707.901 190.236 708.463 189.097 709.025Z" fill="#EC606A"/>
<path d="M162.827 66.9171C163.627 64.8241 164.427 62.7312 165.445 60.0675C160.254 59.8292 156.133 59.7822 152.039 59.4207C144.931 58.7929 140.631 53.8321 140.857 46.7876C141.062 40.3843 145.533 36.2931 152.815 36.1635C161.468 36.0094 170.129 36.1956 178.775 35.9015C180.298 35.8497 182.447 34.5246 183.157 33.1802C203.134 -4.64798 251.638 -10.2105 280.331 18.4541C282.604 21.0476 285.207 22.8686 286.127 25.3211C290.242 36.294 298.751 37.3317 308.54 36.0047C308.703 35.9826 308.863 35.9423 309.025 35.9104C312.286 35.9918 315.547 36.1703 318.806 36.1327C324.34 36.069 328.74 37.8252 331.166 43.9415C332.165 53.4536 327.657 59.3018 319.351 59.9262C316.914 60.1094 314.447 59.9027 312.052 59.5126C313.407 58.4371 314.711 57.7323 316.003 57.0072C317.005 56.4445 317.993 55.8564 319.336 55.1525C321.441 53.8873 323.64 53.1 324.873 51.5458C328.73 46.6851 326.746 41.4104 320.902 41.1893C312.362 40.8662 303.8 41.1062 295.213 41.1062C295.818 44.5581 296.383 47.7838 296.786 51.1083C296.764 51.4735 296.903 51.7399 297.194 52.3217C297.417 53.3281 297.488 54.0191 297.168 54.9013C296.105 58.5485 295.434 62.0046 294.489 65.1657C293.334 58.8281 293.036 52.6298 291.472 46.7695C284.226 19.625 258.092 1.7893 230.683 5.11618C203.015 8.47439 181.946 32.2694 181.821 58.3998C181.799 63.1648 180.19 67.1801 175.528 69.872C172.167 70.3032 169.224 70.9447 166.275 70.9718C153.153 71.0927 140.028 70.9425 126.906 71.0817C118.953 71.1661 112.139 77.6899 112.086 85.5528C111.946 105.984 111.986 126.418 112.165 146.85C112.218 152.871 114.714 157.782 120.943 160.58C123.128 161.286 125.019 162.06 126.919 162.084C136.868 162.206 146.821 162.074 156.771 162.153C168.522 162.245 180.271 162.463 192.477 162.726C232.473 162.846 272.011 162.868 311.55 162.874C312.371 162.874 313.193 162.68 314.461 162.677C324.509 162.832 334.111 162.806 343.71 162.966C352.741 163.116 359.52 159.868 363.169 150.725C363.67 149.837 363.972 149.207 363.973 148.576C364.001 127.889 364.008 107.202 363.962 86.5156C363.961 86.0139 363.33 85.5135 362.839 84.9586C362.685 84.9047 362.365 84.8407 362.317 84.4679C359.59 73.8817 352.688 70.3545 342.567 70.9244C334.116 71.4004 325.617 71.1546 317.142 71.0575C311.693 70.9951 306.249 70.6233 301.07 70.0248C302.615 69.4396 303.887 69.0574 305.167 69.0248C320.969 68.6228 336.772 68.2719 352.904 67.7745C355.462 68.7732 357.691 69.9051 359.921 71.0369C361.353 72.6339 362.784 74.231 364.564 76.3839C365.636 81.2848 366.36 85.6299 366.77 90.257C366.305 91.3414 366.027 92.1437 366.026 92.9463C365.999 110.857 365.989 128.768 366.037 146.679C366.04 147.764 366.551 148.848 366.866 150.314C364.341 161.234 358.495 166.067 346.56 167.073C329.983 167.025 313.874 167.023 297.765 167.047C269.868 167.089 241.971 167.147 213.612 167.133C209.413 167.106 205.676 167.145 201.523 167.118C199.426 167.092 197.745 167.134 195.716 167.114C194.901 167.094 194.433 167.134 193.733 167.126C193.501 167.079 193.037 167.174 192.635 167.108C191.152 167.086 190.071 167.13 188.527 167.106C166.704 167.041 145.345 167.043 123.673 166.871C114.658 163.945 109.3 158.142 107.442 148.712C107.356 144.502 107.224 140.771 107.205 136.592C107.236 133.077 107.154 130.009 107.162 126.54C107.194 124.771 107.138 123.403 107.191 121.703C107.244 120.913 107.187 120.454 107.241 119.63C107.26 118.275 107.167 117.286 107.323 115.943C107.453 107.689 107.334 99.7881 107.214 91.8873C107.333 90.5861 107.537 89.2864 107.558 87.9837C107.749 76.4655 112.227 70.4644 123.945 67.3245C137.488 67.7748 150.353 67.8944 163.219 68.0139C163.088 67.6483 162.958 67.2827 162.827 66.9171ZM171.411 40.8702C165.1 40.9174 158.782 40.8052 152.479 41.0685C148.367 41.2403 145.547 43.3356 145.459 47.8473C145.375 52.1455 148.029 54.9365 152.567 55.0136C160.688 55.1517 168.814 55.0525 177.068 55.0525C177.939 50.232 178.768 45.6405 179.632 40.862C176.999 40.862 174.688 40.862 171.411 40.8702ZM172.296 60.0211C170.38 60.0211 168.465 60.0211 165.486 60.0211C166.534 62.5266 166.833 64.9945 167.891 65.3807C169.679 66.033 172.04 65.68 173.974 65.1144C174.843 64.8601 175.699 63.0832 175.722 61.9797C175.735 61.345 174.071 60.6752 172.296 60.0211Z" fill="#2F3759"/>
<path d="M466.917 112.979C466.917 112.979 467.066 113.372 467.06 113.889C467.319 114.921 467.583 115.437 467.848 115.953C467.848 115.953 467.986 116.414 468.019 116.963C468.365 118.007 468.678 118.503 468.992 118.998C468.992 118.998 469.133 119.37 469.083 119.869C469.028 120.569 469.022 120.77 469.007 120.986C468.999 121.001 468.971 121.019 468.587 121.1C467.805 122.007 467.151 122.802 467.049 123.663C465.974 132.78 465.046 141.915 463.939 151.028C463.604 153.789 462.602 156.259 459.02 155.571C457.004 149.434 454.998 143.723 452.99 137.634C451.788 134.804 450.866 132.143 449.254 129.999C448.588 129.113 446.444 129.339 444.629 129.013C443.192 128.644 442.097 128.321 441.002 127.748C441.001 127.331 441.001 127.164 440.863 126.679C439.164 125.223 437.602 124.086 435.919 122.739C435.595 122.267 435.337 122.08 434.909 121.756C434.593 121.28 434.336 121.093 433.944 120.609C432.732 119.875 431.598 119.515 430.097 119.154C423.495 118.175 417.29 116.766 411.018 116.331C404.124 115.854 397.167 116.274 390.174 115.82C390.08 107.578 390.051 99.82 390.021 92.0621C406.274 92.0179 422.536 91.6274 438.776 92.0557C449.013 92.3257 456.68 98.3257 463.626 106.154C464.261 106.796 464.535 107.008 464.809 107.219C464.809 107.219 464.743 107.281 464.729 107.326C464.82 107.989 464.926 108.608 465.111 109.778C465.352 110.636 465.593 110.851 465.916 110.976C465.916 110.976 466.065 111.358 466.127 111.815C466.431 112.508 466.674 112.743 466.917 112.979Z" fill="#EC606A"/>
<path d="M106.727 91.8695C107.334 99.7881 107.453 107.689 106.861 115.915C104.163 116.238 102.176 116.201 100.189 116.241C88.1909 116.479 76.1937 116.789 64.1945 116.961C58.131 117.048 52.0642 116.897 45.9989 116.853C48.3875 115.905 50.7761 114.956 52.9119 114.109C48.9313 111.596 40.4522 113.089 34.6213 116.799C28.1135 120.941 24.2338 128.14 16.6902 131.205C14.3215 132.167 13.1468 136.068 11.4255 138.624C5.69978 136.017 6.20939 135.025 9.71348 130.58C12.253 127.358 12.9007 122.206 13.2142 117.83C13.4093 115.107 13.5425 113.767 16.2661 112.655C18.951 111.559 21.1084 109.237 23.715 107.867C28.2215 105.499 30.032 98.9983 36.4364 99.6144C40.509 90.9692 48.211 95.7102 54.2115 95.2013C63.302 94.4305 72.5061 94.9999 81.662 94.9999C83.2188 94.9999 84.7755 94.9999 86.3323 94.9999C86.3253 94.411 86.3184 93.8221 86.3114 93.2332C68.4198 93.0372 50.5281 92.841 32.3318 92.3661C56.7649 92.0088 81.5026 91.9303 106.727 91.8695ZM84.5387 114.907C83.9238 113.975 83.2566 112.213 82.7026 112.248C79.6419 112.441 76.6087 113.072 73.5661 113.552C73.6027 114.03 73.6394 114.507 73.676 114.985C77.0298 114.985 80.3836 114.985 84.5387 114.907Z" fill="#EA616B"/>
<path d="M2.00958 643C2.00681 649.782 1.99725 656.564 2.00305 663.346C2.00907 670.388 1.39383 677.46 5.00061 684.075C5.79428 685.531 4.93295 687.889 4.47302 689.912C0.223482 683.309 0.864747 675.925 0.864839 668.659C0.866151 556.886 0.880586 445.114 0.899385 333.342C0.910981 264.214 0.935151 195.085 1.03229 125.496C1.40769 129.911 1.80094 134.782 1.97165 139.661C2.11609 143.791 2.00296 147.929 2.00351 152.999C2.33398 159.722 2.83466 165.506 2.96433 171.298C3.38306 189.999 3.92859 208.702 3.95419 227.406C4.06232 306.446 4.10346 385.486 3.95487 464.526C3.88416 502.132 3.25144 539.735 3.04578 577.341C2.97672 589.97 3.7077 602.605 3.57315 615.232C3.47446 624.492 2.5603 633.744 2.00958 643Z" fill="#EB5C64"/>
<path d="M311.995 59.8747C314.448 59.9027 316.914 60.1094 319.351 59.9262C327.657 59.3018 332.165 53.4536 331.3 44.2717C341.523 46.6357 350.851 51.2419 358.583 58.3792C361.834 61.3801 363.928 65.7918 360.094 70.7046C357.691 69.905 355.462 68.7732 352.609 67.4083C338.451 66.9569 324.917 66.7384 311.259 66.1393C311.123 63.8734 311.112 61.9882 311.325 60.0513C311.55 59.9996 311.995 59.8747 311.995 59.8747Z" fill="#C2DEFF"/>
<path d="M389.76 91.9609C390.051 99.82 390.08 107.578 390.101 115.975C390.091 116.614 389.905 116.904 389.443 116.892C381.741 116.921 374.502 116.963 367.183 116.544C367.188 107.974 367.273 99.8647 367.798 91.8288C375.152 91.8204 382.065 91.7382 388.978 91.656C389.152 91.7239 389.326 91.7918 389.76 91.9609Z" fill="#C15E6A"/>
<path d="M388.928 91.3399C382.065 91.7383 375.152 91.8204 367.764 91.5304C367.221 90.7638 367.152 90.3694 367.084 89.975C366.36 85.6299 365.636 81.2848 364.83 76.5665C374.794 77.8785 382.764 82.9409 388.928 91.3399Z" fill="#BFD6F9"/>
<path d="M308.96 35.5824C308.863 35.9423 308.703 35.9827 308.54 36.0047C298.751 37.3317 290.242 36.294 286.127 25.3212C285.207 22.8686 282.604 21.0476 280.585 18.6489C288.358 22.5127 296.373 26.5676 304.243 30.8861C306.049 31.8769 307.358 33.7743 308.96 35.5824Z" fill="#C9DDFB"/>
<path d="M162.375 66.8438C162.958 67.2828 163.088 67.6483 163.219 68.0139C150.353 67.8944 137.488 67.7749 124.322 67.3696C136.655 66.9793 149.289 66.8748 162.375 66.8438Z" fill="#253253"/>
<path d="M480.219 720.874C480.103 720.654 480.292 720.401 480.78 720.106C480.905 720.328 480.72 720.587 480.219 720.874Z" fill="#C9DDFB"/>
<path d="M481.224 719.894C481.101 719.674 481.287 719.413 481.781 719.109C481.908 719.33 481.723 719.593 481.224 719.894Z" fill="#C9DDFB"/>
<path d="M482.225 718.896C482.101 718.674 482.289 718.412 482.788 718.109C482.912 718.33 482.725 718.593 482.225 718.896Z" fill="#C9DDFB"/>
<path d="M488.243 710.954C488.197 710.795 488.37 710.515 488.763 710.119C488.907 710.341 488.733 710.617 488.243 710.954Z" fill="#C9DDFB"/>
<path d="M489.251 708.97C489.203 708.811 489.371 708.527 489.76 708.123C489.906 708.342 489.734 708.622 489.251 708.97Z" fill="#C9DDFB"/>
<path d="M4.828 691.312C4.98184 691.275 5.22531 691.469 5.34491 691.799C5.22104 691.936 4.91763 691.543 4.828 691.312Z" fill="#EB5C64"/>
<path d="M474.233 724.88C474.113 724.649 474.31 724.392 474.826 724.111C474.941 724.339 474.743 724.595 474.233 724.88Z" fill="#C9DDFB"/>
<path d="M464.756 106.947C464.535 107.008 464.261 106.796 463.903 106.328C464.114 106.273 464.408 106.474 464.756 106.947Z" fill="#C9DDFB"/>
<path d="M189.552 709.088C190.236 708.463 191.374 707.901 193.449 706.877C191.211 705.04 189.185 703.543 187.357 701.835C185.062 699.69 183.114 697.134 180.65 695.228C179.415 694.272 177.369 694.034 175.688 694.032C139.576 693.973 103.464 693.838 67.3538 694.093C56.2243 694.172 47.9123 689.63 41.6414 680.939C82.608 680.744 123.186 680.818 163.763 680.856C165.243 680.857 166.722 680.493 168.324 680.257C169.444 680.468 170.442 680.722 171.87 681.049C172.559 681.256 172.817 681.39 173.364 681.785C173.857 685.483 174.06 688.921 174.271 692.483C218.638 692.483 262.661 692.483 307.121 692.483C307.121 688.357 307.121 684.705 307.341 681.058C307.56 681.064 307.998 681.021 308.467 681.037C346.393 681.04 383.85 681.081 421.306 680.981C432.78 680.951 443.563 671.274 443.96 659.895C444.609 641.298 444.506 622.674 444.786 603.72C444.902 602.918 444.953 602.458 445.294 602.284C445.854 605.896 446.122 609.22 446.509 614.009C448.096 611.854 448.985 610.975 449.487 609.913C452.761 602.986 452.88 602.928 458.979 607.466C458.999 614.959 459.009 621.982 459.014 629.474C459.005 641.103 459.006 652.264 458.997 663.424C458.987 676.121 453.387 685.645 441.881 690.847C437.233 692.949 431.665 693.811 426.503 693.855C394.856 694.126 363.206 693.986 331.557 694.048C329.822 694.051 327.459 694.045 326.477 695.078C324.019 697.662 326.691 707.427 329.929 709.033C291.951 709.103 253.972 709.181 215.994 709.237C207.332 709.25 198.669 709.182 189.552 709.088Z" fill="#C15E6A"/>
<path d="M330.4 709.108C326.691 707.427 324.019 697.661 326.476 695.078C327.459 694.045 329.822 694.051 331.557 694.048C363.206 693.986 394.856 694.126 426.503 693.855C431.665 693.811 437.233 692.949 441.881 690.847C453.387 685.645 458.987 676.121 458.997 663.424C459.006 652.264 459.005 641.103 459.384 629.48C461.173 631.346 462.586 633.676 463.844 636.362C463.52 637.836 463.18 638.958 463.211 640.07C463.424 647.665 464.748 655.417 463.616 662.796C462.872 667.639 463.107 671.833 464.716 676.049C465.334 677.67 467.495 678.702 469.17 680.005C469.387 680.008 469.82 679.985 469.82 679.985C469.781 680.539 469.742 681.092 469.222 681.964C468.759 683.164 468.776 684.045 468.793 684.927C465.234 698.639 452.793 709.009 438.785 709.088C402.815 709.289 366.843 709.173 330.4 709.108Z" fill="#EA616B"/>
<path d="M469.905 679.525C469.82 679.985 469.387 680.008 469.186 679.537C468.977 661.712 468.968 644.359 468.97 626.537C468.977 486.712 468.972 347.355 468.975 207.53C468.98 178.381 468.975 149.7 468.971 121.019C468.971 121.019 468.999 121.001 469.189 120.997C469.379 120.993 469.743 121.023 469.743 121.023C469.872 124.344 470.115 127.665 470.115 130.986C470.131 311.515 470.127 492.043 470.119 672.572C470.119 674.736 470.035 676.9 469.905 679.525Z" fill="#C05A62"/>
<path d="M468.913 684.584C468.776 684.045 468.759 683.164 469.041 682.18C469.238 682.799 469.136 683.519 468.913 684.584Z" fill="#EB5C64"/>
<path d="M469.034 118.681C468.678 118.503 468.365 118.008 468.044 117.203C468.384 117.383 468.73 117.873 469.034 118.681Z" fill="#EB5C64"/>
<path d="M467.909 115.642C467.583 115.437 467.319 114.921 467.063 114.099C467.372 114.305 467.671 114.818 467.909 115.642Z" fill="#EB5C64"/>
<path d="M469.756 120.765C469.743 121.023 469.379 120.993 469.197 120.982C469.022 120.77 469.028 120.569 469.058 120.067C469.311 120.012 469.54 120.259 469.756 120.765Z" fill="#EB5C64"/>
<path d="M466.905 112.708C466.674 112.743 466.431 112.508 466.126 112.02C466.34 111.991 466.617 112.214 466.905 112.708Z" fill="#EB5C64"/>
<path d="M465.899 110.714C465.593 110.851 465.352 110.636 465.114 110.094C465.319 110.056 465.6 110.255 465.899 110.714Z" fill="#EB5C64"/>
<path d="M23.9841 639.002C23.341 638.374 22.2261 637.812 22.1247 637.106C20.3411 624.681 19.2108 612.139 16.8897 599.821C11.2101 569.678 13.568 539.259 13 508C13 421.103 13.007 335.143 12.9582 249.183C12.957 247.122 12.3333 245.061 12 243C14.5307 224.913 17.2136 206.846 19.5284 188.731C20.6963 179.592 21.1601 170.365 22.0337 161.186C22.1944 159.497 22.7935 157.85 23.5924 156.559C23.991 317.624 23.9876 478.313 23.9841 639.002Z" fill="#E6606B"/>
<path d="M168.202 680.3C166.722 680.493 165.243 680.857 163.763 680.856C123.186 680.818 82.608 680.743 41.5779 680.588C37.4136 676.845 33.2433 673.533 30.1432 669.416C27.8835 666.415 27.0352 662.351 25.3881 657.967C25.1905 655.175 25.138 653.177 25.1379 651.179C25.1291 482.485 25.1288 313.791 25.0744 145.097C25.0736 142.714 24.3978 140.331 24.037 137.948C26.067 134.266 27.8353 130.407 30.188 126.945C33.7866 121.65 38.7156 118.04 45.6132 116.918C52.0642 116.897 58.131 117.048 64.1945 116.961C76.1937 116.789 88.1909 116.479 100.189 116.241C102.176 116.201 104.163 116.238 106.612 116.268C107.167 117.286 107.259 118.275 106.763 119.64C87.8511 120.011 69.529 119.99 51.2069 120.029C49.403 120.033 47.5314 120.156 45.8078 120.639C35.0882 123.644 29 132.04 28.9995 143.73C28.9913 312.796 28.9671 481.862 29.1147 650.928C29.1188 655.742 29.7892 661.293 32.2275 665.204C36.3658 671.843 40.7832 678.432 50.9076 678.241C80.3796 677.685 109.869 678.025 139.351 678.077C141.989 678.082 144.627 678.542 147.297 678.973C154.287 679.537 161.244 679.918 168.202 680.3Z" fill="#FBD4C9"/>
<path d="M2.40439 643.092C2.5603 633.744 3.47446 624.492 3.57315 615.232C3.7077 602.605 2.97672 589.97 3.04578 577.341C3.25143 539.735 3.88415 502.132 3.95486 464.526C4.10345 385.486 4.06232 306.446 3.95419 227.406C3.92859 208.702 3.38306 189.999 2.96432 171.298C2.83466 165.506 2.33398 159.722 2.00525 153.467C3.04877 151.252 4.09024 149.504 5.4183 147.274C6.89893 159.567 11.0095 171.266 8.30292 183.599C8.12622 184.404 8.03812 185.241 8.01559 186.066C7.66663 198.848 7.17465 211.628 7.04062 224.413C6.87213 240.482 6.87781 256.555 7.04147 272.624C7.15735 283.997 7.76273 295.365 7.93002 306.739C7.98322 310.354 7.04379 313.98 7.04178 317.601C6.9891 412.539 7 507.478 7 602.416C7 614.823 7.1535 627.232 6.93546 639.634C6.82587 645.866 6.04077 652.086 4.46393 658.433C4.3093 656.684 4.18878 654.931 3.99271 653.187C3.61758 649.85 3.19946 646.518 2.40439 643.092Z" fill="#EF5C68"/>
<path d="M11.7145 243.26C12.3334 245.061 12.9571 247.122 12.9582 249.183C13.007 335.143 13 421.103 13 507.531C12.0044 506.91 10.6141 505.971 10.1231 504.688C9.62202 503.378 10.0006 501.731 10.0006 500.231C9.99998 418.419 9.98109 336.607 10.0607 254.796C10.0643 251.036 10.9526 247.278 11.7145 243.26Z" fill="#EA616B"/>
<path d="M24.0268 138.419C24.3978 140.331 25.0736 142.714 25.0744 145.097C25.1288 313.791 25.1291 482.485 25.1379 651.179C25.138 653.177 25.1905 655.175 25.2008 657.659C24.7885 654.033 24.3369 649.926 24.0247 645.809C23.8771 643.862 23.9963 641.896 23.9894 639.47C23.9876 478.313 23.991 317.624 23.9872 156.465C23.9923 150.294 24.0045 144.593 24.0268 138.419Z" fill="#CF5B61"/>
<path d="M147.264 678.791C144.627 678.542 141.989 678.082 139.351 678.077C109.869 678.025 80.3796 677.685 50.9076 678.241C40.7833 678.433 36.3658 671.843 32.2276 665.204C29.7892 661.293 29.1189 655.742 29.1147 650.928C28.9671 481.862 28.9913 312.796 28.9995 143.73C29 132.04 35.0882 123.644 45.8078 120.639C47.5315 120.156 49.4031 120.033 51.2069 120.029C69.529 119.99 87.8512 120.011 106.652 120.005C107.187 120.454 107.244 120.913 106.903 121.911C106.694 123.947 106.883 125.445 107.072 126.942C107.154 130.009 107.236 133.077 106.889 136.854C106.772 141.439 107.083 145.315 107.395 149.19C109.3 158.142 114.658 163.945 123.662 167.238C124.291 168.681 124.448 169.701 124.973 170.47C131.235 179.653 140.072 184.222 151.519 184.916C159.641 184.944 167.302 184.935 175.431 184.949C180.598 184.958 185.298 184.944 190.465 184.955C230.286 184.968 269.638 184.957 309.46 184.97C321.946 184.968 333.964 184.941 346.451 184.931C354.614 184.633 362.307 184.318 370.392 184.008C381.63 182.232 389.826 172.398 389.932 160.775C390.055 147.18 390.016 133.583 390.511 119.99C403.99 120.771 417.183 118.088 430.183 122.306C435.049 127.711 440.423 132.463 440.968 140.065C441.418 146.352 441.966 152.657 441.919 158.95C441.809 173.746 441.112 188.54 441.104 203.335C441.034 337.48 441.057 471.626 441.097 605.771C441.098 607.516 441.672 609.26 441.975 611.473C441.653 627.214 441.75 642.511 440.883 657.752C440.21 669.564 430.227 677.982 418.352 677.99C387.23 678.011 356.109 678.018 324.668 677.855C323.766 676.2 323.234 674.699 322.59 673.248C319.493 666.278 316.503 659.174 307.039 658.707C306.635 658.283 306.346 658.096 306.031 657.949C306.005 657.989 306.089 657.946 306.044 657.591C304.145 653.043 300.47 652.385 296.493 652.384C259.382 652.376 222.271 652.411 185.16 652.339C180.305 652.33 176.28 653.439 173.628 658.279C173.28 659.211 173.176 659.896 173.198 660.553C173.324 660.525 173.418 660.765 173.055 661.042C172.445 667.019 172.198 672.72 171.525 678.642C163.154 678.839 155.209 678.815 147.264 678.791ZM208.5 462.934C269.162 462.934 329.824 462.885 390.486 463.031C394.888 463.042 396.11 461.901 396.145 457.477C396.182 452.718 393.616 453.009 390.453 453.01C287.127 453.032 183.802 453.024 80.4764 453.034C78.8565 453.034 77.2366 453.199 75.3428 453.303C75.3428 456.549 75.3428 459.436 75.3428 462.935C119.611 462.935 163.556 462.935 208.5 462.934ZM383.471 352.886C386.136 352.886 388.807 352.782 391.465 352.912C394.543 353.063 396.289 352.045 395.974 348.661C395.811 346.912 395.764 345.152 395.662 343.334C288.584 343.334 182.075 343.334 75.4131 343.334C75.4131 346.625 75.4131 349.509 75.4131 352.887C178.019 352.887 280.25 352.887 383.471 352.886ZM326.5 500.973C349.447 500.973 372.393 500.973 395.652 500.973C395.652 497.442 395.652 494.554 395.652 491.332C297.108 491.332 198.886 491.332 100.354 491.332C100.354 494.575 100.354 497.465 100.354 500.973C175.61 500.973 250.555 500.973 326.5 500.973ZM334.499 574.928C339.162 574.923 343.829 575.009 348.487 574.85C349.619 574.811 351.305 574.27 351.743 573.437C354.068 569.021 351.528 565.038 346.567 565.037C257.963 565.031 169.358 565.031 80.7539 565.043C78.9827 565.043 77.2115 565.204 75.3913 565.292C75.3913 568.696 75.3913 571.578 75.3913 574.928C161.691 574.928 247.595 574.928 334.499 574.928ZM109.545 279.042C203.322 279.042 297.099 279.03 390.876 279.088C394.139 279.09 396.156 278.888 396.088 274.676C396.028 270.942 394.958 269.88 391.235 269.884C295.792 269.97 200.349 269.961 104.906 269.872C101.318 269.868 99.9715 270.677 99.9522 274.56C99.932 278.631 101.657 279.446 105.066 279.06C106.217 278.93 107.395 279.041 109.545 279.042ZM101.5 379.997C92.7648 379.997 84.0296 379.997 75.4844 379.997C75.4844 383.869 75.4844 386.755 75.4844 389.571C147.479 389.571 219.001 389.571 290.617 389.571C290.617 386.283 290.617 383.393 290.617 379.997C227.657 379.997 165.078 379.997 101.5 379.997ZM370.5 538.011C378.904 538.011 387.308 538.011 395.584 538.011C396.566 528.095 396.566 528.095 388.045 528.095C327.27 528.097 266.494 528.098 205.718 528.1C203.622 528.1 201.526 528.1 199.358 528.1C199.358 531.807 199.358 534.689 199.358 538.012C256.338 538.012 312.919 538.012 370.5 538.011ZM187.5 316.021C203.897 316.021 220.295 316.021 236.582 316.021C237.623 306.371 237.411 306.114 228.62 306.113C179.515 306.109 130.409 306.115 81.3032 306.118C79.3697 306.118 77.4362 306.118 75.3808 306.118C75.3808 309.744 75.3808 312.632 75.3808 316.019C112.669 316.019 149.584 316.019 187.5 316.021ZM382.491 242.96C386.775 242.96 391.059 242.96 395.19 242.96C397.112 233.451 396.816 233.04 388.432 233.039C340.438 233.029 292.443 233.026 244.449 233.021C242.504 233.02 240.558 233.021 238.333 233.021C238.333 236.575 238.333 239.461 238.333 242.962C286.271 242.962 333.883 242.962 382.491 242.96ZM221.496 416.957C172.778 416.957 124.061 416.957 75.4462 416.957C74.5291 426.091 74.5291 426.095 82.2736 426.095C131.588 426.093 180.902 426.089 230.216 426.086C232.312 426.086 234.407 426.086 236.657 426.086C236.657 422.727 236.657 420.157 236.657 416.957C231.731 416.957 227.113 416.957 221.496 416.957ZM377.499 416.95C334.098 416.95 290.697 416.95 247.377 416.95C247.377 420.773 247.377 423.659 247.377 426.068C297.03 426.068 346.239 426.068 395.644 426.068C395.644 422.748 395.644 420.178 395.644 416.95C389.725 416.95 384.112 416.95 377.499 416.95ZM116.5 528.089C104.351 528.098 92.1999 528.229 80.0535 528.049C76.077 527.991 74.5154 529.439 75.0088 533.306C75.1903 534.728 75.2588 536.165 75.3809 537.619C104.339 537.619 132.859 537.619 161.546 537.619C161.546 534.643 161.546 532.071 161.546 528.089C146.657 528.089 132.078 528.089 116.5 528.089ZM358.5 316.042C370.779 316.042 383.057 316.042 395.2 316.042C396.895 307.884 396.214 306.194 390.983 306.168C369.658 306.064 348.331 306.133 327.005 306.082C324.255 306.075 322.97 307.19 323.138 309.953C323.254 311.871 323.328 313.791 323.436 316.041C335.203 316.041 346.351 316.041 358.5 316.042ZM330.041 385.46C329.558 388.883 330.919 390.049 334.462 390.021C353.736 389.867 373.012 389.954 392.288 389.924C393.387 389.922 394.486 389.61 395.572 389.444C395.572 386.249 395.572 383.363 395.572 380.527C394.717 380.306 394.246 380.078 393.775 380.077C373.669 380.055 353.562 380.112 333.457 379.995C329.822 379.974 329.939 382.105 330.041 385.46ZM162.969 235.728C162.889 232.172 160.171 233.085 158.219 233.078C140.583 233.017 122.946 233.114 105.311 232.962C101.497 232.929 100.01 234.026 99.9957 238.049C99.9814 242.21 101.755 243.036 105.433 243.007C123.068 242.869 140.705 242.943 158.341 242.91C159.77 242.908 161.199 242.673 162.977 242.515C162.977 240.263 162.977 238.452 162.969 235.728ZM261.046 309.657C260.778 308.909 260.544 307.525 260.238 307.509C255.969 307.287 251.658 306.972 247.447 307.459C246.783 307.536 246.303 311.438 246.269 313.58C246.256 314.373 247.727 315.832 248.592 315.888C252.516 316.139 256.466 315.998 260.748 315.998C260.873 313.794 260.965 312.184 261.046 309.657Z" fill="#FEC3A8"/>
<path d="M175.942 69.7996C180.19 67.1802 181.799 63.1649 181.822 58.3999C181.947 32.2694 203.015 8.47444 230.683 5.11623C258.092 1.78935 284.227 19.6251 291.472 46.7696C293.036 52.6298 293.334 58.8281 294.574 65.4791C296.89 67.5217 298.846 68.956 300.802 70.3902C306.249 70.6234 311.693 70.9952 317.142 71.0576C325.617 71.1547 334.116 71.4005 342.567 70.9245C352.688 70.3545 359.59 73.8818 361.892 84.5506C358.51 85.0799 355.504 85.154 352.287 85.0485C351.384 84.2379 350.692 83.607 349.841 82.7396C349.328 82.3827 348.974 82.2623 348.342 82.1354C347.707 82.0378 347.348 81.9468 346.905 81.712C346.5 81.3482 346.233 81.4163 345.641 81.8089C344.516 81.7587 343.768 81.6723 342.879 81.2375C338.82 81.0976 334.9 81.3059 330.524 81.609C276.377 81.7367 222.686 81.7703 168.995 81.7936C168.335 81.7939 167.676 81.6624 166.906 81.2678C165.219 79.5855 163.641 78.2278 162.064 76.8701C163.901 75.4751 165.619 73.8617 167.62 72.7664C168.842 72.0976 170.567 72.4195 171.944 71.9422C173.354 71.4529 174.615 70.5318 175.942 69.7996Z" fill="#60AFC9"/>
<path d="M308.991 184.945C269.638 184.957 230.286 184.968 190.457 184.589C187.396 182.394 184.706 180.719 182.267 178.737C180.703 177.464 179.507 175.738 178.146 174.215C179.97 172.699 181.687 171.022 183.652 169.719C185.279 168.641 187.2 168.005 188.99 167.173C190.071 167.129 191.152 167.086 192.722 167.247C193.21 167.452 193.647 167.526 193.647 167.526L193.965 167.174C194.433 167.134 194.901 167.094 195.973 167.354C198.364 167.498 200.151 167.341 201.939 167.184C205.676 167.145 209.413 167.106 213.928 167.388C216.524 167.806 218.343 167.987 220.161 167.989C245.632 168.008 271.104 168.141 296.572 167.88C301.407 167.831 301.942 171.534 303.564 174.172C303.874 174.677 301.147 177.62 299.373 178.701C296.59 180.397 293.425 181.466 290.422 182.8C290.518 183.202 290.614 183.603 290.71 184.005C296.809 184.005 302.907 184.005 309.003 184.24C308.999 184.475 308.991 184.945 308.991 184.945Z" fill="#C49D9A"/>
<path d="M390.047 119.987C390.016 133.583 390.055 147.18 389.932 160.775C389.826 172.398 381.63 182.232 370.382 183.618C369.508 182.431 368.982 180.922 368.57 180.952C361.856 181.449 358.614 176.002 354.104 172.739C353.467 172.278 352.45 172.304 351.874 171.8C350.187 170.326 348.634 168.698 347.028 167.131C358.495 166.067 364.341 161.234 366.946 149.857C367.078 138.347 367.17 127.676 367.263 117.004C374.502 116.963 381.741 116.921 389.457 117.279C389.972 118.447 390.01 119.217 390.047 119.987Z" fill="#C2A29D"/>
<path d="M175.528 69.8721C174.615 70.5317 173.354 71.4529 171.944 71.9422C170.567 72.4195 168.842 72.0976 167.62 72.7663C165.619 73.8616 163.901 75.4751 162.064 76.87C163.641 78.2278 165.219 79.5854 166.445 81.3642C154.671 81.841 143.246 82.0789 131.828 81.8692C126.768 81.7763 123.17 83.3172 120.811 88.297C120.319 89.1847 120.023 89.8148 120.022 90.4453C119.994 107.801 119.971 125.157 120.049 142.513C120.054 143.662 120.859 144.808 121.487 146.218C122.159 147.925 122.635 149.371 123.081 151.254C122.251 154.562 121.452 157.432 120.654 160.302C114.714 157.782 112.218 152.871 112.165 146.85C111.986 126.418 111.946 105.984 112.086 85.5528C112.139 77.69 118.953 71.1662 126.906 71.0818C140.028 70.9425 153.153 71.0927 166.275 70.9718C169.224 70.9447 172.167 70.3032 175.528 69.8721Z" fill="#67A0BD"/>
<path d="M346.56 167.073C348.634 168.699 350.187 170.326 351.874 171.8C352.45 172.304 353.467 172.278 354.104 172.74C358.614 176.002 361.856 181.449 368.57 180.952C368.982 180.922 369.508 182.431 369.99 183.614C362.307 184.318 354.614 184.633 346.147 184.655C333.251 184.243 321.129 184.124 309.006 184.005C302.907 184.005 296.809 184.005 290.71 184.005C290.614 183.603 290.518 183.202 290.422 182.8C293.425 181.466 296.59 180.397 299.373 178.701C301.147 177.62 303.874 174.677 303.564 174.172C301.942 171.534 301.407 167.831 296.572 167.881C271.104 168.141 245.632 168.008 220.161 167.989C218.343 167.987 216.524 167.806 214.39 167.454C241.971 167.148 269.868 167.089 297.765 167.047C313.874 167.023 329.983 167.025 346.56 167.073Z" fill="#C0A09F"/>
<path d="M314.014 162.576C313.193 162.68 312.371 162.874 311.55 162.874C272.011 162.868 232.473 162.846 192.569 162.41C197.55 160.552 195.756 157.451 194.441 154.253C235.119 154.144 275.336 154.134 315.553 154.143C316.705 154.144 317.858 154.362 318.939 154.794C317.25 157.599 315.632 160.087 314.014 162.576Z" fill="#6387AC"/>
<path d="M188.527 167.106C187.2 168.005 185.279 168.641 183.652 169.719C181.687 171.022 179.97 172.7 178.146 174.215C179.507 175.738 180.703 177.464 182.267 178.737C184.706 180.719 187.396 182.394 189.989 184.564C185.298 184.944 180.598 184.958 175.132 184.667C166.597 184.535 158.827 184.707 151.058 184.879C140.072 184.222 131.235 179.653 124.973 170.471C124.448 169.701 124.291 168.681 123.974 167.411C145.345 167.043 166.704 167.041 188.527 167.106Z" fill="#C0A09F"/>
<path d="M193.979 154.354C195.756 157.451 197.55 160.552 192.112 162.311C180.271 162.463 168.522 162.245 156.771 162.153C146.821 162.074 136.868 162.206 126.919 162.084C125.019 162.06 123.128 161.286 120.943 160.58C121.452 157.432 122.251 154.562 123.389 151.454C125.745 152.174 127.736 153.896 129.785 153.969C142.888 154.435 156.004 154.639 169.118 154.727C177.403 154.783 185.691 154.491 193.979 154.354Z" fill="#5592B5"/>
<path d="M314.461 162.677C315.632 160.087 317.25 157.599 319.36 154.697C328.223 154.386 336.593 154.487 345.33 154.681C352.19 153.323 353.902 151.261 353.996 144.742C354.063 140.152 354.111 135.562 354.465 130.831C355.827 131.684 357.178 132.511 357.882 133.716C358.664 135.055 358.413 137.619 359.387 138.109C362.529 139.69 361.897 142.242 362.027 144.767C362.099 146.181 362.507 147.578 362.815 149.313C362.853 150.091 362.841 150.537 362.829 150.984C359.52 159.868 352.741 163.116 343.71 162.966C334.111 162.806 324.509 162.832 314.461 162.677Z" fill="#5592B5"/>
<path d="M362.764 148.982C362.507 147.578 362.099 146.181 362.027 144.767C361.897 142.242 362.529 139.69 359.387 138.109C358.413 137.619 358.664 135.055 357.882 133.716C357.178 132.511 355.827 131.684 354.415 130.381C353.996 127.046 353.924 124.02 353.91 120.542C353.932 117.053 353.896 114.015 353.906 110.739C353.951 110.501 353.864 110.024 353.92 109.557C353.484 101.136 352.991 93.182 352.499 85.228C355.504 85.1539 358.51 85.0799 361.94 84.9233C362.365 84.8407 362.685 84.9047 362.821 85.4259C362.893 106.959 362.828 127.971 362.764 148.982Z" fill="#67A0BD"/>
<path d="M171.894 40.8661C174.688 40.8621 176.999 40.8621 179.632 40.8621C178.768 45.6405 177.939 50.232 177.068 55.0526C168.814 55.0526 160.688 55.1517 152.567 55.0137C148.029 54.9366 145.375 52.1456 145.459 47.8474C145.547 43.3357 148.367 41.2403 152.479 41.0685C158.782 40.8052 165.1 40.9174 171.894 40.8661Z" fill="#FEFCFB"/>
<path d="M296.948 51.0095C296.383 47.7839 295.818 44.5582 295.214 41.1063C303.8 41.1063 312.362 40.8662 320.902 41.1894C326.746 41.4105 328.73 46.6852 324.873 51.5459C323.64 53.1001 321.441 53.8873 318.87 55.1054C311.225 55.027 304.392 54.8686 297.559 54.7102C297.488 54.0192 297.417 53.3281 297.241 52.0658C297.074 51.3328 297.011 51.1712 296.948 51.0095Z" fill="#FDFAF8"/>
<path d="M297.168 54.9013C304.392 54.8685 311.225 55.0269 318.523 55.2324C317.993 55.8563 317.005 56.4445 316.003 57.0071C314.711 57.7323 313.407 58.437 312.052 59.5126C311.995 59.8747 311.55 59.9996 310.932 59.9052C306.438 59.5726 302.561 59.3344 298.761 59.1009C297.753 65.4767 298.733 66.836 304.002 66.8619C306.462 66.8741 308.922 66.6416 311.382 66.52C324.917 66.7384 338.451 66.9569 352.28 67.5415C336.772 68.2718 320.969 68.6228 305.167 69.0247C303.887 69.0573 302.615 69.4396 301.07 70.0247C298.846 68.9559 296.89 67.5216 294.849 65.774C295.434 62.0046 296.105 58.5485 297.168 54.9013Z" fill="#253253"/>
<path d="M362.815 149.313C362.828 127.971 362.893 106.959 362.975 85.4799C363.33 85.5136 363.961 86.0139 363.962 86.5157C364.008 107.203 364.001 127.889 363.973 148.576C363.972 149.207 363.67 149.837 363.169 150.725C362.841 150.537 362.853 150.091 362.815 149.313Z" fill="#253253"/>
<path d="M367.183 116.544C367.17 127.676 367.078 138.347 366.905 149.476C366.551 148.848 366.04 147.764 366.037 146.679C365.989 128.768 365.999 110.857 366.026 92.9464C366.027 92.1438 366.305 91.3415 366.77 90.2571C367.152 90.3695 367.221 90.7638 367.323 91.4567C367.273 99.8648 367.188 107.974 367.183 116.544Z" fill="#253253"/>
<path d="M172.729 60.0211C174.071 60.6752 175.735 61.3449 175.722 61.9797C175.699 63.0832 174.843 64.8601 173.974 65.1144C172.04 65.68 169.679 66.033 167.891 65.3806C166.833 64.9945 166.534 62.5266 165.486 60.0211C168.465 60.0211 170.38 60.0211 172.729 60.0211Z" fill="#5D75A2"/>
<path d="M107.442 148.712C107.083 145.315 106.772 141.439 106.776 137.301C107.224 140.771 107.356 144.502 107.442 148.712Z" fill="#FBD4C9"/>
<path d="M201.523 167.118C200.151 167.341 198.364 167.498 196.321 167.415C197.745 167.134 199.426 167.092 201.523 167.118Z" fill="#C0A09F"/>
<path d="M107.162 126.54C106.883 125.445 106.694 123.947 106.793 122.242C107.138 123.403 107.194 124.771 107.162 126.54Z" fill="#FBD4C9"/>
<path d="M193.733 167.126C193.965 167.174 193.647 167.526 193.647 167.526C193.647 167.526 193.21 167.452 193.124 167.313C193.037 167.174 193.501 167.079 193.733 167.126Z" fill="#C0A09F"/>
<path d="M296.786 51.1083C297.011 51.1711 297.074 51.3328 297.09 51.7504C296.903 51.7399 296.764 51.4735 296.786 51.1083Z" fill="#253253"/>
<path d="M441.002 127.998C442.097 128.321 443.192 128.644 444.671 129.35C447.702 132.493 450.347 135.252 452.992 138.011C454.998 143.723 457.004 149.434 459.008 156.04C458.996 169.291 458.985 181.648 458.589 194.091C457.802 195.506 457.349 196.822 457.01 198.166C455.862 202.7 454.755 207.245 453.475 212.421C451.203 210.912 449.965 210.089 448.679 209.234C447.346 212.054 446.177 214.527 444.984 216.533C444.968 192.3 445.227 168.532 444.797 144.775C444.696 139.194 442.264 133.654 440.929 128.071C440.953 128.047 441.002 127.998 441.002 127.998Z" fill="#C15E6A"/>
<path d="M458.974 194.005C458.985 181.648 458.996 169.291 459.018 156.465C462.602 156.259 463.604 153.789 463.939 151.028C465.046 141.915 465.974 132.78 467.049 123.663C467.151 122.802 467.805 122.007 468.587 121.1C468.975 149.7 468.98 178.38 468.65 207.481C466.852 207.789 465.359 207.444 463.933 207.627C462.266 207.841 460.658 208.515 459.018 208.523C458.999 203.374 458.986 198.689 458.974 194.005Z" fill="#EB5C64"/>
<path d="M390.511 119.99C390.01 119.218 389.972 118.448 389.92 117.291C389.905 116.904 390.091 116.614 390.165 116.459C397.167 116.274 404.124 115.854 411.018 116.332C417.29 116.766 423.495 118.175 430.194 119.392C430.745 119.776 430.832 119.922 430.919 120.354C430.625 121.097 430.33 121.555 430.035 122.012C417.183 118.088 403.99 120.771 390.511 119.99Z" fill="#FBD4C9"/>
<path d="M452.99 137.634C450.347 135.252 447.702 132.493 445.014 129.397C446.444 129.339 448.588 129.113 449.254 129.999C450.866 132.143 451.788 134.805 452.99 137.634Z" fill="#E1616A"/>
<path d="M436.04 122.948C437.602 124.086 439.164 125.223 440.588 126.68C440.267 126.998 440.084 126.997 439.625 126.855C438.234 125.475 437.119 124.236 436.012 122.985C436.021 122.974 436.04 122.948 436.04 122.948Z" fill="#E1616A"/>
<path d="M430.919 120.068C430.832 119.922 430.745 119.776 430.56 119.392C431.598 119.515 432.732 119.875 433.927 120.626C433.989 121.016 433.958 121.052 433.639 121.013C432.52 120.672 431.719 120.37 430.919 120.068Z" fill="#E1616A"/>
<path d="M439.9 126.996C440.084 126.997 440.267 126.998 440.726 126.998C441.001 127.165 441.001 127.331 441.002 127.748C441.002 127.998 440.953 128.047 440.712 127.94C440.28 127.554 440.09 127.275 439.9 126.996Z" fill="#C15E6A"/>
<path d="M435.024 121.968C435.337 122.08 435.595 122.267 435.919 122.739C436.04 122.948 436.021 122.974 435.787 122.886C435.268 122.606 435.079 122.345 434.995 122.004C435.005 121.993 435.024 121.968 435.024 121.968Z" fill="#E1616A"/>
<path d="M434.006 121C434.336 121.093 434.593 121.28 434.909 121.756C435.024 121.968 435.005 121.993 434.772 121.905C434.255 121.63 434.062 121.375 433.958 121.052C433.958 121.052 433.989 121.016 434.006 121Z" fill="#E1616A"/>
<path d="M84.1381 114.946C80.3837 114.985 77.0298 114.985 73.6761 114.985C73.6394 114.507 73.6028 114.03 73.5661 113.552C76.6087 113.072 79.6419 112.441 82.7026 112.248C83.2567 112.213 83.9238 113.975 84.1381 114.946Z" fill="#EC606A"/>
<path d="M311.259 66.1393C308.922 66.6416 306.462 66.874 304.002 66.8619C298.733 66.836 297.753 65.4767 298.761 59.1008C302.561 59.3343 306.438 59.5726 310.707 59.9569C311.112 61.9882 311.123 63.8734 311.259 66.1393Z" fill="#5D75A2"/>
<path d="M458.589 194.091C458.986 198.689 458.999 203.374 459.007 208.993C458.992 342.285 458.98 474.641 458.969 606.997C452.881 602.928 452.761 602.986 449.487 609.913C448.985 610.975 448.097 611.854 446.509 614.009C446.122 609.22 445.854 605.896 445.274 601.816C444.955 586.578 444.938 572.095 444.941 557.611C444.961 444.074 444.985 330.538 445.008 217.001C446.177 214.527 447.346 212.054 448.679 209.234C449.965 210.089 451.204 210.912 453.475 212.421C454.755 207.245 455.862 202.7 457.01 198.166C457.35 196.822 457.802 195.506 458.589 194.091Z" fill="#C05A62"/>
<path d="M458.979 607.466C458.98 474.641 458.992 342.285 459.014 209.459C460.658 208.515 462.266 207.841 463.933 207.627C465.359 207.444 466.852 207.789 468.641 207.949C468.972 347.355 468.977 486.712 468.599 626.618C467.807 628.638 467.598 630.205 466.939 631.551C466.163 633.136 464.996 634.529 463.999 636.005C462.586 633.676 461.173 631.347 459.389 629.012C459.009 621.982 458.999 614.959 458.979 607.466Z" fill="#E1616A"/>
<path d="M444.984 216.533C444.985 330.538 444.961 444.074 444.941 557.611C444.938 572.095 444.955 586.578 444.983 601.529C444.953 602.458 444.902 602.918 444.444 603.803C443.351 606.486 442.665 608.745 441.979 611.005C441.672 609.26 441.098 607.516 441.097 605.771C441.057 471.626 441.034 337.48 441.104 203.335C441.112 188.54 441.809 173.746 441.919 158.95C441.966 152.657 441.418 146.352 440.968 140.065C440.423 132.463 435.049 127.711 430.183 122.306C430.33 121.555 430.625 121.097 430.919 120.354C431.719 120.37 432.52 120.672 433.639 121.013C434.062 121.375 434.255 121.63 434.762 121.916C435.079 122.345 435.268 122.606 435.778 122.897C437.119 124.236 438.234 125.475 439.625 126.855C440.09 127.275 440.28 127.554 440.688 127.964C442.264 133.654 444.696 139.194 444.797 144.775C445.227 168.531 444.968 192.3 444.984 216.533Z" fill="#D6A095"/>
<path d="M173.418 660.765C173.418 660.765 173.324 660.525 173.486 660.338C173.723 659.444 173.798 658.737 173.873 658.03C176.28 653.439 180.305 652.33 185.16 652.339C222.271 652.411 259.382 652.376 296.493 652.384C300.47 652.385 304.145 653.043 305.626 657.609C304.137 658 303.02 658.018 301.523 657.878C299.351 657.486 297.562 657.066 295.769 657.052C286.943 656.986 278.116 657.032 269.289 657.031C241.476 657.026 213.663 656.958 185.851 657.119C183.492 657.133 179.188 658.534 179.12 659.519C178.79 664.316 179.595 669.191 179.999 674.486C179.95 677.263 180.172 679.637 179.803 681.915C178.631 689.147 180.038 690.995 187.211 690.996C222.699 691.004 258.186 690.999 293.673 690.999C294.673 690.999 295.684 691.086 296.67 690.969C302.851 690.233 304.718 687.456 303.471 681.671C303.043 679.689 303.393 677.472 303.725 675.417C303.98 673.836 305.09 672.374 305.249 670.802C305.68 666.521 305.808 662.209 306.057 657.909C306.346 658.096 306.635 658.283 306.987 659.177C307.073 666.94 307.097 673.997 307.121 681.053C307.121 684.705 307.121 688.357 307.121 692.483C262.661 692.483 218.638 692.483 174.271 692.483C174.06 688.921 173.857 685.483 173.436 681.337C172.626 680.744 172.033 680.86 171.439 680.976C170.442 680.722 169.444 680.468 168.324 680.257C161.244 679.918 154.287 679.537 147.297 678.973C155.209 678.815 163.154 678.839 172.018 678.512C173.097 672.362 173.258 666.563 173.418 660.765Z" fill="#3D375E"/>
<path d="M441.975 611.473C442.665 608.745 443.351 606.486 444.379 604.144C444.506 622.674 444.609 641.297 443.96 659.895C443.563 671.274 432.78 680.951 421.306 680.981C383.85 681.081 346.393 681.04 308.756 680.734C312.788 680.277 317.011 680.282 321.201 679.916C322.508 679.802 323.727 678.688 324.987 678.031C356.109 678.018 387.23 678.011 418.352 677.99C430.227 677.982 440.21 669.564 440.883 657.752C441.75 642.511 441.653 627.214 441.975 611.473Z" fill="#D2AAA1"/>
<path d="M324.668 677.855C323.727 678.688 322.508 679.802 321.201 679.916C317.011 680.282 312.788 680.277 308.288 680.718C307.998 681.021 307.56 681.064 307.341 681.058C307.097 673.997 307.073 666.94 307.101 659.414C316.503 659.174 319.493 666.278 322.59 673.248C323.234 674.699 323.766 676.2 324.668 677.855Z" fill="#C2A29D"/>
<path d="M171.87 681.049C172.033 680.86 172.626 680.744 173.147 681.076C172.817 681.39 172.559 681.256 171.87 681.049Z" fill="#FBD4C9"/>
<path d="M463.844 636.362C464.996 634.529 466.163 633.136 466.939 631.551C467.598 630.205 467.807 628.638 468.587 627.087C468.968 644.359 468.977 661.712 468.969 679.534C467.495 678.702 465.334 677.67 464.716 676.049C463.107 671.833 462.872 667.639 463.616 662.796C464.748 655.417 463.424 647.665 463.211 640.07C463.18 638.958 463.52 637.836 463.844 636.362Z" fill="#EB5C64"/>
<path d="M208 462.934C163.556 462.935 119.611 462.935 75.3428 462.935C75.3428 459.436 75.3428 456.549 75.3428 453.303C77.2366 453.199 78.8565 453.034 80.4764 453.034C183.802 453.024 287.127 453.032 390.453 453.01C393.616 453.009 396.182 452.718 396.145 457.477C396.11 461.901 394.888 463.042 390.486 463.031C329.824 462.885 269.162 462.934 208 462.934Z" fill="#FEF9F7"/>
<path d="M382.976 352.887C280.25 352.887 178.019 352.887 75.4131 352.887C75.4131 349.509 75.4131 346.625 75.4131 343.334C182.075 343.334 288.584 343.334 395.662 343.334C395.764 345.152 395.811 346.912 395.974 348.661C396.289 352.045 394.543 353.063 391.465 352.912C388.807 352.782 386.136 352.886 382.976 352.887Z" fill="#FDFAF8"/>
<path d="M326 500.973C250.555 500.973 175.61 500.973 100.354 500.973C100.354 497.465 100.354 494.575 100.354 491.332C198.886 491.332 297.108 491.332 395.652 491.332C395.652 494.554 395.652 497.442 395.652 500.973C372.393 500.973 349.447 500.973 326 500.973Z" fill="#FEF9F7"/>
<path d="M333.999 574.928C247.595 574.928 161.691 574.928 75.3914 574.928C75.3914 571.578 75.3914 568.696 75.3914 565.292C77.2115 565.204 78.9827 565.043 80.7539 565.043C169.358 565.031 257.963 565.031 346.567 565.037C351.528 565.038 354.068 569.021 351.743 573.437C351.305 574.27 349.619 574.811 348.487 574.85C343.829 575.009 339.162 574.923 333.999 574.928Z" fill="#FEF9F7"/>
<path d="M109.053 279.042C107.395 279.041 106.217 278.93 105.066 279.06C101.657 279.446 99.932 278.631 99.9522 274.56C99.9715 270.677 101.318 269.868 104.906 269.872C200.349 269.961 295.792 269.97 391.235 269.884C394.958 269.88 396.028 270.942 396.088 274.676C396.155 278.888 394.139 279.09 390.876 279.088C297.099 279.03 203.322 279.042 109.053 279.042Z" fill="#FEFCFB"/>
<path d="M102 379.997C165.078 379.997 227.657 379.997 290.617 379.997C290.617 383.393 290.617 386.283 290.617 389.571C219.001 389.571 147.479 389.571 75.4844 389.571C75.4844 386.755 75.4844 383.869 75.4844 379.997C84.0296 379.997 92.7648 379.997 102 379.997Z" fill="#FDFAF8"/>
<path d="M370 538.012C312.919 538.012 256.338 538.012 199.358 538.012C199.358 534.689 199.358 531.807 199.358 528.1C201.526 528.1 203.622 528.1 205.718 528.1C266.494 528.098 327.27 528.097 388.045 528.095C396.566 528.095 396.566 528.095 395.584 538.011C387.308 538.011 378.904 538.011 370 538.012Z" fill="#FDFAF8"/>
<path d="M187 316.02C149.585 316.019 112.669 316.019 75.3809 316.019C75.3809 312.632 75.3809 309.744 75.3809 306.118C77.4362 306.118 79.3697 306.118 81.3033 306.118C130.409 306.115 179.515 306.109 228.621 306.113C237.411 306.114 237.623 306.371 236.582 316.021C220.295 316.021 203.897 316.021 187 316.02Z" fill="#FDFAF8"/>
<path d="M381.992 242.961C333.883 242.962 286.271 242.962 238.333 242.962C238.333 239.462 238.333 236.575 238.333 233.021C240.558 233.021 242.504 233.021 244.449 233.021C292.443 233.026 340.438 233.029 388.432 233.039C396.816 233.04 397.112 233.451 395.19 242.96C391.059 242.96 386.775 242.96 381.992 242.961Z" fill="#FDFAF8"/>
<path d="M221.996 416.957C227.113 416.957 231.731 416.957 236.657 416.957C236.657 420.157 236.657 422.727 236.657 426.086C234.407 426.086 232.312 426.086 230.216 426.086C180.902 426.089 131.588 426.093 82.2736 426.095C74.5291 426.095 74.5291 426.091 75.4462 416.957C124.061 416.957 172.778 416.957 221.996 416.957Z" fill="#FEFCFB"/>
<path d="M377.999 416.95C384.112 416.95 389.725 416.95 395.644 416.95C395.644 420.178 395.644 422.748 395.644 426.068C346.239 426.068 297.03 426.068 247.378 426.068C247.378 423.659 247.378 420.773 247.378 416.95C290.697 416.95 334.098 416.95 377.999 416.95Z" fill="#FEFCFB"/>
<path d="M117 528.089C132.078 528.089 146.657 528.089 161.546 528.089C161.546 532.071 161.546 534.643 161.546 537.619C132.859 537.619 104.339 537.619 75.3809 537.619C75.2588 536.165 75.1903 534.728 75.0088 533.306C74.5154 529.439 76.077 527.991 80.0535 528.049C92.1999 528.229 104.351 528.098 117 528.089Z" fill="#FDFAF8"/>
<path d="M358 316.042C346.351 316.041 335.203 316.041 323.436 316.041C323.328 313.791 323.254 311.871 323.138 309.953C322.97 307.19 324.256 306.075 327.005 306.082C348.331 306.134 369.658 306.064 390.983 306.168C396.214 306.194 396.895 307.884 395.2 316.042C383.058 316.042 370.779 316.042 358 316.042Z" fill="#FDFAF8"/>
<path d="M330.039 385.003C329.939 382.105 329.822 379.974 333.457 379.995C353.563 380.112 373.669 380.055 393.775 380.077C394.246 380.078 394.717 380.306 395.572 380.527C395.572 383.362 395.572 386.249 395.572 389.444C394.486 389.61 393.387 389.922 392.288 389.924C373.012 389.954 353.736 389.867 334.462 390.021C330.92 390.049 329.558 388.883 330.039 385.003Z" fill="#FDFAF8"/>
<path d="M162.973 236.184C162.977 238.452 162.977 240.263 162.977 242.515C161.199 242.673 159.77 242.908 158.341 242.911C140.705 242.943 123.068 242.869 105.433 243.007C101.755 243.036 99.9814 242.21 99.9958 238.049C100.01 234.027 101.497 232.929 105.311 232.962C122.946 233.114 140.583 233.017 158.219 233.078C160.171 233.085 162.889 232.172 162.973 236.184Z" fill="#FDFAF8"/>
<path d="M261.051 310.116C260.965 312.184 260.873 313.794 260.748 315.998C256.466 315.998 252.517 316.139 248.592 315.888C247.727 315.832 246.256 314.374 246.269 313.58C246.303 311.438 246.783 307.536 247.447 307.459C251.658 306.972 255.969 307.287 260.238 307.509C260.544 307.525 260.778 308.909 261.051 310.116Z" fill="#FDFAF8"/>
<path d="M309.003 184.24C321.129 184.124 333.251 184.243 345.678 184.638C333.964 184.941 321.946 184.968 309.46 184.97C308.991 184.945 308.999 184.475 309.003 184.24Z" fill="#D6A095"/>
<path d="M151.519 184.916C158.827 184.707 166.597 184.535 174.664 184.644C167.302 184.935 159.641 184.944 151.519 184.916Z" fill="#C49D9A"/>
<path d="M173.055 661.042C173.258 666.563 173.097 672.362 172.444 678.291C172.198 672.72 172.445 667.019 173.055 661.042Z" fill="#FBD4C9"/>
<path d="M173.628 658.279C173.798 658.737 173.723 659.444 173.36 660.366C173.176 659.896 173.28 659.212 173.628 658.279Z" fill="#FBD4C9"/>
<path d="M353.861 110.977C353.896 114.015 353.932 117.053 353.506 120.564C352.365 122.441 351.157 123.823 351.098 125.252C350.868 130.812 351.112 136.391 350.924 141.955C350.878 143.318 349.863 144.648 349.313 145.525C349.245 130.362 349.155 115.668 349.173 100.528C348.966 96.3419 348.651 92.6013 348.487 88.7444C348.637 88.6281 348.54 88.2603 348.399 87.9246C342.507 87.1335 336.756 86.6782 330.541 86.1528C316.049 86.123 302.021 86.1633 287.53 86.1319C266.711 86.0867 246.356 86.1133 225.537 86.06C194.473 86.0045 163.871 86.0132 133.269 86.0933C131.513 86.0979 129.759 86.6835 127.711 87.0347C127.223 87.3962 127.029 87.7217 126.536 88.3379C126.197 92.0932 126.156 95.5579 126.041 99.479C126.02 103.947 126.073 107.958 126.052 112.387C126.03 114.211 126.081 115.619 126.06 117.484C126.036 122.284 126.083 126.626 126.057 131.43C126.049 136.269 126.114 140.645 126.13 145.261C126.082 145.501 126.245 145.962 126.26 146.329C127.781 147.731 129.232 149.54 130.804 149.653C135.216 149.968 139.677 149.584 144.572 149.559C152.192 149.663 159.358 149.696 166.523 149.705C226.35 149.772 286.177 149.835 345.976 150.25C345.619 151.93 345.291 153.259 344.963 154.588C336.593 154.487 328.223 154.386 319.431 154.381C317.858 154.362 316.705 154.144 315.553 154.143C275.336 154.133 235.119 154.144 194.441 154.253C185.691 154.49 177.403 154.783 169.118 154.727C156.004 154.639 142.888 154.435 129.785 153.969C127.736 153.896 125.745 152.174 123.42 151.015C122.635 149.37 122.159 147.925 121.465 145.752C121.213 126.029 121.179 107.034 121.144 88.0394C123.17 83.3172 126.768 81.7763 131.828 81.8692C143.246 82.0788 154.671 81.841 166.555 81.6887C167.676 81.6623 168.335 81.7938 168.995 81.7935C222.686 81.7702 276.377 81.7366 330.974 81.725C335.593 81.6927 339.306 81.6392 343.019 81.5857C343.768 81.6722 344.516 81.7586 345.88 81.8779C346.496 81.9107 346.99 81.8557 346.99 81.8557C347.348 81.9467 347.707 82.0378 348.514 82.3597C349.31 82.7191 349.655 82.8475 350.001 82.9759C350.692 83.6069 351.384 84.2379 352.287 85.0484C352.991 93.1819 353.484 101.136 353.777 109.646C353.528 110.302 353.408 110.445 353.438 110.492C353.552 110.67 353.716 110.818 353.861 110.977ZM334.849 151.014C333.6 151.074 332.352 151.135 331.104 151.196C331.167 151.55 331.23 151.904 331.293 152.259C332.697 151.865 334.101 151.47 334.849 151.014Z" fill="#253253"/>
<path d="M342.879 81.2375C339.306 81.6392 335.593 81.6927 331.431 81.6302C334.9 81.3058 338.82 81.0976 342.879 81.2375Z" fill="#67A0BD"/>
<path d="M349.841 82.7396C349.655 82.8476 349.31 82.7192 348.792 82.3663C348.974 82.2623 349.328 82.3827 349.841 82.7396Z" fill="#67A0BD"/>
<path d="M346.905 81.712C346.99 81.8558 346.496 81.9107 346.257 81.8416C346.233 81.4162 346.5 81.3481 346.905 81.712Z" fill="#67A0BD"/>
<path d="M120.811 88.2969C121.179 107.034 121.213 126.029 121.27 145.49C120.859 144.808 120.054 143.662 120.049 142.512C119.971 125.157 119.994 107.801 120.022 90.4452C120.023 89.8147 120.319 89.1846 120.811 88.2969Z" fill="#60AFC9"/>
<path d="M349.293 145.994C349.863 144.648 350.878 143.318 350.924 141.955C351.112 136.392 350.868 130.812 351.098 125.252C351.157 123.823 352.365 122.441 353.449 121.016C353.924 124.02 353.996 127.046 354.118 130.522C354.111 135.562 354.063 140.152 353.996 144.742C353.902 151.261 352.19 153.323 345.33 154.681C345.291 153.259 345.619 151.93 346.218 150.033C347.424 148.308 348.358 147.151 349.293 145.994Z" fill="#2F3759"/>
<path d="M353.906 110.739C353.716 110.818 353.552 110.67 353.438 110.492C353.408 110.445 353.528 110.302 353.721 110.113C353.864 110.024 353.951 110.501 353.906 110.739Z" fill="#2F3759"/>
<path d="M179.998 674.038C179.595 669.191 178.79 664.316 179.12 659.519C179.188 658.534 183.492 657.133 185.851 657.119C213.663 656.958 241.476 657.026 269.289 657.031C278.116 657.032 286.943 656.986 295.769 657.052C297.562 657.066 299.351 657.486 301.605 658.285C302.378 663.57 302.689 668.289 302.532 673.044C286.71 673.384 271.355 673.686 255.601 673.963C254.133 673.955 253.065 673.973 251.53 673.967C239.04 673.958 227.019 673.972 214.56 673.961C212.082 673.954 210.041 673.973 207.571 673.968C205.429 673.96 203.715 673.976 201.532 673.966C194.042 673.973 187.02 674.005 179.998 674.038Z" fill="#5D75A2"/>
<path d="M251.997 673.991C253.065 673.973 254.133 673.955 255.893 674.262C270.999 674.72 285.412 674.895 299.826 674.9C300.883 674.9 301.941 673.667 302.999 673.008C302.689 668.289 302.378 663.57 301.985 658.444C303.02 658.018 304.137 658 305.672 657.964C306.089 657.946 306.005 657.989 306.031 657.949C305.808 662.209 305.68 666.521 305.249 670.802C305.09 672.374 303.98 673.836 303.725 675.417C303.393 677.472 303.043 679.689 303.471 681.671C304.718 687.456 302.851 690.233 296.67 690.969C295.684 691.086 294.673 690.999 293.673 690.999C258.186 691 222.699 691.004 187.211 690.996C180.038 690.995 178.631 689.147 179.803 681.915C180.172 679.637 179.95 677.263 179.999 674.486C187.02 674.005 194.042 673.973 201.776 674.242C204.326 674.36 206.163 674.176 207.999 673.992C210.041 673.973 212.082 673.954 214.853 674.26C227.164 674.702 238.744 674.834 250.325 674.898C250.881 674.901 251.44 674.307 251.997 673.991Z" fill="#383864"/>
<path d="M349.313 145.525C348.358 147.151 347.424 148.308 346.246 149.682C286.177 149.835 226.35 149.772 166.523 149.705C159.358 149.697 152.192 149.663 144.547 149.161C144.359 136.402 144.707 124.126 144.916 111.847C145.05 103.994 146.026 102.649 153.608 101.329C155.23 101.047 156.915 101.06 158.572 101.057C174.045 101.03 189.518 101.029 205.302 101.296C206.259 101.687 206.906 101.906 207.553 101.907C233.796 101.926 260.039 101.938 286.281 101.889C287.525 101.886 288.767 101.325 290.478 101.036C308.97 101.018 326.993 100.988 345.421 100.982C346.905 100.996 347.985 100.985 349.066 100.974C349.155 115.668 349.245 130.362 349.313 145.525Z" fill="#FDFEFF"/>
<path d="M204.991 101.021C189.518 101.029 174.045 101.03 158.572 101.057C156.915 101.06 155.23 101.047 153.608 101.329C146.026 102.649 145.05 103.994 144.916 111.847C144.707 124.126 144.359 136.402 144.094 149.077C139.677 149.584 135.216 149.968 130.804 149.653C129.232 149.54 127.781 147.731 126.39 146.231C126.662 145.428 126.553 145.18 126.178 145.022C126.114 140.645 126.049 136.269 126.326 131.122C126.489 125.91 126.311 121.468 126.132 117.026C126.081 115.619 126.03 114.211 126.321 112.081C126.48 107.246 126.298 103.134 126.115 99.0226C126.156 95.5579 126.197 92.0933 126.785 88.2289C127.556 87.5524 127.78 87.2755 128.004 86.9987C129.759 86.6835 131.513 86.0979 133.269 86.0933C163.871 86.0133 194.473 86.0045 225.463 86.4011C224.359 87.6817 222.665 88.3173 221.408 89.4406C216.373 93.9383 212.116 99.4933 204.991 101.021Z" fill="#B9D5F8"/>
<path d="M345.017 100.958C326.993 100.988 308.97 101.018 290.214 100.747C280.766 100.109 274.887 94.8391 269.098 88.9362C274.076 87.9992 278.787 88.1433 283.48 87.9168C285.008 87.843 286.49 86.8022 287.994 86.2037C302.021 86.1634 316.049 86.123 330.654 86.5292C337 87.404 342.77 87.8322 348.54 88.2604C348.54 88.2604 348.637 88.6282 348.376 89.1999C347.023 93.484 350.339 98.4173 345.017 100.958Z" fill="#B9D5F8"/>
<path d="M287.53 86.132C286.49 86.8022 285.008 87.843 283.48 87.9168C278.787 88.1434 274.076 87.9993 269.098 88.9362C274.887 94.8391 280.766 100.11 289.746 100.735C288.767 101.325 287.525 101.886 286.281 101.889C260.039 101.938 233.796 101.926 207.553 101.907C206.906 101.906 206.259 101.687 205.302 101.296C212.116 99.4934 216.373 93.9383 221.408 89.4407C222.665 88.3173 224.359 87.6818 225.926 86.481C246.356 86.1134 266.711 86.0868 287.53 86.132Z" fill="#BFD6F9"/>
<path d="M348.399 87.9246C342.77 87.8322 337 87.404 331.118 86.5994C336.756 86.6782 342.507 87.1335 348.399 87.9246Z" fill="#BFD6F9"/>
<path d="M345.421 100.982C350.339 98.4173 347.023 93.484 348.226 89.3163C348.651 92.6014 348.966 96.3419 349.173 100.528C347.985 100.985 346.905 100.996 345.421 100.982Z" fill="#BFD6F9"/>
<path d="M126.06 117.484C126.311 121.468 126.489 125.91 126.398 130.66C126.083 126.626 126.036 122.284 126.06 117.484Z" fill="#BFD6F9"/>
<path d="M126.041 99.479C126.298 103.134 126.48 107.246 126.394 111.664C126.073 107.958 126.02 103.947 126.041 99.479Z" fill="#BFD6F9"/>
<path d="M335.177 151.045C334.101 151.47 332.697 151.865 331.293 152.259C331.23 151.904 331.167 151.55 331.104 151.196C332.352 151.135 333.6 151.074 335.177 151.045Z" fill="#2F3759"/>
<path d="M126.13 145.261C126.553 145.18 126.662 145.428 126.375 145.864C126.245 145.962 126.082 145.501 126.13 145.261Z" fill="#BFD6F9"/>
<path d="M127.711 87.0347C127.78 87.2755 127.556 87.5523 127.083 87.9382C127.029 87.7217 127.223 87.3962 127.711 87.0347Z" fill="#BFD6F9"/>
<path d="M302.532 673.044C301.941 673.667 300.883 674.9 299.826 674.9C285.412 674.895 270.999 674.72 256.293 674.287C271.355 673.686 286.71 673.383 302.532 673.044Z" fill="#3D375E"/>
<path d="M251.53 673.967C251.44 674.307 250.881 674.901 250.325 674.898C238.744 674.834 227.164 674.702 215.29 674.285C227.019 673.972 239.04 673.958 251.53 673.967Z" fill="#3D375E"/>
<path d="M207.571 673.968C206.163 674.176 204.326 674.36 202.244 674.268C203.715 673.976 205.429 673.96 207.571 673.968Z" fill="#3D375E"/>
</g>
<defs>
<clipPath id="clip0_16_21">
<rect width="494" height="730" fill="white"/>
</clipPath>
</defs>
</svg>
