<svg width="67" height="75" viewBox="0 0 67 75" fill="none" xmlns="http://www.w3.org/2000/svg">
<path d="M33.0251 75L6.01834 67.5027L0 0H66.1312L60.1065 67.4922L33.0251 75Z" fill="#264DE4"/>
<path d="M54.9487 63.1944L60.0972 5.51929H33.0656V69.2613L54.9487 63.1944Z" fill="#2965F1"/>
<path d="M13.7969 30.5552L14.5389 38.834H33.0656V30.5552H13.7969Z" fill="#EBEBEB"/>
<path d="M12.306 13.7983L13.0585 22.0774H33.0656V13.7983H12.306Z" fill="#EBEBEB"/>
<path d="M33.0656 52.0565L33.0293 52.0661L23.809 49.5765L23.2196 42.9736H14.9089L16.0687 55.9727L33.0275 60.6806L33.0656 60.67V52.0565Z" fill="#EBEBEB"/>
<path d="M52.2812 30.5551L53.7758 13.7983H33.037V22.0774H44.7028L43.9495 30.5551H33.037V38.834H43.2316L42.2706 49.5711L33.037 52.0633V60.6765L50.0092 55.9727L50.1337 54.574L52.0792 32.7782L52.2812 30.5551Z" fill="white"/>
</svg>
