<svg width="76" height="75" viewBox="0 0 76 75" fill="none" xmlns="http://www.w3.org/2000/svg">
<path d="M73.5868 34.1589L40.8401 1.41461C38.9556 -0.471538 35.8967 -0.471538 34.0098 1.41461L27.2099 8.21447L35.8358 16.8404C37.8405 16.1631 40.1389 16.6174 41.737 18.2155C43.3426 19.8235 43.7935 22.1417 43.0998 24.1529L51.413 32.4662C53.4243 31.7732 55.7449 32.2217 57.3513 33.8306C59.5962 36.0747 59.5962 39.712 57.3513 41.9578C55.1055 44.2036 51.4682 44.2036 49.2216 41.9578C47.5329 40.2675 47.1157 37.7872 47.9707 35.7068L40.2179 27.954L40.2171 48.3561C40.7643 48.6276 41.2811 48.9889 41.737 49.4432C43.982 51.6873 43.982 55.3246 41.737 57.572C39.4913 59.817 35.8523 59.817 33.6098 57.572C31.3649 55.3246 31.3649 51.6873 33.6098 49.4432C34.1645 48.8893 34.8064 48.4705 35.491 48.189V27.5969C34.8064 27.3171 34.1653 26.9007 33.6098 26.3427C31.9088 24.6442 31.4998 22.1483 32.3713 20.0597L23.8688 11.5556L1.41523 34.0075C-0.471743 35.8953 -0.471743 38.9541 1.41523 40.8403L34.162 73.5854C36.0473 75.4715 39.1053 75.4715 40.9931 73.5854L73.5868 40.9925C75.473 39.1055 75.473 36.0451 73.5868 34.1589Z" fill="#DE4C36"/>
</svg>
