<svg width="67" height="75" viewBox="0 0 67 75" fill="none" xmlns="http://www.w3.org/2000/svg">
<path d="M66.1312 0L60.1065 67.4922L33.0251 75L6.01834 67.5027L0 0H66.1312Z" fill="#E44D26"/>
<path d="M33.0656 69.2613L54.9486 63.1944L60.0972 5.51929H33.0656V69.2613Z" fill="#F16529"/>
<path d="M21.3538 22.0774H33.0656V13.7983H12.306L12.5041 16.0195L14.5389 38.8339H33.0656V30.5551H22.1104L21.3538 22.0774Z" fill="#EBEBEB"/>
<path d="M23.2196 42.9736H14.9088L16.0687 55.9727L33.0275 60.6806L33.0656 60.67V52.0565L33.0293 52.0661L23.809 49.5765L23.2196 42.9736Z" fill="#EBEBEB"/>
<path d="M33.037 38.834H43.2316L42.2706 49.5712L33.037 52.0634V60.6766L50.0092 55.9727L50.1338 54.574L52.0792 32.7783L52.2812 30.5552H33.037V38.834Z" fill="white"/>
<path d="M33.037 22.0571V22.0774H53.0345L53.2006 20.2165L53.5778 16.0195L53.7758 13.7983H33.037V22.0571Z" fill="white"/>
</svg>
