<svg width="75" height="75" viewBox="0 0 75 75" fill="none" xmlns="http://www.w3.org/2000/svg">
<path d="M0 0H75V75H0V0Z" fill="#F7DF1E"/>
<path d="M19.7202 62.6756L25.4598 59.2021C26.567 61.1654 27.5743 62.8264 29.9904 62.8264C32.3063 62.8264 33.7664 61.9205 33.7664 58.3967V34.4324H40.8145V58.4963C40.8145 65.7963 36.5355 69.119 30.2925 69.119C24.6543 69.119 21.3814 66.1989 19.7201 62.675" fill="black"/>
<path d="M44.6429 61.9203L50.3817 58.5975C51.8924 61.0647 53.8558 62.8769 57.3294 62.8769C60.2498 62.8769 62.112 61.4168 62.112 59.403C62.112 56.9864 60.199 56.1305 56.9769 54.7213L55.2154 53.9656C50.1302 51.8012 46.757 49.0826 46.757 43.3432C46.757 38.057 50.7845 34.0293 57.0779 34.0293C61.5586 34.0293 64.7806 35.5901 67.0962 39.6681L61.6086 43.192C60.4002 41.0274 59.0917 40.1717 57.078 40.1717C55.0138 40.1717 53.7048 41.4806 53.7048 43.192C53.7048 45.3066 55.0138 46.1626 58.0342 47.4717L59.7961 48.2268C65.7871 50.7945 69.1604 53.4122 69.1604 59.3023C69.1604 65.6461 64.1763 69.1195 57.4806 69.1195C50.9358 69.1195 46.7068 65.9983 44.643 61.9203" fill="black"/>
</svg>
