<svg width="89" height="88" viewBox="0 0 89 88" fill="none" xmlns="http://www.w3.org/2000/svg">
<g filter="url(#filter0_f_43_168)">
<path d="M75.9629 66.564C75.9629 71.2124 61.87 75 44.4814 75C27.0929 75 13 71.237 13 66.564C13 61.9155 27.0929 58.1279 44.4814 58.1279C61.87 58.1279 75.9383 61.9155 75.9629 66.564Z" fill="black" fill-opacity="0.2"/>
</g>
<path d="M27.2404 57.4884C24.1907 53.1106 23.6004 38.8455 30.7083 30.0652C34.2254 25.8594 35.1354 22.9326 35.4059 18.9729C35.6027 14.472 32.2332 1.0678 44.9242 0.0594088C57.7873 -0.973576 57.074 11.7174 57.0002 18.4318C56.9511 24.0886 61.1568 27.3105 64.059 31.7376C69.3961 39.8539 68.9534 53.8238 63.0506 61.399C55.5737 70.8681 49.1791 66.7607 44.9242 67.105C36.9554 67.5723 36.6849 71.8027 27.2404 57.4884Z" fill="black"/>
<path d="M58.2792 32.5739C60.4927 34.6152 66.2233 43.7399 57.1478 49.446C53.9505 51.4381 60.0008 59.0134 62.903 55.3487C68.0433 48.7573 64.7722 38.2307 61.6733 34.4677C59.6073 31.8114 56.41 30.7784 58.2792 32.5739Z" fill="url(#paint0_linear_43_168)"/>
<path d="M57.6643 31.3441C61.3043 34.2955 67.9204 44.6253 58.2546 51.3643C55.0818 53.4549 61.0584 60.0709 64.4279 56.7014C76.1105 44.945 64.1328 31.4425 60.0008 26.794C56.3116 22.7359 53.0405 27.7286 57.6643 31.3441Z" fill="black" stroke="black" stroke-width="0.9773"/>
<path d="M52.4256 6.47874C52.3026 9.84824 48.5888 12.775 44.1371 13.0456C39.6855 13.3161 36.193 10.7582 36.316 7.38875C36.4389 4.01925 40.1528 1.09246 44.6044 0.821916C49.0561 0.575968 52.5486 3.10924 52.4256 6.47874Z" fill="url(#paint1_linear_43_168)"/>
<path d="M41.776 14.4967C41.899 16.6856 40.866 18.5302 39.4395 18.604C38.013 18.6778 36.7587 16.9807 36.6357 14.7918C36.5127 12.6028 37.5457 10.7582 38.9722 10.6844C40.3987 10.6107 41.653 12.3077 41.776 14.4967Z" fill="url(#paint2_linear_43_168)"/>
<path d="M44.3584 14.6687C44.4076 17.202 46.0555 19.2188 48.0231 19.1696C49.9907 19.1204 51.5402 17.0298 51.491 14.472C51.4418 11.9387 49.7939 9.92191 47.8263 9.9711C45.8587 10.0203 44.2847 12.1354 44.3584 14.6687Z" fill="url(#paint3_linear_43_168)"/>
<path d="M45.9817 15.2345C45.9571 16.6364 46.6458 17.7678 47.5558 17.7678C48.4412 17.7678 49.2036 16.6364 49.2282 15.2591C49.2528 13.8572 48.5642 12.7258 47.6542 12.7258C46.7442 12.7258 46.0063 13.8572 45.9817 15.2345Z" fill="black"/>
<path d="M40.3003 15.2592C40.4233 16.4151 39.9806 17.3989 39.3411 17.4973C38.7017 17.5711 38.0868 16.7103 37.9638 15.5543C37.8408 14.3984 38.2836 13.4146 38.923 13.3162C39.5625 13.2424 40.1774 14.1032 40.3003 15.2592Z" fill="black"/>
<path d="M46.3506 14.4473C46.2769 15.2344 46.6458 15.8738 47.1623 15.923C47.6788 15.9722 48.1707 15.3573 48.2445 14.5949C48.3182 13.8079 47.9493 13.1684 47.4328 13.1192C46.9163 13.07 46.4244 13.6849 46.3506 14.4473Z" fill="url(#paint4_linear_43_168)"/>
<path d="M39.7592 14.6442C39.833 15.2837 39.5625 15.8493 39.169 15.8985C38.7754 15.9477 38.4065 15.4558 38.3327 14.7918C38.2589 14.1523 38.5295 13.5866 38.923 13.5374C39.3165 13.4882 39.6855 14.0047 39.7592 14.6442Z" fill="url(#paint5_linear_43_168)"/>
<path d="M32.0118 38.7964C33.7581 34.8366 37.4719 27.8762 37.5457 22.49C37.5457 18.2105 50.3596 17.1775 51.3926 21.457C52.4256 25.7365 55.0326 32.1312 56.7051 35.2301C58.3776 38.3045 63.2227 48.1178 58.0578 56.6768C53.4094 64.2521 39.3165 70.2532 31.7905 55.6439C29.2326 50.5773 29.6999 44.3056 32.0118 38.7964Z" fill="url(#paint6_linear_43_168)"/>
<path d="M30.4378 35.8448C28.9375 38.6732 25.8385 46.1009 33.4137 50.1591C41.5546 54.4878 41.53 63.3665 31.7413 59.1362C22.7888 55.324 26.7485 39.8784 29.2572 36.1892C30.8805 33.6067 33.34 30.434 30.4378 35.8448Z" fill="url(#paint7_linear_43_168)"/>
<path d="M31.7167 32.6477C29.331 36.5337 23.625 45.683 31.274 50.4544C41.5546 56.7752 38.6524 63.0715 29.2572 57.3901C16.0252 49.4706 27.6585 33.4839 32.9464 27.3844C38.9968 20.547 34.1024 28.6387 31.7167 32.6477Z" fill="black" stroke="black" stroke-width="1.25"/>
<path d="M54.8851 40.2967C54.8851 44.6254 50.7286 50.233 43.596 50.1838C36.2422 50.233 33.1186 44.6254 33.1186 40.2967C33.1186 35.968 37.9884 32.4509 43.9896 32.4509C50.0153 32.4755 54.8851 35.968 54.8851 40.2967Z" fill="url(#paint8_linear_43_168)"/>
<path d="M50.9991 26.6956C50.9253 31.1719 47.9985 32.2295 44.3093 32.2295C40.6201 32.2295 37.9392 31.5654 37.6195 26.6956C37.6195 23.6458 40.6201 21.875 44.3093 21.875C47.9985 21.8504 50.9991 23.6212 50.9991 26.6956Z" fill="url(#paint9_linear_43_168)"/>
<path d="M28.6915 33.5823C31.1018 29.9176 36.193 24.2854 29.6507 34.3693C24.3382 42.6824 27.6831 48.0195 29.4048 49.4951C34.3729 53.9222 34.1762 56.8982 30.2656 54.5617C21.8787 49.5689 23.625 41.1575 28.6915 33.5823Z" fill="url(#paint10_linear_43_168)"/>
<path d="M63.5916 35.0825C61.5011 30.7784 54.8605 19.8583 63.9114 32.5492C72.1507 44.035 66.3709 52.0284 65.3379 52.8154C64.3049 53.6024 60.837 55.2011 61.8454 52.4219C62.8784 49.6426 67.9941 44.3793 63.5916 35.0825Z" fill="url(#paint11_linear_43_168)"/>
<path d="M26.8715 69.0234C21.3623 66.0966 13.3689 69.5891 16.2711 61.6696C16.8614 59.8741 15.4103 57.1687 16.3449 55.4225C17.4517 53.2827 19.8374 53.75 21.2639 52.3235C22.6658 50.8478 23.5512 48.2899 26.1829 48.6835C28.7899 49.077 30.5361 52.2743 32.3562 56.2095C33.7089 59.0133 38.4803 62.9731 38.1606 66.1212C37.767 70.9418 32.2824 71.8518 26.8715 69.0234Z" fill="url(#paint12_linear_43_168)" stroke="#E68C3F" stroke-width="6.25"/>
<path d="M66.9858 50.4296C66.1496 52.0037 62.6571 54.537 60.3206 53.8729C57.9595 53.2334 56.8773 49.6426 57.3446 46.9126C57.7873 43.8628 60.3206 43.6906 63.5179 45.2155C66.9612 46.9126 67.9942 48.3391 66.9858 50.4296Z" fill="url(#paint13_linear_43_168)"/>
<path d="M65.0674 67.6707C69.1009 62.7763 78.0781 63.7847 72.0277 57.0703C70.7488 55.6192 71.1423 52.5202 69.5682 51.1921C67.7236 49.5688 65.6822 50.897 63.813 50.0607C61.9438 49.1507 59.9762 47.4045 57.6889 48.6342C55.4016 49.8886 55.1556 53.1351 54.9343 57.4146C54.7375 60.489 51.9337 65.6293 53.434 68.4577C55.5983 72.8356 61.2306 72.2453 65.0674 67.6707Z" fill="url(#paint14_linear_43_168)" stroke="#E68C3F" stroke-width="6.2507"/>
<path d="M63.3211 61.1285C69.5682 51.9054 64.9198 51.9792 63.3457 51.266C61.7716 50.5281 60.1238 49.077 58.2792 50.0854C56.4346 51.1184 56.3362 53.7747 56.287 57.2671C56.2132 59.7758 54.1226 63.9815 55.377 66.318C56.9019 69.0481 60.5911 65.0883 63.3211 61.1285Z" fill="url(#paint15_linear_43_168)"/>
<path d="M25.5926 62.4566C16.2465 56.4063 20.6244 54.3403 22.0263 53.3811C23.7234 52.1514 23.748 49.7903 25.8385 50.0116C27.9291 50.233 29.1589 52.8154 30.5608 56.0128C31.5937 58.3001 35.1846 61.3498 34.9141 63.9815C34.5697 67.0805 29.6262 65.0391 25.5926 62.4566Z" fill="url(#paint16_linear_43_168)"/>
<path d="M66.4447 50.356C65.7068 51.635 62.7063 53.6518 60.7141 53.1107C58.6727 52.5942 57.7381 49.7166 58.1562 47.5522C58.5251 45.0927 60.7141 44.9698 63.4687 46.1995C66.3955 47.5276 67.3055 48.659 66.4447 50.356Z" fill="black"/>
<path d="M64.4279 49.6428C63.9606 50.5282 61.993 51.9301 60.6157 51.5612C59.2384 51.1923 58.5497 49.2001 58.7711 47.6998C58.9678 46.0027 60.4435 45.9044 62.3127 46.7406C64.3295 47.6752 64.969 48.4622 64.4279 49.6428Z" fill="url(#paint17_linear_43_168)"/>
<path d="M38.9968 17.5463C39.9806 16.6363 42.3663 13.8571 46.8918 16.7593C47.728 17.3003 48.4166 17.3495 50.0153 18.0382C53.2372 19.3663 51.7123 22.5636 48.2691 23.6458C46.7934 24.1131 45.4653 25.9085 42.809 25.7364C40.5217 25.6134 39.9314 24.1131 38.5295 23.3015C36.0454 21.8996 35.6765 20.0058 37.0292 18.9974C38.3819 17.989 38.8984 17.6201 38.9968 17.5463Z" fill="url(#paint18_linear_43_168)" stroke="#E68C3F" stroke-width="3.75"/>
<path d="M50.0645 20.1289C48.7118 20.2027 45.785 23.1295 42.7106 23.1295C39.6363 23.1295 37.7916 20.2765 37.3243 20.2765" stroke="#E68C3F" stroke-width="2.5"/>
<path d="M40.5217 17.3004C41.0136 16.8577 42.563 15.6526 44.6044 16.8823C45.0471 17.1282 45.4898 17.3988 46.1293 17.7677C47.4328 18.5302 46.7934 19.6369 45.2193 20.3256C44.506 20.6207 43.3255 21.2602 42.4401 21.211C41.4563 21.1126 40.7922 20.4731 40.1527 20.055C38.9476 19.268 39.0214 18.6039 39.5871 18.0874C40.0052 17.6939 40.4725 17.325 40.5217 17.3004Z" fill="url(#paint19_linear_43_168)"/>
<defs>
<filter id="filter0_f_43_168" x="0" y="45.1279" width="88.9629" height="42.8721" filterUnits="userSpaceOnUse" color-interpolation-filters="sRGB">
<feFlood flood-opacity="0" result="BackgroundImageFix"/>
<feBlend mode="normal" in="SourceGraphic" in2="BackgroundImageFix" result="shape"/>
<feGaussianBlur stdDeviation="6.5" result="effect1_foregroundBlur_43_168"/>
</filter>
<linearGradient id="paint0_linear_43_168" x1="60.7793" y1="60.1027" x2="62.394" y2="41.9993" gradientUnits="userSpaceOnUse">
<stop stop-color="#FFEED7"/>
<stop offset="1" stop-color="#BDBFC2"/>
</linearGradient>
<linearGradient id="paint1_linear_43_168" x1="45.0809" y1="1.10016" x2="44.3105" y2="11.9452" gradientUnits="userSpaceOnUse">
<stop stop-color="white" stop-opacity="0.8"/>
<stop offset="1" stop-color="white" stop-opacity="0"/>
</linearGradient>
<linearGradient id="paint2_linear_43_168" x1="39.3018" y1="17.675" x2="38.8273" y2="11.4754" gradientUnits="userSpaceOnUse">
<stop stop-color="#FFEED7"/>
<stop offset="1" stop-color="#BDBFC2"/>
</linearGradient>
<linearGradient id="paint3_linear_43_168" x1="47.9187" y1="17.8355" x2="47.9185" y2="11.2409" gradientUnits="userSpaceOnUse">
<stop stop-color="#FFEED7"/>
<stop offset="1" stop-color="#BDBFC2"/>
</linearGradient>
<linearGradient id="paint4_linear_43_168" x1="47.3722" y1="13.2036" x2="47.0471" y2="15.732" gradientUnits="userSpaceOnUse">
<stop stop-color="white" stop-opacity="0.65"/>
<stop offset="1" stop-color="white" stop-opacity="0"/>
</linearGradient>
<linearGradient id="paint5_linear_43_168" x1="38.982" y1="13.6638" x2="39.332" y2="15.7116" gradientUnits="userSpaceOnUse">
<stop stop-color="white" stop-opacity="0.65"/>
<stop offset="1" stop-color="white" stop-opacity="0"/>
</linearGradient>
<linearGradient id="paint6_linear_43_168" x1="45.2155" y1="59.9235" x2="45.2155" y2="37.3525" gradientUnits="userSpaceOnUse">
<stop stop-color="#FFEED7"/>
<stop offset="1" stop-color="#BDBFC2"/>
</linearGradient>
<linearGradient id="paint7_linear_43_168" x1="33.2103" y1="60.2431" x2="27.4492" y2="40.6034" gradientUnits="userSpaceOnUse">
<stop stop-color="#FFEED7"/>
<stop offset="1" stop-color="#BDBFC2"/>
</linearGradient>
<linearGradient id="paint8_linear_43_168" x1="43.9673" y1="34.7968" x2="44.0251" y2="49.2396" gradientUnits="userSpaceOnUse">
<stop stop-color="white" stop-opacity="0.8"/>
<stop offset="1" stop-color="white" stop-opacity="0"/>
</linearGradient>
<linearGradient id="paint9_linear_43_168" x1="44.2995" y1="25.7399" x2="44.3636" y2="31.4826" gradientUnits="userSpaceOnUse">
<stop stop-color="white" stop-opacity="0.65"/>
<stop offset="1" stop-color="white" stop-opacity="0"/>
</linearGradient>
<linearGradient id="paint10_linear_43_168" x1="28.7905" y1="29.2845" x2="28.7905" y2="50.3591" gradientUnits="userSpaceOnUse">
<stop stop-color="white" stop-opacity="0.65"/>
<stop offset="1" stop-color="white" stop-opacity="0"/>
</linearGradient>
<linearGradient id="paint11_linear_43_168" x1="63.7603" y1="27.226" x2="63.7524" y2="46.2679" gradientUnits="userSpaceOnUse">
<stop stop-color="white" stop-opacity="0.65"/>
<stop offset="1" stop-color="white" stop-opacity="0"/>
</linearGradient>
<linearGradient id="paint12_linear_43_168" x1="27.6963" y1="59.394" x2="24.5709" y2="70.2432" gradientUnits="userSpaceOnUse">
<stop stop-color="#FFA63F"/>
<stop offset="1" stop-color="#FFFF00"/>
</linearGradient>
<linearGradient id="paint13_linear_43_168" x1="62.536" y1="58.156" x2="62.0896" y2="38.0027" gradientUnits="userSpaceOnUse">
<stop stop-color="#FFEED7"/>
<stop offset="1" stop-color="#BDBFC2"/>
</linearGradient>
<linearGradient id="paint14_linear_43_168" x1="59.4373" y1="56.1143" x2="67.9471" y2="68.1704" gradientUnits="userSpaceOnUse">
<stop stop-color="#FFA63F"/>
<stop offset="1" stop-color="#FFFF00"/>
</linearGradient>
<linearGradient id="paint15_linear_43_168" x1="61.8352" y1="46.731" x2="58.9269" y2="60.9682" gradientUnits="userSpaceOnUse">
<stop stop-color="white" stop-opacity="0.65"/>
<stop offset="1" stop-color="white" stop-opacity="0"/>
</linearGradient>
<linearGradient id="paint16_linear_43_168" x1="27.0128" y1="50.2404" x2="27.5877" y2="66.2139" gradientUnits="userSpaceOnUse">
<stop stop-color="white" stop-opacity="0.65"/>
<stop offset="1" stop-color="white" stop-opacity="0"/>
</linearGradient>
<linearGradient id="paint17_linear_43_168" x1="61.2916" y1="46.4725" x2="61.965" y2="51.2523" gradientUnits="userSpaceOnUse">
<stop stop-color="white" stop-opacity="0.65"/>
<stop offset="1" stop-color="white" stop-opacity="0"/>
</linearGradient>
<linearGradient id="paint18_linear_43_168" x1="43.9794" y1="17.2804" x2="44.0355" y2="25.6853" gradientUnits="userSpaceOnUse">
<stop stop-color="#FFA63F"/>
<stop offset="1" stop-color="#FFFF00"/>
</linearGradient>
<linearGradient id="paint19_linear_43_168" x1="43.024" y1="16.4857" x2="43.0088" y2="20.9299" gradientUnits="userSpaceOnUse">
<stop stop-color="white" stop-opacity="0.65"/>
<stop offset="1" stop-color="white" stop-opacity="0"/>
</linearGradient>
</defs>
</svg>
