<svg width="96" height="85" viewBox="0 0 96 85" fill="none" xmlns="http://www.w3.org/2000/svg">
<path d="M78.5499 27.5501C77.5588 27.209 76.5318 26.8862 75.4744 26.581C75.6482 25.8717 75.8077 25.1716 75.9496 24.4834C78.2776 13.1828 76.7555 4.07904 71.5578 1.08168C66.5739 -1.79238 58.4231 1.20429 50.1911 8.36828C49.3995 9.05717 48.6057 9.78653 47.8123 10.5509C47.2836 10.0452 46.7557 9.55644 46.2292 9.08897C37.6019 1.42876 28.9544 -1.79936 23.7618 1.20667C18.7827 4.08907 17.3082 12.6475 19.4037 23.3571C19.6061 24.3915 19.8426 25.4479 20.1101 26.5219C18.8863 26.8694 17.7047 27.2397 16.5742 27.6338C6.45963 31.1601 0 36.6869 0 42.4195C0 48.3403 6.93442 54.2788 17.4695 57.8797C18.3009 58.1639 19.1636 58.4326 20.0526 58.6876C19.7641 59.8493 19.5131 60.9876 19.3024 62.0979C17.3043 72.6216 18.8647 80.9779 23.8305 83.8421C28.9599 86.8 37.5683 83.7596 45.9507 76.4323C46.6132 75.8531 47.2781 75.2389 47.9442 74.5951C48.8076 75.4265 49.6696 76.2133 50.527 76.9513C58.6463 83.9383 66.6655 86.7597 71.6268 83.8875C76.751 80.9211 78.4164 71.9445 76.2543 61.023C76.0892 60.1889 75.897 59.3367 75.6812 58.4695C76.2858 58.2907 76.8793 58.1062 77.4579 57.9144C88.4102 54.2857 95.5361 48.4193 95.5361 42.4195C95.5361 36.6661 88.8682 31.1022 78.5499 27.5501ZM76.1744 54.0404C75.652 54.2134 75.116 54.3805 74.5698 54.5426C73.3607 50.7149 71.7289 46.6447 69.7319 42.4394C71.6375 38.3343 73.2063 34.3162 74.3815 30.5133C75.3588 30.7961 76.3074 31.0943 77.2214 31.4091C86.0621 34.4525 91.4548 38.9523 91.4548 42.4195C91.4548 46.1127 85.6309 50.907 76.1744 54.0404ZM72.2506 61.8156C73.2066 66.6449 73.3432 71.0112 72.7099 74.4245C72.1409 77.4916 70.9966 79.5365 69.5818 80.3555C66.571 82.0982 60.1324 79.8329 53.1887 73.8576C52.3926 73.1726 51.5908 72.4412 50.7865 71.6671C53.4784 68.723 56.1688 65.3003 58.7946 61.4991C63.4131 61.0893 67.7765 60.4193 71.7335 59.5046C71.9283 60.2907 72.1014 61.0618 72.2506 61.8156ZM32.5704 80.0543C29.6288 81.0931 27.286 81.1229 25.8698 80.3063C22.8563 78.5682 21.6035 71.8589 23.3124 62.859C23.5081 61.8284 23.7411 60.7696 24.0096 59.6874C27.9232 60.5528 32.2546 61.1755 36.8842 61.5508C39.5276 65.2704 42.2957 68.6893 45.0853 71.6829C44.4758 72.2713 43.8687 72.8315 43.2651 73.3593C39.5584 76.5993 35.8439 78.8981 32.5704 80.0543ZM18.7895 54.0178C14.1311 52.4256 10.284 50.3562 7.64694 48.0981C5.27742 46.0689 4.0811 44.0542 4.0811 42.4195C4.0811 38.9408 9.26755 34.5036 17.9176 31.4877C18.9672 31.1217 20.0659 30.7768 21.2061 30.4529C22.4016 34.3417 23.9698 38.4075 25.8623 42.5188C23.9453 46.6913 22.3548 50.8218 21.1476 54.7562C20.3348 54.5225 19.5473 54.2766 18.7895 54.0178ZM23.409 22.5733C21.6136 13.3976 22.806 6.47576 25.8066 4.73884C29.0027 2.8885 36.0703 5.5267 43.5193 12.1409C43.9954 12.5637 44.4734 13.0061 44.9528 13.4639C42.1771 16.4444 39.4343 19.8377 36.8143 23.5353C32.3211 23.9518 28.0201 24.6208 24.0657 25.5166C23.8171 24.5165 23.5969 23.5339 23.409 22.5733ZM64.6189 32.7491C63.6736 31.1163 62.7031 29.522 61.7138 27.9713C64.762 28.3567 67.6824 28.8682 70.4251 29.4941C69.6017 32.133 68.5754 34.8921 67.3673 37.7206C66.5007 36.0754 65.5842 34.4165 64.6189 32.7491ZM47.8136 16.3807C49.6961 18.4201 51.5813 20.6971 53.4356 23.1677C51.567 23.0794 49.6754 23.0335 47.7681 23.0335C45.8788 23.0335 44.001 23.0784 42.1441 23.1651C44.0002 20.7175 45.9017 18.4436 47.8136 16.3807ZM30.9007 32.7774C29.9564 34.4148 29.0568 36.0646 28.2038 37.7176C27.0153 34.8989 25.9986 32.1272 25.168 29.4509C27.8938 28.841 30.8005 28.3422 33.8293 27.9642C32.826 29.5292 31.8475 31.1351 30.9007 32.777V32.7774ZM33.9166 57.166C30.7872 56.8169 27.8368 56.3438 25.1117 55.7507C25.9555 53.0266 26.9947 50.1957 28.2084 47.3164C29.0636 48.9681 29.9667 50.6186 30.9168 52.2596H30.917C31.8848 53.9314 32.8874 55.569 33.9166 57.166ZM47.9265 68.7461C45.9922 66.659 44.0628 64.3504 42.1784 61.8671C44.0077 61.9389 45.8726 61.9756 47.7681 61.9756C49.7153 61.9756 51.6403 61.9317 53.5351 61.8474C51.6747 64.3754 49.7963 66.6876 47.9265 68.7461ZM67.4063 47.1696C68.6832 50.0801 69.7597 52.8961 70.6143 55.5738C67.8443 56.2057 64.8536 56.7147 61.7025 57.0929C62.6943 55.5213 63.6733 53.8996 64.6353 52.2316C65.6085 50.544 66.5326 48.8538 67.4063 47.1696ZM61.1 50.1926C59.6066 52.782 58.0734 55.2539 56.5169 57.5872C53.682 57.7899 50.7532 57.8943 47.7681 57.8943C44.795 57.8943 41.9031 57.802 39.1183 57.6212C37.4991 55.2573 35.9325 52.7781 34.4487 50.2149H34.449C32.969 47.6587 31.6069 45.0809 30.3727 42.5175C31.6066 39.9481 32.9651 37.3674 34.4366 34.8158L34.4362 34.8163C35.9116 32.2578 37.4644 29.7907 39.0687 27.4416C41.9099 27.2268 44.8234 27.1148 47.7679 27.1148H47.7681C50.7258 27.1148 53.643 27.2277 56.4834 27.4443C58.0632 29.7763 59.6054 32.2354 61.0866 34.7942C62.5846 37.3817 63.9607 39.9453 65.2051 42.4595C63.9644 45.0169 62.5914 47.6063 61.1 50.1926ZM69.5192 4.61742C72.7184 6.46233 73.9625 13.9028 71.9525 23.6596C71.8243 24.2822 71.6799 24.9163 71.5231 25.5589C67.5595 24.6444 63.2555 23.9638 58.7492 23.5411C56.1241 19.8028 53.4038 16.4043 50.6732 13.4621C51.4074 12.7558 52.1405 12.0824 52.8705 11.4469C59.9236 5.30886 66.5157 2.88543 69.5192 4.61742ZM47.7681 33.8885C52.4795 33.8885 56.2991 37.7079 56.2991 42.4195C56.2991 47.131 52.4795 50.9506 47.7681 50.9506C43.0566 50.9506 39.237 47.131 39.237 42.4195C39.237 37.7079 43.0566 33.8885 47.7681 33.8885Z" fill="#00D8FF"/>
</svg>
