<svg width="85" height="51" viewBox="0 0 85 51" fill="none" xmlns="http://www.w3.org/2000/svg">
<path d="M42.5 0C31.1667 0 24.0833 5.66667 21.25 17C25.5 11.3333 30.4583 9.20833 36.125 10.625C39.3582 11.4333 41.669 13.7788 44.2269 16.3752C48.3938 20.6048 53.2165 25.5 63.75 25.5C75.0833 25.5 82.1667 19.8333 85 8.5C80.75 14.1667 75.7917 16.2917 70.125 14.875C66.8919 14.0667 64.581 11.7212 62.0231 9.12475C57.8562 4.89521 53.0335 0 42.5 0ZM21.25 25.5C9.91667 25.5 2.83333 31.1667 0 42.5C4.25 36.8333 9.20833 34.7083 14.875 36.125C18.1081 36.9333 20.419 39.2788 22.9769 41.8753C27.1438 46.1048 31.9665 51 42.5 51C53.8333 51 60.9167 45.3333 63.75 34C59.5 39.6667 54.5417 41.7917 48.875 40.375C45.6418 39.5667 43.331 37.2212 40.7731 34.6248C36.6062 30.3952 31.7835 25.5 21.25 25.5Z" fill="url(#paint0_linear_43_159)"/>
<defs>
<linearGradient id="paint0_linear_43_159" x1="-2.36111" y1="16.32" x2="71.0503" y2="58.6473" gradientUnits="userSpaceOnUse">
<stop stop-color="#2298BD"/>
<stop offset="1" stop-color="#0ED7B5"/>
</linearGradient>
</defs>
</svg>
