<svg width="75" height="75" viewBox="0 0 75 75" fill="none" xmlns="http://www.w3.org/2000/svg">
<path d="M5.85938 0H69.1406C72.3767 0 75 2.62333 75 5.85938V69.1406C75 72.3767 72.3767 75 69.1406 75H5.85938C2.62333 75 0 72.3767 0 69.1406V5.85938C0 2.62333 2.62333 0 5.85938 0Z" fill="#3178C6"/>
<path d="M44.0971 58.7329V66.8247C45.4131 67.4991 46.9696 68.0048 48.7664 68.342C50.5632 68.6792 52.4569 68.8477 54.4479 68.8477C56.388 68.8477 58.2313 68.6622 59.9774 68.2913C61.7235 67.9204 63.2549 67.3093 64.5706 66.4582C65.8866 65.6068 66.9284 64.4941 67.6963 63.1201C68.4639 61.7464 68.8477 60.048 68.8477 58.0251C68.8477 56.5585 68.6282 55.2729 68.1896 54.1687C67.7511 53.0646 67.1183 52.0825 66.2915 51.2229C65.465 50.3631 64.4736 49.592 63.3182 48.9091C62.1624 48.2265 60.859 47.5816 59.4079 46.9749C58.345 46.5363 57.392 46.1109 56.5482 45.6979C55.7048 45.2848 54.9876 44.8635 54.3973 44.4334C53.8066 44.0036 53.3511 43.5483 53.0306 43.0679C52.7101 42.5874 52.5498 42.0439 52.5498 41.4369C52.5498 40.8806 52.6931 40.3793 52.9799 39.9325C53.2667 39.4857 53.6719 39.1022 54.1948 38.782C54.7178 38.4615 55.3588 38.2131 56.1182 38.0358C56.8772 37.8589 57.721 37.7704 58.6488 37.7704C59.3238 37.7704 60.0366 37.8211 60.7872 37.9222C61.5381 38.0232 62.2931 38.1791 63.0524 38.39C63.8115 38.6007 64.5495 38.8661 65.2667 39.1866C65.9836 39.5068 66.646 39.8777 67.2533 40.299V32.7384C66.0217 32.2664 64.6761 31.9166 63.2168 31.689C61.7575 31.4613 60.0829 31.3477 58.1933 31.3477C56.2699 31.3477 54.448 31.5542 52.7271 31.9673C51.0062 32.3801 49.4918 33.0249 48.1843 33.9015C46.8768 34.7783 45.8435 35.8951 45.0841 37.2521C44.325 38.6092 43.9453 40.2316 43.9453 42.1198C43.9453 44.5304 44.6411 46.587 46.0333 48.2897C47.4252 49.9922 49.5381 51.4336 52.3726 52.6137C53.4861 53.0689 54.5238 53.5154 55.4854 53.954C56.4472 54.3923 57.278 54.8473 57.9782 55.3192C58.6784 55.7912 59.231 56.3054 59.6358 56.8617C60.0407 57.4181 60.2432 58.0503 60.2432 58.7584C60.2432 59.2808 60.1166 59.7656 59.8635 60.2124C59.6106 60.6589 59.2266 61.0468 58.7121 61.3755C58.1977 61.7042 57.5564 61.9611 56.7888 62.1466C56.0212 62.332 55.1227 62.4249 54.0935 62.4249C52.3389 62.4249 50.6013 62.1173 48.8804 61.5018C47.1592 60.8865 45.5648 59.9637 44.0971 58.7329ZM30.61 38.5963H41.0156V31.9336H12.0117V38.5963H22.3666V68.2617H30.61V38.5963Z" fill="white"/>
</svg>
